<svg width="194" height="194" viewBox="0 0 194 194" fill="none" xmlns="http://www.w3.org/2000/svg">
<g clip-path="url(#clip0_2072_1315)">
<mask id="mask0_2072_1315" style="mask-type:luminance" maskUnits="userSpaceOnUse" x="0" y="0" width="194" height="194">
<path d="M0 0H194V194H0V0Z" fill="white"/>
</mask>
<g mask="url(#mask0_2072_1315)">
<mask id="mask1_2072_1315" style="mask-type:luminance" maskUnits="userSpaceOnUse" x="0" y="0" width="194" height="194">
<path d="M194 0H0.0143151V193.986H194V0Z" fill="white"/>
</mask>
<g mask="url(#mask1_2072_1315)">
<path fill-rule="evenodd" clip-rule="evenodd" d="M63.3399 60.8905C56.8527 72.1177 51.8548 81.9416 47.3439 92.3097C42.8472 102.678 40.1836 110.454 38.8661 117.17C37.5486 123.901 37.9496 127.538 40.1693 128.827C42.389 130.102 45.74 128.626 50.9097 124.13C56.0651 119.619 61.4782 113.432 68.2089 104.353C74.9252 95.2597 80.9398 86.0086 87.427 74.7814C93.8999 63.5541 98.912 53.7302 103.409 43.3621C107.92 32.9941 110.569 25.2181 111.901 18.4874C113.218 11.7711 112.803 8.11936 110.598 6.84483C108.378 5.5703 105.013 7.031 99.8572 11.542C94.7018 16.0529 89.2887 22.2394 82.558 31.3186C75.8417 40.3978 69.8271 49.6488 63.3399 60.8905Z" fill="#E97272"/>
<path fill-rule="evenodd" clip-rule="evenodd" d="M110.583 6.84455C117.228 10.6968 106.889 41.1135 87.427 74.7954C83.5175 81.5976 79.522 87.9703 75.6125 93.813C66.1467 96.4623 56.0937 96.8776 46.2841 94.8155C50.5373 84.6479 56.3514 72.9767 63.3255 60.9045C82.7871 27.1797 103.939 2.99233 110.583 6.84455Z" fill="#E2E2E2" fill-opacity="0.298" stroke="white" stroke-opacity="0.298" stroke-width="1.06666" stroke-linejoin="round"/>
<path fill-rule="evenodd" clip-rule="evenodd" d="M176.371 96.3767C188.687 103.494 192.912 119.247 185.794 131.591C178.691 143.906 162.939 148.131 150.595 141.028L130.804 129.615L156.581 84.9775L176.371 96.3767Z" fill="#E97272"/>
<path fill-rule="evenodd" clip-rule="evenodd" d="M132.894 130.817L150.594 141.028C152.084 141.873 153.645 142.575 155.206 143.104C153.387 159.444 145.711 174.466 133.71 185.493C133.037 186.123 132.393 186.581 131.591 187.054C129.643 188.171 127.739 188.687 125.49 188.687C123.242 188.687 121.338 188.171 119.39 187.054C119.376 187.04 119.361 187.025 119.347 187.025C119.232 186.954 119.132 186.897 119.018 186.839C112.287 182.958 110.769 173.851 115.967 168.094C125.247 157.797 131.219 144.78 132.894 130.817Z" fill="#5AD6FF"/>
<path fill-rule="evenodd" clip-rule="evenodd" d="M124.302 156.623C129.114 148.288 131.749 140.383 132.894 130.817L141.071 135.557C138.651 149.892 132.307 163.153 122.483 174.022L122.397 174.123C118.674 178.175 112.201 172.318 115.882 168.208C115.91 168.151 115.939 168.122 115.967 168.094C119.304 164.385 121.796 160.948 124.302 156.623Z" fill="#E2E2E2" fill-opacity="0.298" stroke="white" stroke-opacity="0.298" stroke-width="1.06666" stroke-linejoin="round"/>
<path fill-rule="evenodd" clip-rule="evenodd" d="M111.199 7.3457C122.584 12.229 126.164 30.5736 131.72 45.5242C137.391 63.2243 145.468 76.7143 156.581 84.9772C148.003 99.8419 139.396 114.75 130.804 129.614C118.116 124.087 102.392 123.829 84.219 127.796C68.4951 130.502 50.8092 136.531 40.8995 129.142C48.2745 131.003 68.6383 107.332 87.4268 74.7953C106.201 42.2591 116.526 12.7875 111.199 7.3457Z" fill="#F49E4D"/>
<path fill-rule="evenodd" clip-rule="evenodd" d="M96.9785 57.1103C94.1287 62.8099 90.9209 68.7529 87.4267 74.7961C83.9325 80.8537 80.3667 86.5819 76.8725 91.9378C68.0511 86.095 65.144 74.3379 70.5285 65.0439C75.8701 55.7499 87.5127 52.3702 96.9785 57.1103Z" fill="#E2E2E2"/>
<path fill-rule="evenodd" clip-rule="evenodd" d="M156.18 126.006L138.709 115.924L156.581 84.9775L176.372 96.3767C180.467 98.7396 183.417 101.69 185.78 105.8C188.157 109.895 189.231 113.934 189.231 118.674C189.231 121.91 188.73 124.66 187.599 127.71C177.775 131.992 166.132 131.763 156.18 126.006Z" fill="#E2E2E2" fill-opacity="0.298" stroke="white" stroke-opacity="0.298" stroke-width="1.06666" stroke-linejoin="round"/>
<path fill-rule="evenodd" clip-rule="evenodd" d="M159.029 97.0781L156.738 101.045C155.979 102.348 155.048 103.279 153.745 104.038C152.442 104.782 151.167 105.126 149.664 105.126C148.16 105.126 146.885 104.797 145.597 104.052L156.58 85.0059L176.371 96.3763C180.467 98.7392 183.417 101.689 185.78 105.799C186.668 107.332 187.284 108.692 187.856 110.367C185.508 111.069 182.887 110.84 180.596 109.537L159.029 97.0781Z" fill="#E2E2E2" fill-opacity="0.298" stroke="white" stroke-opacity="0.298" stroke-width="1.06666" stroke-linejoin="round"/>
<path fill-rule="evenodd" clip-rule="evenodd" d="M93.6848 63.4535C86.9255 68.7234 77.7604 70.2128 69.5261 67.0766C69.8268 66.3892 70.1419 65.7161 70.5285 65.0717C75.8701 55.7491 87.5127 52.3694 96.9785 57.1095C95.9474 59.2003 94.8018 61.3054 93.6848 63.4535Z" fill="white" fill-opacity="0.298" stroke="white" stroke-opacity="0.298" stroke-width="1.06666" stroke-linejoin="round"/>
<path fill-rule="evenodd" clip-rule="evenodd" d="M117.987 73.6783C106.086 94.2856 85.7799 106.959 63.9125 109.924C71.2876 100.601 79.4932 88.5001 87.3981 74.7953C106.172 42.2591 116.497 12.7875 111.17 7.3457C119.791 11.0261 123.958 22.3966 127.839 34.1823C128.312 47.5577 125.19 61.2195 117.987 73.6783Z" fill="white" fill-opacity="0.298" stroke="white" stroke-opacity="0.298" stroke-width="1.06666" stroke-linejoin="round"/>
<path fill-rule="evenodd" clip-rule="evenodd" d="M120.665 16.6685C118.488 35.9725 103.036 64.9 94.8303 79.063C91.9233 84.1181 88.83 89.1732 85.7511 93.9706C83.3453 97.6939 77.6028 96.6915 76.586 92.381C80.1948 86.9106 83.8465 80.9962 87.4553 74.7668C100.616 51.9685 109.609 30.6596 112.001 18.1005C112.76 13.9046 118.402 12.8449 120.579 16.5539L120.665 16.6685Z" fill="white" fill-opacity="0.298" stroke="white" stroke-opacity="0.298" stroke-width="1.06666" stroke-linejoin="round"/>
<path fill-rule="evenodd" clip-rule="evenodd" d="M43.7207 50.9091C43.7207 50.9091 43.7207 50.9091 43.7207 50.8947C43.9212 50.551 44.0215 50.2074 44.0215 49.8064C44.0215 49.4054 43.9212 49.0617 43.7207 48.7037C43.5203 48.36 43.2768 48.1166 42.9331 47.9017L19.1754 34.1827C18.8174 33.9822 18.4737 33.882 18.0727 33.882C17.6717 33.882 17.328 33.9822 16.9843 34.1827C16.6263 34.3832 16.3829 34.6266 16.1824 34.9846C15.9819 35.3283 15.8817 35.672 15.8817 36.073C15.8817 36.4883 15.9819 36.832 16.1824 37.1757C16.3829 37.5194 16.6263 37.7771 16.97 37.9776L40.7278 51.6967C41.0428 51.9401 41.4295 52.0261 41.8161 52.0261C42.5751 52.0261 43.3054 51.6394 43.7207 50.9091ZM34.4124 77.5309C34.8277 77.5309 35.1714 77.445 35.5151 77.2445C35.8731 77.044 36.1309 76.7862 36.3314 76.4282C36.5318 76.0845 36.6178 75.7408 36.6178 75.3255C36.6178 74.9246 36.5318 74.5809 36.3314 74.2229C36.1309 73.8792 35.8731 73.6214 35.5151 73.4209C35.1857 73.2204 34.8563 73.1345 34.4554 73.1202L7.07455 71.9172C5.88594 71.86 4.84055 72.8051 4.76894 74.0367C4.71166 75.2396 5.65681 76.2707 6.88838 76.328L34.2835 77.5309H34.3694C34.3838 77.5309 34.3981 77.5309 34.4124 77.5309ZM60.175 32.8366C60.576 32.8222 60.9197 32.7363 61.2634 32.5358C61.6214 32.321 61.8792 32.0776 62.0796 31.7196C62.2801 31.3616 62.3804 31.0179 62.3804 30.6026C62.3804 30.2016 62.2801 29.8579 62.0796 29.4999C62.0653 29.4712 62.051 29.4426 62.0367 29.414L47.2722 6.28633C46.6278 5.25525 45.253 4.96884 44.222 5.61326C43.1909 6.25769 42.8902 7.64678 43.5489 8.66353L58.299 31.8055C58.743 32.4786 59.4447 32.8366 60.175 32.8366Z" fill="#5AD6FF"/>
</g>
</g>
</g>
<defs>
<clipPath id="clip0_2072_1315">
<rect width="194" height="194" fill="white" transform="matrix(-1 0 0 1 194 0)"/>
</clipPath>
</defs>
</svg>
