<svg xmlns="http://www.w3.org/2000/svg" height="24" viewBox="0 96 960 960" width="24"><path d="M479.945 784.131q19.925 0 33.457-13.479 13.533-13.478 13.533-33.402t-13.478-33.576q-13.478-13.652-33.402-13.652-19.925 0-33.457 13.652-13.533 13.652-13.533 33.576t13.478 33.402q13.478 13.479 33.402 13.479ZM434.5 616.478h91v-245.5h-91v245.5ZM480 984.131q-84.913 0-159.345-32.118t-129.491-87.177q-55.059-55.059-87.177-129.491Q71.869 660.913 71.869 576t32.118-159.345q32.118-74.432 87.177-129.491 55.059-55.059 129.491-87.177Q395.087 167.869 480 167.869t159.345 32.118q74.432 32.118 129.491 87.177 55.059 55.059 87.177 129.491Q888.131 491.087 888.131 576t-32.118 159.345q-32.118 74.432-87.177 129.491-55.059 55.059-129.491 87.177Q564.913 984.131 480 984.131Z"/></svg>