<svg width="24" height="24" viewBox="0 0 24 24" fill="none" xmlns="http://www.w3.org/2000/svg">
<g clip-path="url(#clip0_1069_288)">
<path fill-rule="evenodd" clip-rule="evenodd" d="M20.7464 0.0234375H3.25171C1.46935 0.0234375 0.0229492 1.46807 0.0229492 3.2522V20.7469C0.0229492 22.5311 1.46758 23.9757 3.25171 23.9757H11.8806L11.8948 15.4158H9.67034C9.38212 15.4158 9.14695 15.1824 9.14695 14.8941L9.13634 12.134C9.13457 11.844 9.36974 11.6088 9.65973 11.6088H11.8806V8.94232C11.8806 5.84794 13.7691 4.1646 16.5292 4.1646H18.7943C19.0843 4.1646 19.3177 4.39977 19.3177 4.68799V7.01496C19.3177 7.30495 19.0843 7.54012 18.7943 7.54012H17.4045C15.9033 7.54012 15.6133 8.25448 15.6133 9.2995V11.6088H18.911C19.2258 11.6088 19.468 11.8829 19.4309 12.1941L19.1055 14.9543C19.0737 15.2177 18.8491 15.4158 18.5839 15.4158H15.6275L15.6133 23.9757H20.7464C22.5306 23.9757 23.9752 22.5311 23.9752 20.7487V3.2522C23.9752 1.46807 22.5306 0.0234375 20.7464 0.0234375Z" fill="white"/>
</g>
<defs>
<clipPath id="clip0_1069_288">
<rect width="24" height="24" fill="white"/>
</clipPath>
</defs>
</svg>
