<svg width="24" height="24" viewBox="0 0 24 24" fill="none" xmlns="http://www.w3.org/2000/svg">
<g clip-path="url(#clip0_1069_262)">
<path fill-rule="evenodd" clip-rule="evenodd" d="M17.9863 23.9766H6.0119C2.71771 23.9766 0.0229492 21.2818 0.0229492 17.9876V6.01325C0.0229492 2.72083 2.71771 0.0243051 6.0119 0.0243051H17.9863C21.2804 0.0243051 23.9752 2.72083 23.9752 6.01325V17.9876C23.9752 21.2818 21.2804 23.9766 17.9863 23.9766ZM21.9789 6.01325C21.9789 3.81182 20.1877 2.02062 17.9863 2.02062H6.0119C3.81047 2.02062 2.01927 3.81182 2.01927 6.01325V17.9876C2.01927 20.189 3.81047 21.9802 6.0119 21.9802H17.9863C20.1877 21.9802 21.9789 20.189 21.9789 17.9876V6.01325Z" fill="white"/>
<path fill-rule="evenodd" clip-rule="evenodd" d="M19.9844 18.4885C19.9844 18.2126 19.9207 17.9774 19.7828 17.7387C19.6449 17.5 19.4734 17.3285 19.2346 17.1924C18.9959 17.0544 18.7625 16.9908 18.4867 16.9908C18.2109 16.9908 17.9774 17.0544 17.7387 17.1924C17.5 17.3285 17.3285 17.5 17.1906 17.7387C17.0527 17.9774 16.989 18.2126 16.989 18.4885C16.989 18.7643 17.0527 18.9977 17.1906 19.2364C17.3285 19.4751 17.5 19.6466 17.7387 19.7846C17.9774 19.9225 18.2109 19.9844 18.4867 19.9844C18.7625 19.9844 18.9959 19.9225 19.2346 19.7846C19.4734 19.6466 19.6449 19.4751 19.7828 19.2364C19.9207 18.9977 19.9844 18.7643 19.9844 18.4885Z" fill="white"/>
<path fill-rule="evenodd" clip-rule="evenodd" d="M11.9991 17.9883C8.69081 17.9883 6.01196 15.3094 6.01196 12.0011C6.01196 8.69454 8.69081 6.01392 11.9991 6.01392C15.3057 6.01392 17.9863 8.69454 17.9863 12.0011C17.9863 15.3094 15.3057 17.9883 11.9991 17.9883ZM11.9991 8.00847C9.79418 8.00847 8.00828 9.79614 8.00828 12.0011C8.00828 14.2061 9.79418 15.9937 11.9991 15.9937C14.2041 15.9937 15.99 14.2061 15.99 12.0011C15.99 9.79614 14.2041 8.00847 11.9991 8.00847Z" fill="white"/>
</g>
<defs>
<clipPath id="clip0_1069_262">
<rect width="24" height="24" fill="white" transform="matrix(1 0 0 -1 0 24)"/>
</clipPath>
</defs>
</svg>
