<svg width="14" height="14" viewBox="0 0 14 14" fill="none" xmlns="http://www.w3.org/2000/svg">
<path d="M2.17296 12.0312C1.79379 12.0312 1.47053 11.8975 1.20317 11.6301C0.935805 11.3628 0.802124 11.0395 0.802124 10.6604V3.33952C0.802124 2.96035 0.935805 2.63466 1.20317 2.36244C1.47053 2.09021 1.79379 1.9541 2.17296 1.9541H11.8271C12.2063 1.9541 12.532 2.09021 12.8042 2.36244C13.0764 2.63466 13.2125 2.96035 13.2125 3.33952V10.6604C13.2125 11.0395 13.0764 11.3628 12.8042 11.6301C12.532 11.8975 12.2063 12.0312 11.8271 12.0312H2.17296ZM7.00004 7.7291L2.17296 4.47702V10.6604H11.8271V4.47702L7.00004 7.7291ZM7.00004 6.51868L11.7688 3.33952H2.24587L7.00004 6.51868ZM2.17296 4.47702V3.33952V10.6604V4.47702Z" fill="black"/>
</svg>
