<svg width="79" height="79" viewBox="0 0 79 79" fill="none" xmlns="http://www.w3.org/2000/svg">
<g id="more-horiz 2" clip-path="url(#clip0_1068_24)">
<g id="Group">
<g id="Group_2">
<g id="container-id1">
<g id="id1">
<g id="Group_3">
<g id="Group_4">
<g id="id3">
<path id="Vector" fill-rule="evenodd" clip-rule="evenodd" d="M39.4971 32.1055C35.4228 32.1055 32.1052 35.4231 32.1052 39.4973C32.1052 43.5716 35.4228 46.8892 39.4971 46.8892C43.5714 46.8892 46.889 43.5716 46.889 39.4973C46.889 35.4231 43.5714 32.1055 39.4971 32.1055Z" fill="black"/>
<path id="Vector_2" fill-rule="evenodd" clip-rule="evenodd" d="M14.8594 32.1055C10.7851 32.1055 7.46753 35.4231 7.46753 39.4973C7.46753 43.5716 10.7851 46.8892 14.8594 46.8892C18.9337 46.8892 22.2513 43.5716 22.2513 39.4973C22.2513 35.4231 18.9337 32.1055 14.8594 32.1055Z" fill="black"/>
<path id="Vector_3" fill-rule="evenodd" clip-rule="evenodd" d="M64.1348 32.1055C60.0605 32.1055 56.7429 35.4231 56.7429 39.4973C56.7429 43.5716 60.0605 46.8892 64.1348 46.8892C68.2091 46.8892 71.5267 43.5716 71.5267 39.4973C71.5267 35.4231 68.2091 32.1055 64.1348 32.1055Z" fill="black"/>
</g>
</g>
</g>
</g>
</g>
</g>
</g>
</g>
<defs>
<clipPath id="clip0_1068_24">
<rect width="79" height="79" fill="white"/>
</clipPath>
</defs>
</svg>
