<svg width="14" height="14" viewBox="0 0 14 14" fill="none" xmlns="http://www.w3.org/2000/svg">
<path d="M7 6.79557C6.25139 6.79557 5.63889 6.55738 5.1625 6.08099C4.68611 5.6046 4.44792 4.9921 4.44792 4.24349C4.44792 3.49488 4.68611 2.88238 5.1625 2.40599C5.63889 1.9296 6.25139 1.69141 7 1.69141C7.74861 1.69141 8.36354 1.9296 8.84479 2.40599C9.32604 2.88238 9.56667 3.49488 9.56667 4.24349C9.56667 4.9921 9.32604 5.6046 8.84479 6.08099C8.36354 6.55738 7.74861 6.79557 7 6.79557ZM1.96875 12.2206V10.456C1.96875 10.0282 2.08056 9.65148 2.30417 9.32578C2.52778 9.00009 2.81458 8.7546 3.16458 8.58932C3.83542 8.28793 4.48438 8.06189 5.11146 7.9112C5.73854 7.7605 6.36806 7.68516 7 7.68516C7.64167 7.68516 8.27361 7.76293 8.89583 7.91849C9.51806 8.07404 10.1597 8.29766 10.8208 8.58932C11.1903 8.74488 11.4868 8.9855 11.7104 9.3112C11.934 9.63689 12.0458 10.0185 12.0458 10.456V12.2206H1.96875Z" fill="black"/>
</svg>
