<svg width="14" height="14" viewBox="0 0 14 14" fill="none" xmlns="http://www.w3.org/2000/svg">
<path d="M12.5854 2.39134C12.5854 3.62606 12.284 4.85106 11.6813 6.06634C11.0785 7.28162 10.2934 8.37537 9.32606 9.34759C8.3587 10.3198 7.26495 11.1073 6.04481 11.7101C4.82467 12.3129 3.6021 12.6143 2.3771 12.6143C2.09516 12.6143 1.85696 12.517 1.66252 12.3226C1.46807 12.1281 1.37085 11.89 1.37085 11.608L1.37085 9.56634C1.37085 9.26495 1.44863 9.01947 1.60418 8.82988C1.75974 8.6403 1.98821 8.51148 2.2896 8.44342L3.89377 8.04967C4.15627 8.00106 4.38231 8.00592 4.57189 8.06426C4.76147 8.12259 4.92432 8.22954 5.06043 8.38509L6.44585 9.91634C7.21391 9.43023 7.87745 8.9028 8.43647 8.33405C8.9955 7.7653 9.46946 7.13092 9.85835 6.43092L8.38543 4.97259C8.21043 4.79759 8.09134 4.61044 8.02814 4.41113C7.96495 4.21183 7.96252 3.99065 8.02085 3.74759L8.37085 2.31842C8.44863 2.01704 8.58474 1.78613 8.77918 1.62572C8.97363 1.4653 9.22154 1.38509 9.52293 1.38509H11.5646C11.8563 1.38509 12.0993 1.48231 12.2938 1.67676C12.4882 1.8712 12.5854 2.1094 12.5854 2.39134Z" fill="black"/>
</svg>
