<svg width="53" height="53" viewBox="0 0 53 53" fill="none" xmlns="http://www.w3.org/2000/svg">
<path fill-rule="evenodd" clip-rule="evenodd" d="M6.57572 25.2563L5.33009 21.2305L4.08445 25.2563H0.0507812L3.3152 27.7398L2.06957 31.7656L5.33009 29.2783L8.5906 31.7656L7.34497 27.7398L10.6094 25.2563H6.57572Z" fill="black"/>
<path fill-rule="evenodd" clip-rule="evenodd" d="M17.1617 25.2563L15.9121 21.2305L14.6665 25.2563H10.6367L13.8972 27.7398L12.6516 31.7656L15.9121 29.2783L19.1765 31.7656L17.9309 27.7398L21.1914 25.2563H17.1617Z" fill="black"/>
<path fill-rule="evenodd" clip-rule="evenodd" d="M27.7437 25.2563L26.4981 21.2305L25.2524 25.2563H21.2188L24.4832 27.7398L23.2375 31.7656L26.4981 29.2783L29.7586 31.7656L28.5129 27.7398L31.7774 25.2563H27.7437Z" fill="black"/>
<path fill-rule="evenodd" clip-rule="evenodd" d="M38.3296 25.2563L37.084 21.2305L35.8345 25.2563H31.8047L35.0652 27.7398L33.8196 31.7656L37.084 29.2783L40.3445 31.7656L39.0989 27.7398L42.3594 25.2563H38.3296Z" fill="black"/>
<path fill-rule="evenodd" clip-rule="evenodd" d="M47.666 21.2305L46.4204 25.2563H42.3867L45.6511 27.7398L44.4055 31.7656L47.666 29.2783L50.9265 31.7656L49.6809 27.7398L52.9453 25.2563H48.9117L47.666 21.2305Z" fill="black"/>
</svg>
