<svg width="25" height="24" viewBox="0 0 25 24" fill="none" xmlns="http://www.w3.org/2000/svg">
<g clip-path="url(#clip0_1069_312)">
<path fill-rule="evenodd" clip-rule="evenodd" d="M20.1079 6.68248C20.957 6.2033 21.6054 5.43766 21.9056 4.50227C21.1062 4.95847 20.2332 5.26968 19.3104 5.46064C18.5626 4.69501 17.4887 4.21582 16.3155 4.21582C14.0462 4.21582 12.2246 5.98757 12.2246 8.14303C12.2246 8.45423 12.2504 8.74245 12.3241 9.02891C8.93131 8.88568 5.93823 7.30489 3.91584 4.93372C2.46995 7.42513 4.09082 9.48511 5.16464 10.18C4.51445 10.18 3.86611 9.98728 3.31722 9.70083C3.31722 11.6406 4.73916 13.2443 6.58658 13.605C6.18689 13.7235 5.28805 13.796 4.73916 13.6758C5.2641 15.2336 6.7855 16.3829 8.5574 16.4059C7.15941 17.4598 5.11491 18.2979 2.4939 18.0344C4.31553 19.1608 6.46133 19.808 8.78212 19.808C16.3155 19.808 20.4081 13.819 20.4081 8.64697C20.4081 8.47899 20.4081 8.31101 20.3824 8.14303C21.2315 7.54537 21.9295 6.85046 22.4545 6.06007C21.7048 6.37128 20.9312 6.587 20.1079 6.68248Z" fill="white"/>
</g>
<defs>
<clipPath id="clip0_1069_312">
<rect width="25" height="24" fill="white"/>
</clipPath>
</defs>
</svg>
