<svg width="154" height="146" viewBox="0 0 154 146" fill="none" xmlns="http://www.w3.org/2000/svg">
<g id="Group 182">
<path id="Vector" fill-rule="evenodd" clip-rule="evenodd" d="M79.0521 127.846C61.2652 127.516 42.2828 137.712 27.7148 127.453C11.54 116.061 2.48933 83.7251 6.28446 64.2394C9.87075 45.8261 45.8833 51.8941 51.1941 36.8452C52.0528 4.71414 65.0511 5.27359 82.2975 6.41605C99.5463 7.55868 104.826 30.215 115.1 44.1866C123.325 55.3726 133.139 65.0044 135.463 78.7179C138.414 96.1297 142.817 117.776 129.534 129.344C116.305 140.865 96.5499 128.171 79.0521 127.846Z" fill="#F7B4DA"/>
<path id="Vector_2" fill-rule="evenodd" clip-rule="evenodd" d="M84.2678 138.204C64.3307 137.833 43.0542 149.247 26.7248 137.761C8.59436 125.008 -1.55151 88.8075 2.70167 66.9935C6.72078 46.38 42.1428 56.6194 57.8687 42.7631C72.431 29.9321 68.5699 0.983656 87.901 2.26328C107.235 3.54308 113.154 28.9069 124.67 44.5485C133.89 57.0715 144.89 67.8545 147.496 83.2069C150.805 102.699 155.74 126.932 140.852 139.882C126.025 152.779 103.881 138.568 84.2678 138.204Z" stroke="black"/>
</g>
</svg>
