<svg width="303" height="294" viewBox="0 0 303 294" fill="none" xmlns="http://www.w3.org/2000/svg">
<path fill-rule="evenodd" clip-rule="evenodd" d="M145.5 12.0001C175.892 4.10156 208.484 -5.20344 237.626 6.57529C267.936 18.8259 295.212 46.7758 301.292 79.2606C307.287 111.286 286.358 139.971 281 172.112C275.85 203 286.845 234.066 270.999 260.965C255.151 287.866 221.418 293.904 190.5 293.5C161.19 293.117 139.833 276.115 111.5 268.5C81.8807 260.539 41.3896 285.298 17 266.5C-6.66181 248.263 1.86393 202.234 2.05572 172.112C2.22957 144.808 -2.44842 102.309 12 79.2606C25.1755 58.2433 32.8839 54.5501 53.5 41C74.2025 27.3931 121.597 18.2122 145.5 12.0001Z" fill="#C4C4C4"/>
</svg>
