<svg width="320" height="312" viewBox="0 0 320 312" fill="none" xmlns="http://www.w3.org/2000/svg">
<path fill-rule="evenodd" clip-rule="evenodd" d="M156.818 25.4903C182.671 27.5976 208.674 2.82313 232.527 13.8986C256.268 24.9215 269.772 56.667 281.665 81.6392C293.122 105.694 318.661 120.039 319.165 147.139C319.674 174.501 311.177 228.919 297 251.5C283.297 273.325 260.842 292.001 239 303.5C218.292 314.402 179.414 312.287 156.818 307.639C134.966 303.144 115.849 304.786 94.5 298C62.8193 287.931 23.4487 282.443 6.76225 251.395C-9.86186 220.463 25.2199 178.475 24.1654 142.639C23.0508 104.76 -4.65864 96.2359 1.09689 58.8609C6.17373 25.8931 44.2025 7.44549 74.2799 0.999982C102.743 -5.09949 127.892 23.1325 156.818 25.4903Z" fill="#84D48C"/>
</svg>
