<svg width="297" height="299" viewBox="0 0 297 299" fill="none" xmlns="http://www.w3.org/2000/svg">
<path fill-rule="evenodd" clip-rule="evenodd" d="M143.919 1.64945C175.044 -3.19946 202.628 10.5173 227.5 29.4999C251.635 47.9198 274.054 79.4139 283.279 108.01C292.46 136.472 303.674 195.14 291.5 222.5C280.016 248.308 274.085 262.726 248.5 275.5C225.576 286.946 165.136 274.637 140 280C104.31 287.615 72.4574 309.606 41.1476 291.158C10.7606 273.253 29.6026 226.848 21.5 193C14.3923 163.308 -7.43523 136.174 4.50007 108.01C16.5343 79.6139 51.8664 80.4736 77.3195 62.5164C102.57 44.7018 113.199 6.43525 143.919 1.64945Z" fill="#C786FA"/>
</svg>
