<svg width="301" height="309" viewBox="0 0 301 309" fill="none" xmlns="http://www.w3.org/2000/svg">
<path fill-rule="evenodd" clip-rule="evenodd" d="M148.373 0.499734C176.755 0.426684 187.061 18.3621 211.5 32.4999C237.341 47.4481 280.734 59.9072 295.403 85.5545C309.941 110.971 289.153 141.734 284.88 170.567C280.615 199.351 303.215 249.124 284.88 272C266.405 295.051 227.401 295.935 198.5 303.5C170.269 310.889 126.555 309.576 98 303.5C68.241 297.168 37.1163 295.224 17.9999 272C-0.824846 249.13 0.230995 201.546 0.500305 172.168C0.747876 145.161 13.1806 120.226 28.159 97.5524C41.5647 77.259 61.9592 59.8724 81.0003 44.4999C102.911 26.8108 119.982 0.57281 148.373 0.499734Z" fill="#BDBF45"/>
</svg>
