<svg width="230" height="230" viewBox="0 0 230 230" fill="none" xmlns="http://www.w3.org/2000/svg">
<path fill-rule="evenodd" clip-rule="evenodd" d="M195.212 116.13C195.076 116.13 194.923 116.062 194.839 115.943C194.686 115.722 194.72 115.433 194.923 115.281C195.229 115.026 197.182 112.938 198.098 111.834C197.012 111.987 194.991 112.411 193.158 112.836C192.903 112.887 192.648 112.734 192.597 112.479C192.53 112.225 192.699 111.97 192.954 111.902C199.219 110.476 199.304 110.714 199.457 111.172C199.711 111.936 195.535 115.994 195.501 116.028C195.416 116.096 195.314 116.13 195.212 116.13Z" fill="#241726"/>
<path fill-rule="evenodd" clip-rule="evenodd" d="M187.946 116.35C187.946 116.35 188.285 108.982 192.156 110.272C197.487 112.038 200.153 125.722 190.153 128.846C180.153 131.97 176.418 123.77 176.418 123.77L181.783 122.445C181.783 122.445 177.878 119.016 178.2 116.147C178.523 113.294 181.579 115.756 181.579 115.756C181.579 115.756 177.946 109.22 180.883 108.982C183.803 108.744 187.946 116.35 187.946 116.35Z" fill="#E17B8D"/>
<path fill-rule="evenodd" clip-rule="evenodd" d="M192.445 115.417C191.426 115.417 190.407 113.956 190.119 113.481C189.983 113.26 190.051 112.972 190.272 112.836C190.492 112.7 190.781 112.768 190.917 112.989C191.324 113.617 191.952 114.313 192.309 114.449C192.309 114.058 192.037 113.091 191.647 112.242C191.545 112.004 191.647 111.715 191.901 111.614C192.122 111.512 192.411 111.614 192.513 111.851C192.92 112.751 193.514 114.364 193.124 115.06C192.988 115.264 192.784 115.4 192.53 115.417C192.496 115.417 192.479 115.417 192.445 115.417Z" fill="#241726"/>
<path fill-rule="evenodd" clip-rule="evenodd" d="M183.48 122.394C183.378 122.394 183.277 122.36 183.192 122.293C182.903 122.055 180.339 119.95 180.509 118.184C180.56 117.59 180.883 117.369 181.086 117.284C181.647 117.046 182.496 117.437 183.209 117.895C182.852 116.096 183.005 115.077 183.667 114.856C183.939 114.754 184.788 114.466 187.98 119.287C188.132 119.508 188.064 119.797 187.844 119.95C187.64 120.085 187.334 120.034 187.199 119.814C186.044 118.065 184.516 116.13 183.956 115.79C183.871 116.147 184.058 117.573 184.414 118.931C184.465 119.135 184.38 119.338 184.21 119.44C184.041 119.559 183.803 119.542 183.65 119.406C182.801 118.693 181.749 118.099 181.46 118.167C181.46 118.167 181.443 118.201 181.443 118.269C181.358 119.22 182.835 120.798 183.786 121.562C183.99 121.715 184.024 122.021 183.854 122.225C183.752 122.343 183.616 122.394 183.48 122.394Z" fill="#241726"/>
<path fill-rule="evenodd" clip-rule="evenodd" d="M187.81 127.165C186.452 127.165 185.467 126.928 185.382 126.911C185.127 126.843 184.991 126.588 185.042 126.334C185.11 126.079 185.365 125.926 185.62 125.994C189.117 126.843 194.516 125.739 195.212 119.339C195.246 119.084 195.501 118.897 195.738 118.931C196.01 118.965 196.18 119.203 196.146 119.458C195.738 122.395 194.567 124.551 192.649 125.824C191.053 126.911 189.236 127.165 187.81 127.165Z" fill="#241726"/>
<path fill-rule="evenodd" clip-rule="evenodd" d="M34.7538 13.6515C34.6689 13.6515 34.5671 13.6175 34.4822 13.5666C34.4312 13.5326 30.2717 9.47491 30.5263 8.71091C30.6791 8.23553 30.764 7.99784 37.0289 9.44096C37.2835 9.49189 37.4363 9.74656 37.3854 10.0012C37.3345 10.2559 37.0798 10.4257 36.8251 10.3578C34.9915 9.95029 32.9711 9.52584 31.8846 9.35607C32.8014 10.4596 34.7538 12.5479 35.0594 12.8195C35.2632 12.9723 35.2971 13.2779 35.1273 13.4817C35.0425 13.6005 34.9066 13.6515 34.7538 13.6515Z" fill="#241726"/>
<path fill-rule="evenodd" clip-rule="evenodd" d="M42.0373 13.889C42.0373 13.889 41.6977 6.52059 37.8267 7.79393C32.4957 9.57661 29.8301 23.2438 39.8301 26.3677C49.8301 29.4916 53.5653 21.2913 53.5653 21.2913L48.2003 19.984C48.2003 19.984 52.1052 16.5545 51.7826 13.6852C51.46 10.816 48.404 13.2948 48.404 13.2948C48.404 13.2948 52.0373 6.75828 49.1001 6.52059C46.1799 6.2829 42.0373 13.889 42.0373 13.889Z" fill="#E17B8D"/>
<path fill-rule="evenodd" clip-rule="evenodd" d="M37.5382 12.9552C37.5042 12.9552 37.4872 12.9552 37.4533 12.9552C37.1986 12.9382 36.9949 12.8024 36.8591 12.5817C36.4686 11.9025 37.0628 10.2896 37.4703 9.38982C37.5721 9.15213 37.8608 9.05026 38.0985 9.15213C38.3361 9.25399 38.438 9.52564 38.3361 9.78031C37.9456 10.6292 37.674 11.5969 37.674 11.9874C38.0305 11.8516 38.6587 11.1555 39.0662 10.5104C39.202 10.2896 39.5076 10.2217 39.7114 10.3745C39.9321 10.5104 40 10.799 39.8642 11.0197C39.5755 11.4781 38.5569 12.9552 37.5382 12.9552Z" fill="#241726"/>
<path fill-rule="evenodd" clip-rule="evenodd" d="M46.5025 19.9333C46.3667 19.9333 46.2309 19.8653 46.129 19.7465C45.9592 19.5428 45.9932 19.2541 46.1969 19.0844C47.1477 18.3204 48.6248 16.7584 48.5399 15.7907C48.5399 15.7058 48.5229 15.6718 48.5229 15.6718C48.2513 15.6039 47.1986 16.2151 46.3328 16.9452C46.18 17.081 45.9423 17.098 45.7725 16.9791C45.6027 16.8772 45.5178 16.6565 45.5688 16.4528C45.9083 15.1795 46.0781 13.8382 45.9932 13.3628C45.382 13.7533 43.9219 15.6379 42.7844 17.3356C42.6316 17.5564 42.3429 17.6243 42.1222 17.4715C41.9185 17.3356 41.8506 17.03 42.0034 16.8263C45.1952 12.0046 46.0441 12.2932 46.3158 12.3781C46.9779 12.5988 47.1307 13.6345 46.7742 15.4341C47.4873 14.9757 48.3192 14.5852 48.8964 14.8229C49.1002 14.9078 49.4227 15.1285 49.4737 15.7058C49.6435 17.4715 47.0798 19.5937 46.7912 19.8314C46.7063 19.8993 46.6044 19.9333 46.5025 19.9333Z" fill="#241726"/>
<path fill-rule="evenodd" clip-rule="evenodd" d="M42.1732 24.7039C40.747 24.7039 38.9304 24.4323 37.3345 23.3627C35.416 22.0723 34.2445 19.9331 33.837 16.996C33.8031 16.7413 33.9728 16.5036 34.2445 16.4696C34.4822 16.4357 34.7369 16.6055 34.7708 16.8601C35.1273 19.5257 36.18 21.4442 37.8608 22.5817C40.6452 24.4492 44.3294 23.5324 44.3633 23.5155C44.618 23.4475 44.8727 23.6003 44.9406 23.855C44.9915 24.1097 44.8557 24.3643 44.601 24.4323C44.5161 24.4492 43.5314 24.7039 42.1732 24.7039Z" fill="#241726"/>
<path fill-rule="evenodd" clip-rule="evenodd" d="M73.9558 37.3864C73.7181 37.3864 73.4465 37.1317 73.4295 36.8771C73.3955 36.4356 73.9219 33.7531 74.2784 32.0214C71.1035 29.9161 70.8319 29.3219 70.8149 28.8975C70.8149 28.6937 70.8998 28.49 71.0865 28.3712C71.5959 27.9977 73.5993 27.6751 75.314 27.4544C76.4516 22.7685 76.859 22.4289 77.657 23.2439C77.691 23.3118 78.5399 24.9247 79.5755 27.0469C80.9677 26.945 84.584 26.8092 84.7198 27.5732C84.8387 27.7769 84.8387 28.0146 84.7198 28.2353C84.3803 28.8126 82.6994 30.3915 81.5789 31.4102C83.2937 35.4509 83.2088 36.4696 82.5127 36.7922C82.3769 36.8601 82.2241 36.8431 82.0882 36.7752C82.0713 36.7582 80.2546 35.7226 78.1154 34.4492C74.6349 37.3864 74.1765 37.3864 73.9558 37.3864ZM75.1273 32.5817C74.7877 34.2115 74.567 35.417 74.4652 36.1131C74.9745 35.7735 75.8743 35.0944 77.2665 33.9229C76.4855 33.4475 75.7725 33.0061 75.1273 32.5817ZM78.8794 33.8041C80.2037 34.602 81.3921 35.2811 82.0373 35.6547C81.9694 35.1793 81.7147 34.1946 80.8319 32.0893C80.2037 32.6666 79.5416 33.2438 78.8794 33.8041ZM75.331 31.597C76.129 32.1063 77.0288 32.6666 78.0305 33.2778C78.8285 32.5986 79.6604 31.8686 80.4414 31.1725C80.0339 30.2218 79.5416 29.1691 78.9983 28.0316C78.0475 28.0995 77.0458 28.2014 76.0781 28.3033C75.8234 29.3729 75.5687 30.5104 75.331 31.597ZM71.9015 29.0333C72.1392 29.3049 72.7843 29.8822 74.4991 31.0367C74.6859 30.1708 74.8726 29.288 75.0764 28.4391C73.3786 28.6598 72.3599 28.8805 71.9015 29.0333ZM80.0169 27.9637C80.4414 28.8805 80.8319 29.7294 81.1884 30.4934C82.5466 29.254 83.3276 28.4391 83.6842 28.0316C83.022 27.8788 81.1035 27.8958 80.0169 27.9637ZM77.1646 24.3474C76.9779 24.8228 76.7062 25.7226 76.3157 27.3355C77.0628 27.2506 77.8098 27.1827 78.5568 27.1148C78.0135 26.0282 77.5042 25.0265 77.1646 24.3474Z" fill="#241726"/>
<path fill-rule="evenodd" clip-rule="evenodd" d="M171.647 213.447H171.613C171.46 213.447 171.324 213.362 171.239 213.243C171.222 213.226 170.085 211.477 168.761 209.372C167.3 209.695 165.076 210.187 164.193 210.187C164.041 210.187 163.684 210.187 163.514 209.898C163.413 209.78 163.413 209.542 163.463 209.406C163.65 208.982 165.331 206.842 166.435 205.467C164.567 202.14 164.584 201.494 164.771 201.104C164.856 200.917 165.042 200.781 165.246 200.747C165.857 200.662 168.031 201.359 169.44 201.851C172.394 198.455 173.039 197.963 173.429 199.168C173.429 199.253 173.463 201.07 173.413 203.43C177.691 205.297 177.742 205.926 177.759 206.231C177.793 206.469 177.674 206.69 177.453 206.825C176.893 207.182 174.686 207.827 173.226 208.235C172.92 212.564 172.394 213.447 171.647 213.447ZM169.728 209.134C170.56 210.442 171.29 211.596 171.698 212.207C171.851 211.766 172.088 210.764 172.258 208.489C171.426 208.71 170.56 208.931 169.728 209.134ZM166.944 206.35C165.891 207.657 165.161 208.625 164.737 209.202C165.484 209.1 166.706 208.863 168.234 208.523C167.759 207.742 167.334 207.012 166.944 206.35ZM167.572 205.552C168.047 206.367 168.591 207.284 169.202 208.286C170.238 208.048 171.29 207.776 172.326 207.505C172.377 206.486 172.428 205.314 172.462 204.058C171.579 203.685 170.645 203.311 169.728 202.971C169.015 203.803 168.268 204.703 167.572 205.552ZM173.396 204.466C173.362 205.467 173.328 206.384 173.277 207.233C175.059 206.741 176.129 206.384 176.638 206.18C176.248 205.875 175.297 205.297 173.396 204.466ZM165.671 201.715C165.772 202.072 166.078 202.887 167.08 204.669C167.64 203.99 168.217 203.294 168.778 202.632C167.182 202.072 166.163 201.8 165.671 201.715ZM170.373 202.207C171.087 202.479 171.783 202.751 172.479 203.039C172.496 201.732 172.496 200.612 172.496 199.932C172.122 200.289 171.477 200.951 170.373 202.207Z" fill="#241726"/>
<path fill-rule="evenodd" clip-rule="evenodd" d="M44.0237 149.576C43.9728 149.576 43.9219 149.559 43.8879 149.559C42.1901 149.27 41.6129 143.905 41.4431 141.613C41.4261 141.359 41.6298 141.121 41.8845 141.104C42.1392 141.087 42.3769 141.291 42.3938 141.546C42.6485 145.145 43.4465 148.523 44.0407 148.625C44.4821 148.286 44.7198 144.754 44.4821 140.934C44.4652 140.68 44.6689 140.459 44.9236 140.442C45.1782 140.425 45.3989 140.612 45.4159 140.883C45.5348 142.598 45.7894 148.286 44.618 149.338C44.4482 149.491 44.2444 149.576 44.0237 149.576Z" fill="#241726"/>
<path fill-rule="evenodd" clip-rule="evenodd" d="M60.5772 140.697C58.9134 140.697 54.8557 137.165 53.6163 136.062C53.4295 135.875 53.4125 135.586 53.5823 135.383C53.7521 135.196 54.0577 135.179 54.2445 135.349C57.0968 137.912 59.983 139.933 60.5942 139.746C60.8319 139.271 58.6927 136.554 56.0271 134.092C55.8404 133.923 55.8234 133.617 56.0102 133.43C56.1799 133.243 56.4856 133.226 56.6723 133.396C58.3531 134.958 62.1901 138.744 61.3752 140.255C61.2394 140.493 61.0187 140.646 60.747 140.68C60.6961 140.697 60.6451 140.697 60.5772 140.697Z" fill="#241726"/>
<path fill-rule="evenodd" clip-rule="evenodd" d="M39.7962 140.935C39.7452 140.935 39.6773 140.918 39.6264 140.901C39.5075 140.85 39.4057 140.748 39.3547 140.629C39.168 140.154 34.7367 128.931 37.3004 123.889C37.8946 122.7 38.8454 121.936 40.1018 121.614C46.9948 119.559 54.2614 132.259 54.4142 132.802C54.533 133.023 54.4311 133.328 54.2104 133.43L40.0169 140.884C39.949 140.918 39.8641 140.935 39.7962 140.935ZM41.6128 122.378C41.1714 122.378 40.7469 122.429 40.3395 122.531C39.3378 122.785 38.6247 123.379 38.1493 124.313C36.061 128.422 39.2189 137.573 40.0508 139.797L53.3446 132.819C52.207 130.833 47.0627 122.378 41.6128 122.378Z" fill="#241726"/>
<path fill-rule="evenodd" clip-rule="evenodd" d="M37.5552 135.807L51.8336 128.523L61.6978 128.506C61.6978 128.506 52.0883 149.151 31.7996 142.734L37.5552 135.807Z" fill="#E17B8D"/>
<path fill-rule="evenodd" clip-rule="evenodd" d="M45.4329 126.418C45.2631 126.418 45.0934 126.316 45.0085 126.147C43.871 123.77 41.1036 124.72 40.9847 124.771C40.73 124.856 40.4584 124.72 40.3735 124.483C40.2886 124.228 40.4244 123.956 40.6621 123.872C41.9355 123.43 44.6519 123.243 45.8744 125.739C45.9762 125.977 45.8744 126.248 45.6536 126.367C45.5857 126.401 45.5178 126.418 45.4329 126.418Z" fill="#241726"/>
<path fill-rule="evenodd" clip-rule="evenodd" d="M36.8081 132.615L50.1867 125.96L51.8335 128.524L37.5551 135.807L36.8081 132.615Z" fill="#E3B800"/>
<path fill-rule="evenodd" clip-rule="evenodd" d="M39.7962 141.596C38.9133 141.596 38.0984 141.087 37.7249 140.306C37.4532 139.746 37.4193 139.118 37.623 138.54C37.8267 137.963 38.2342 137.505 38.7945 137.233C39.898 136.69 41.3242 137.199 41.8675 138.303C42.4108 139.44 41.9354 140.815 40.7979 141.376C40.4753 141.528 40.1357 141.596 39.7962 141.596ZM39.7962 137.946C39.5924 137.946 39.3887 137.997 39.2019 138.082C38.8794 138.235 38.6247 138.506 38.5058 138.846C38.387 139.203 38.421 139.559 38.5738 139.882C38.8794 140.544 39.7283 140.832 40.3734 140.527C41.0525 140.187 41.3412 139.389 41.0186 138.71C40.7809 138.252 40.3055 137.946 39.7962 137.946Z" fill="#241726"/>
<path fill-rule="evenodd" clip-rule="evenodd" d="M47.5891 139.44C46.7063 139.44 45.8913 138.931 45.5178 138.133C45.2462 137.573 45.2122 136.962 45.416 136.384C45.6197 135.79 46.0272 135.332 46.5874 135.06C47.691 134.534 49.1171 135.026 49.6604 136.13C50.2037 137.284 49.7284 138.66 48.5908 139.203C48.2683 139.356 47.9287 139.44 47.5891 139.44ZM47.5891 135.773C47.3854 135.773 47.1817 135.824 46.9949 135.909C46.6723 136.079 46.4177 136.351 46.2988 136.69C46.18 137.03 46.2139 137.403 46.3667 137.726C46.6723 138.371 47.5212 138.676 48.1664 138.354C48.8455 138.031 49.1341 137.216 48.7946 136.554C48.5739 136.079 48.0985 135.773 47.5891 135.773Z" fill="#241726"/>
<path fill-rule="evenodd" clip-rule="evenodd" d="M54.0747 135.196C53.2088 135.196 52.3938 134.687 52.0034 133.889C51.4601 132.751 51.9354 131.376 53.0899 130.816C54.1935 130.289 55.6197 130.782 56.146 131.885C56.4176 132.445 56.4516 133.074 56.2478 133.651C56.0441 134.228 55.6366 134.687 55.0764 134.958C54.7708 135.111 54.4312 135.196 54.0747 135.196ZM54.0747 131.529C53.8709 131.529 53.6842 131.58 53.4974 131.664C52.8183 131.987 52.5297 132.802 52.8692 133.481C53.1748 134.126 54.0068 134.432 54.6689 134.109C54.9915 133.956 55.2461 133.685 55.365 133.328C55.4838 132.989 55.4499 132.632 55.2971 132.293C55.0764 131.834 54.601 131.529 54.0747 131.529Z" fill="#241726"/>
<path fill-rule="evenodd" clip-rule="evenodd" d="M50.2886 174.466C49.9491 174.466 49.6095 174.466 48.6927 170.798C45.5857 170.204 45.3311 169.848 45.2292 169.712C45.1443 169.593 45.0934 169.372 45.1443 169.236C45.1952 169.033 45.3311 168.574 48.8794 167.148C50.2547 163.668 50.6112 163.515 51.3073 164.058C51.545 164.364 51.7487 165.145 52.0543 166.418C52.1562 166.826 52.275 167.301 52.3429 167.522C52.5297 167.606 52.9372 167.742 53.2767 167.861C55.1103 168.523 55.5687 168.744 55.6536 169.185C55.6876 169.338 55.6027 169.576 55.4839 169.695C55.1103 170.034 53.3446 170.679 52.4278 171.002C50.9168 174.432 50.6112 174.449 50.3226 174.466C50.3056 174.466 50.3056 174.466 50.2886 174.466ZM46.4346 169.304C47.0458 169.491 48.1833 169.746 49.1681 169.932C49.3548 169.966 49.4906 170.102 49.5416 170.272C49.7963 171.291 50.1188 172.462 50.3565 173.124C50.6961 172.513 51.2224 171.41 51.6468 170.442C51.6978 170.323 51.7996 170.238 51.9185 170.187C52.7674 169.899 53.7182 169.525 54.3124 169.27C53.8879 169.101 53.3277 168.897 52.9541 168.761C51.9185 168.387 51.7317 168.303 51.5959 168.116C51.4771 167.963 51.4092 167.708 51.1375 166.656C51.0526 166.248 50.8998 165.654 50.764 165.196C50.4584 165.79 50.017 166.792 49.6774 167.674C49.6435 167.793 49.5416 167.895 49.4227 167.946C48.3192 168.387 47.0798 168.948 46.4346 169.304Z" fill="#241726"/>
<path fill-rule="evenodd" clip-rule="evenodd" d="M180.56 63.6853C180.221 63.6853 179.881 63.6853 178.964 60.0181C175.857 59.4238 175.586 59.0503 175.501 58.9315C175.399 58.8126 175.365 58.5919 175.416 58.4561C175.467 58.2524 175.603 57.794 179.151 56.3678C180.526 52.8874 180.883 52.7346 181.579 53.2779C181.817 53.5835 182.02 54.3644 182.326 55.6378C182.428 56.0452 182.547 56.5206 182.615 56.7413C182.801 56.8262 183.209 56.962 183.548 57.0809C185.382 57.743 185.84 57.9637 185.925 58.4052C185.959 58.558 185.874 58.7957 185.755 58.9145C185.382 59.2371 183.616 59.8992 182.699 60.2218C181.188 63.6513 180.883 63.6683 180.594 63.6853C180.577 63.6853 180.577 63.6853 180.56 63.6853ZM176.689 58.524C177.317 58.7108 178.455 58.9654 179.44 59.1522C179.609 59.1861 179.762 59.322 179.813 59.4917C180.068 60.5104 180.39 61.6819 180.628 62.344C180.968 61.7328 181.494 60.6293 181.918 59.6615C181.969 59.5427 182.071 59.4578 182.19 59.4069C183.039 59.1182 183.99 58.7447 184.584 58.4901C184.16 58.3203 183.599 58.1165 183.226 57.9807C182.19 57.6072 181.986 57.5223 181.868 57.3525C181.749 57.1828 181.664 56.9281 181.409 55.8755C181.307 55.468 181.171 54.8738 181.036 54.4154C180.73 55.0096 180.289 56.0113 179.949 56.8941C179.898 57.013 179.813 57.1148 179.694 57.1658C178.591 57.6072 177.351 58.1675 176.689 58.524Z" fill="#241726"/>
<path fill-rule="evenodd" clip-rule="evenodd" d="M58.1664 113.991C57.9117 113.991 57.708 113.77 57.708 113.515L57.7419 105.57C57.7589 105.298 57.9626 105.094 58.2173 105.094C58.4889 105.094 58.6927 105.315 58.6927 105.57L58.6417 113.515C58.6417 113.77 58.438 113.991 58.1664 113.991Z" fill="#241726"/>
<path fill-rule="evenodd" clip-rule="evenodd" d="M54.9745 112.259C54.8217 112.259 54.6689 112.174 54.584 112.055C54.4312 111.834 54.4821 111.546 54.7028 111.393L61.2563 106.809C61.477 106.673 61.7657 106.724 61.9185 106.928C62.0713 107.148 62.0203 107.437 61.7996 107.59L55.2461 112.174C55.1613 112.225 55.0594 112.259 54.9745 112.259Z" fill="#241726"/>
<path fill-rule="evenodd" clip-rule="evenodd" d="M60.73 112.581C60.6111 112.581 60.4753 112.531 60.3904 112.446L55.4328 107.199C55.2461 107.013 55.2631 106.707 55.4498 106.52C55.6366 106.351 55.9422 106.351 56.112 106.554L61.0695 111.783C61.2563 111.97 61.2393 112.276 61.0525 112.463C60.9677 112.547 60.8488 112.581 60.73 112.581Z" fill="#241726"/>
<path fill-rule="evenodd" clip-rule="evenodd" d="M54.0747 109.933C53.82 109.933 53.5993 109.729 53.5993 109.457C53.5993 109.203 53.8031 108.982 54.0747 108.982L61.7148 108.914C61.9694 108.914 62.1902 109.118 62.1902 109.372C62.1902 109.644 61.9864 109.848 61.7148 109.865L54.0747 109.933Z" fill="#241726"/>
<path fill-rule="evenodd" clip-rule="evenodd" d="M152.581 152.887H152.564C152.309 152.87 152.105 152.666 152.105 152.411L152.139 144.449C152.156 144.194 152.36 143.99 152.615 143.99C152.886 143.99 153.09 144.194 153.09 144.466L153.039 152.411C153.039 152.666 152.835 152.887 152.581 152.887Z" fill="#241726"/>
<path fill-rule="evenodd" clip-rule="evenodd" d="M149.372 151.138C149.219 151.138 149.066 151.07 148.981 150.934C148.829 150.73 148.879 150.442 149.1 150.289L155.654 145.705C155.874 145.569 156.163 145.603 156.316 145.824C156.469 146.045 156.418 146.333 156.197 146.486L149.643 151.053C149.559 151.121 149.457 151.138 149.372 151.138Z" fill="#241726"/>
<path fill-rule="evenodd" clip-rule="evenodd" d="M155.127 151.477C155.008 151.477 154.89 151.426 154.788 151.325L149.83 146.095C149.643 145.892 149.66 145.603 149.847 145.416C150.034 145.247 150.34 145.247 150.509 145.433L155.467 150.679C155.654 150.866 155.637 151.172 155.45 151.342C155.365 151.443 155.246 151.477 155.127 151.477Z" fill="#241726"/>
<path fill-rule="evenodd" clip-rule="evenodd" d="M148.472 148.829C148.217 148.829 147.997 148.608 147.997 148.353C147.997 148.099 148.2 147.878 148.472 147.878L156.112 147.81C156.367 147.81 156.587 148.014 156.587 148.268C156.587 148.54 156.384 148.744 156.112 148.744L148.472 148.829Z" fill="#241726"/>
<path fill-rule="evenodd" clip-rule="evenodd" d="M167.759 26.6563C167.759 26.6563 166.825 19.5765 173.633 21.8685C174.754 22.242 175.637 22.7344 176.316 23.2947C177.844 21.4611 180.424 20.3066 183.107 22.0213C185.671 23.6682 186.689 26.0621 186.638 28.1503C187.827 28.0485 189.134 28.4559 190.356 29.7463C195.008 34.7208 184.839 43.7699 180.696 40.4423C180.238 40.0858 179.881 39.6953 179.592 39.3048C178.149 40.5951 175.569 41.444 171.715 41.3761C169.015 41.3251 167.759 39.7802 167.368 37.9975C166.197 37.9296 164.822 37.4202 163.379 36.3506C158.183 32.4627 164.109 24.4152 167.759 26.6563Z" fill="white"/>
<path fill-rule="evenodd" clip-rule="evenodd" d="M172.139 41.8516H171.715C169.287 41.8007 167.589 40.5613 166.995 38.4391C165.722 38.2693 164.38 37.6921 163.09 36.7243C161.053 35.1963 160.357 32.8873 161.205 30.3746C162.207 27.5223 164.72 25.2813 167.25 25.9094C167.233 24.9247 167.385 23.2439 168.387 22.1064C169.491 20.8331 171.341 20.5954 173.786 21.4103C174.737 21.7329 175.552 22.1404 176.248 22.6497C178.217 20.5614 181.002 20.0691 183.362 21.631C185.62 23.0741 186.995 25.2982 187.097 27.6582C188.421 27.6921 189.626 28.2863 190.696 29.4239C192.156 30.9688 192.411 33.0571 191.46 35.2812C189.983 38.6598 185.976 41.6309 182.886 41.6309C181.918 41.6309 181.07 41.3593 180.39 40.816C180.068 40.5613 179.779 40.2727 179.508 39.9671C177.895 41.2065 175.348 41.8516 172.139 41.8516ZM167.997 38.473C168.421 39.6615 169.423 40.8669 171.732 40.9009H172.139C175.84 40.9009 177.861 40.035 178.964 39.2201C177.912 37.5393 177.997 35.7057 178.574 34.5681C179.287 33.2269 180.594 32.9722 181.239 34.8737C181.732 36.5206 181.358 38.1165 180.221 39.3389C180.441 39.6106 180.696 39.8482 180.985 40.069C181.494 40.4764 182.139 40.6971 182.886 40.6971C185.603 40.6971 189.27 37.9297 190.594 34.9077C191.154 33.5834 191.511 31.6819 190.017 30.069C189.117 29.1352 188.132 28.6259 187.08 28.6089C186.859 30.867 185.433 32.5648 183.531 32.8194C182.275 32.9722 181.851 32.3271 181.834 31.7159C181.783 30.3916 183.701 28.1505 186.163 27.7261C186.061 25.6717 184.856 23.7023 182.852 22.429C180.9 21.1556 178.642 21.5292 176.978 23.2439C178.591 24.7719 178.896 26.6565 178.438 27.9128C178.132 28.7957 177.453 29.339 176.689 29.339C176.231 29.339 175.756 29.1522 175.314 28.7787C173.888 27.5563 174.346 25.1624 175.654 23.3797C175.042 22.9553 174.312 22.5988 173.48 22.3101C171.426 21.614 169.949 21.7499 169.1 22.7346C167.912 24.0758 168.217 26.5546 168.217 26.5886C168.251 26.7753 168.166 26.9451 168.014 27.047C167.861 27.1488 167.657 27.1488 167.504 27.047C165.331 25.9264 163.022 28.1675 162.088 30.6802C161.766 31.6649 161.256 34.1776 163.65 35.9603C164.703 36.7583 165.789 37.2506 166.808 37.4544C166.587 35.6208 167.148 33.8381 167.895 32.9213C168.761 31.9366 169.66 31.7668 170.645 32.9213C171.562 34.0928 171.766 35.417 171.222 36.5376C170.679 37.6581 169.457 38.3882 167.997 38.473ZM179.898 34.4663C179.813 34.4663 179.609 34.6191 179.423 34.9926C178.998 35.8245 178.93 37.2337 179.66 38.5579C180.475 37.6072 180.713 36.4187 180.34 35.1624C180.187 34.653 179.983 34.4663 179.898 34.4663ZM169.287 33.0741C169.083 33.0741 168.845 33.2269 168.625 33.5155C167.997 34.2965 167.538 35.9603 167.759 37.5393C168.964 37.5223 169.949 36.979 170.374 36.1301C170.764 35.3321 170.594 34.3814 169.898 33.4985C169.762 33.3118 169.525 33.0741 169.287 33.0741ZM186.112 28.6938C184.143 29.1352 182.75 30.9519 182.784 31.6819C182.716 31.8856 183.124 31.9366 183.396 31.8856C184.822 31.6989 185.874 30.4255 186.112 28.6938ZM176.367 23.974C175.263 25.5359 175.042 27.3016 175.942 28.0486C176.604 28.6259 177.267 28.4222 177.555 27.6072C177.895 26.6565 177.64 25.2133 176.367 23.974Z" fill="#241726"/>
<path fill-rule="evenodd" clip-rule="evenodd" d="M71.2393 125.501H71.2224C69.4227 125.501 67.9626 124.024 67.9626 122.225C67.9796 120.425 69.4397 118.965 71.2393 118.965C73.005 118.948 74.5331 120.493 74.4991 122.242C74.4821 124.041 73.022 125.501 71.2393 125.501ZM71.2393 119.916C69.949 119.916 68.9134 120.951 68.9134 122.225C68.9134 123.498 69.949 124.551 71.2224 124.551L71.2393 125.026V124.551C72.5127 124.551 73.5483 123.515 73.5483 122.242C73.5483 121.631 73.3106 121.036 72.8862 120.595C72.4448 120.153 71.8675 119.916 71.2393 119.916Z" fill="#241726"/>
<path fill-rule="evenodd" clip-rule="evenodd" d="M180.238 194.737H180.221C178.421 194.737 176.961 193.26 176.961 191.46C176.978 189.66 178.438 188.2 180.238 188.2C182.003 188.183 183.531 189.728 183.497 191.477C183.497 193.277 182.02 194.737 180.238 194.737ZM180.238 189.151C178.964 189.151 177.912 190.187 177.912 191.46C177.912 192.733 178.947 193.786 180.221 193.786L180.238 194.261V193.786C181.511 193.786 182.547 192.75 182.547 191.477C182.564 190.866 182.326 190.272 181.884 189.83C181.443 189.389 180.866 189.151 180.238 189.151Z" fill="#241726"/>
<path fill-rule="evenodd" clip-rule="evenodd" d="M191.681 74.9243H191.664C189.864 74.9243 188.404 73.4472 188.404 71.6476C188.421 69.8479 189.881 68.3878 191.681 68.3878C193.446 68.3709 194.974 69.9158 194.94 71.6646C194.924 73.4642 193.463 74.9243 191.681 74.9243ZM191.681 69.3386C190.407 69.3386 189.355 70.3742 189.355 71.6476C189.355 72.9209 190.39 73.9735 191.664 73.9735L191.681 74.4489V73.9735C192.954 73.9735 193.99 72.9379 193.99 71.6646C193.99 71.0534 193.752 70.4591 193.328 70.0177C192.886 69.5763 192.309 69.3386 191.681 69.3386Z" fill="#241726"/>
<path fill-rule="evenodd" clip-rule="evenodd" d="M156.316 20.3407H156.299C154.499 20.3238 153.039 18.8637 153.039 17.064C153.056 15.2644 154.516 13.8043 156.316 13.8043C158.081 13.7703 159.609 15.3153 159.576 17.081C159.559 18.8806 158.098 20.3407 156.316 20.3407ZM156.316 14.755C155.025 14.755 153.99 15.7907 153.99 17.064C153.99 18.3373 155.025 19.39 156.299 19.39L156.316 19.8653V19.39C157.589 19.39 158.625 18.3543 158.625 17.081C158.625 16.4698 158.387 15.8756 157.963 15.4341C157.521 14.9927 156.944 14.755 156.316 14.755Z" fill="#241726"/>
<path fill-rule="evenodd" clip-rule="evenodd" d="M102.598 54.5513C102.598 54.5513 74.2615 64.6191 73.6333 91.6818C73.4635 99.169 80.5603 110.578 101.341 95.4679C112.513 87.3355 102.598 54.5513 102.598 54.5513Z" fill="#52AFA6"/>
<path fill-rule="evenodd" clip-rule="evenodd" d="M126.842 35.332C126.842 35.332 130.934 47.3014 131.562 48.2522C132.19 49.1859 140.373 47.9296 141.952 49.8141C143.514 51.7156 136.91 78.1501 127.47 77.522C118.014 76.8938 109.525 54.8565 111.087 54.2284C112.665 53.6002 120.849 52.0212 120.849 52.0212L117.08 42.8872L126.842 35.332Z" fill="#E38B72"/>
<path fill-rule="evenodd" clip-rule="evenodd" d="M114.55 3.78741C114.55 3.78741 122.445 -1.66248 132.971 3.78741C147.131 11.1049 144.075 26.2151 141.477 31.1727C138.879 36.1302 130.611 42.4969 125.416 39.6616C120.221 36.8433 98.9812 8.98262 114.55 3.78741Z" fill="#D55A41"/>
<path fill-rule="evenodd" clip-rule="evenodd" d="M113.277 209.287C113.277 209.287 97.8777 205.195 95.1952 207.793C87.7759 214.924 68.9983 217.25 73.5654 225.773C76.2139 230.696 101.053 230.662 107.148 228.914C113.243 227.165 113.277 209.287 113.277 209.287Z" fill="#B1739A"/>
<path fill-rule="evenodd" clip-rule="evenodd" d="M102.547 226.452C94.5669 226.452 78.7435 226.078 75.9252 223.243C75.7384 223.056 75.7384 222.751 75.9252 222.564C76.1119 222.394 76.4175 222.394 76.6043 222.581C79.4566 225.45 99.5754 225.637 107.097 225.467C107.385 225.467 107.572 225.671 107.572 225.925C107.572 226.18 107.368 226.401 107.114 226.418C106.842 226.418 105.093 226.452 102.547 226.452Z" fill="black"/>
<path fill-rule="evenodd" clip-rule="evenodd" d="M80.4753 218.133C80.1867 218.133 80.0169 218.133 79.966 218.133C79.3378 218.099 79.3887 217.165 79.9999 217.182C80.1018 217.199 91.3582 217.555 95.8234 210.662C95.9592 210.442 96.2648 210.391 96.4685 210.527C96.6893 210.679 96.7572 210.968 96.6213 211.189C92.3599 217.725 82.8353 218.133 80.4753 218.133Z" fill="#241726"/>
<path fill-rule="evenodd" clip-rule="evenodd" d="M94.8387 218.099C94.601 218.099 94.3973 217.912 94.3803 217.674C94.0747 213.803 90.9847 211.613 90.9508 211.596C90.7301 211.443 90.6791 211.155 90.8319 210.951C90.9677 210.73 91.2734 210.679 91.4771 210.815C91.6299 210.917 94.9915 213.277 95.3141 217.589C95.3311 217.861 95.1443 218.082 94.8897 218.099C94.8727 218.099 94.8557 218.099 94.8387 218.099Z" fill="#241726"/>
<path fill-rule="evenodd" clip-rule="evenodd" d="M89.9151 219.932C89.7283 219.932 89.5416 219.813 89.4737 219.627C88.9643 218.251 87.4193 214.465 86.2309 213.481C86.0272 213.328 85.9932 213.022 86.163 212.818C86.3328 212.615 86.6214 212.598 86.8251 212.751C88.455 214.092 90.2886 219.083 90.3565 219.304C90.4414 219.542 90.3226 219.813 90.0849 219.898C90.017 219.932 89.966 219.932 89.9151 219.932Z" fill="#241726"/>
<path fill-rule="evenodd" clip-rule="evenodd" d="M136.808 184.296C136.808 184.296 128.132 197.657 129.745 201.002C134.227 210.289 130.577 228.846 140.102 227.165C145.603 226.18 153.311 202.564 153.548 196.231C153.786 189.882 136.808 184.296 136.808 184.296Z" fill="#B1739A"/>
<path fill-rule="evenodd" clip-rule="evenodd" d="M138.217 224.177C138.047 224.177 137.878 224.092 137.793 223.922C137.674 223.684 137.776 223.396 137.997 223.294C141.63 221.477 148.081 202.411 150.255 195.213C150.323 194.958 150.594 194.822 150.832 194.89C151.087 194.975 151.239 195.23 151.154 195.484C150.832 196.554 143.158 221.766 138.421 224.126C138.353 224.16 138.285 224.177 138.217 224.177Z" fill="black"/>
<path fill-rule="evenodd" clip-rule="evenodd" d="M134.38 219.015C134.329 219.015 134.278 218.998 134.227 218.981C133.973 218.897 133.854 218.625 133.939 218.37C133.99 218.268 137.827 207.708 132.682 201.307C132.513 201.104 132.547 200.798 132.75 200.645C132.954 200.476 133.26 200.51 133.413 200.713C138.896 207.521 134.991 218.251 134.822 218.71C134.754 218.897 134.584 219.015 134.38 219.015Z" fill="#241726"/>
<path fill-rule="evenodd" clip-rule="evenodd" d="M131.766 206.333C131.613 206.333 131.477 206.265 131.392 206.146C131.222 205.926 131.273 205.637 131.477 205.484C131.613 205.365 134.907 202.92 139.1 203.939C139.355 204.007 139.508 204.262 139.457 204.516C139.389 204.771 139.134 204.924 138.879 204.856C135.11 203.939 132.071 206.214 132.037 206.231C131.952 206.299 131.868 206.333 131.766 206.333Z" fill="#241726"/>
<path fill-rule="evenodd" clip-rule="evenodd" d="M132.122 211.375C131.952 211.375 131.8 211.307 131.715 211.154C131.579 210.934 131.647 210.645 131.868 210.509C133.633 209.372 138.964 209.202 139.185 209.185C139.44 209.168 139.66 209.389 139.677 209.643C139.677 209.898 139.474 210.119 139.219 210.136C137.742 210.187 133.667 210.475 132.377 211.307C132.292 211.358 132.207 211.375 132.122 211.375Z" fill="#241726"/>
<path fill-rule="evenodd" clip-rule="evenodd" d="M128.574 27.9296C128.574 27.9296 131.392 19.984 134.652 23.7361C137.912 27.5052 137.725 34.3133 133.294 35.5187C127.895 36.9788 128.574 27.9296 128.574 27.9296Z" fill="#E38B72"/>
<path fill-rule="evenodd" clip-rule="evenodd" d="M131.834 32.1572C131.817 32.1572 131.783 32.1572 131.766 32.1572C131.511 32.1232 131.324 31.8855 131.358 31.6309C131.664 29.5087 132.207 26.928 133.175 26.7073C134.329 26.4187 135.263 28.473 135.501 29.1012C135.603 29.3389 135.484 29.6275 135.246 29.7124C135.008 29.8143 134.72 29.6954 134.635 29.4577C134.227 28.456 133.616 27.5732 133.396 27.6241C133.107 27.8278 132.581 29.7633 132.292 31.7497C132.258 31.9874 132.071 32.1572 131.834 32.1572Z" fill="#241726"/>
<path fill-rule="evenodd" clip-rule="evenodd" d="M124.652 11.0197C124.652 11.0197 106.197 7.47131 99.8301 16.6054C97.1136 20.5103 98.0135 40.5441 103.056 46.7241C105.008 49.101 110.985 50.2215 113.226 50.2215C129.457 50.2724 128.913 35.4678 128.913 35.4678C128.913 35.4678 133.565 11.8007 124.652 11.0197Z" fill="#E38B72"/>
<path fill-rule="evenodd" clip-rule="evenodd" d="M109.728 36.9788C109.694 36.9788 109.66 36.9788 109.626 36.9788C109.593 36.9618 106.044 36.2997 104.499 36.3167C104.194 36.3167 103.939 36.1809 103.82 35.9262C103.447 35.1113 105.076 32.5646 108.693 28.3371C108.862 28.1334 109.168 28.1164 109.355 28.2862C109.559 28.4559 109.576 28.7446 109.406 28.9483C107.317 31.4101 105.059 34.3982 104.737 35.3659C106.469 35.3999 109.66 36.0281 109.813 36.045C110.068 36.096 110.238 36.3506 110.187 36.6053C110.136 36.826 109.949 36.9788 109.728 36.9788Z" fill="#241726"/>
<path fill-rule="evenodd" clip-rule="evenodd" d="M115.772 32.412C115.62 32.412 115.484 32.3611 115.365 32.2592C114.618 31.648 114.601 27.9638 114.652 25.8416C114.669 25.5699 114.822 25.3662 115.144 25.3662C115.399 25.3832 115.603 25.6039 115.603 25.8586C115.552 27.9978 115.654 30.4935 115.891 31.3085C116.519 30.6803 117.844 28.3373 118.845 26.283C118.964 26.0453 119.253 25.9435 119.491 26.0623C119.711 26.1811 119.813 26.4528 119.694 26.6905C118.71 28.7278 116.876 32.1743 115.925 32.395C115.874 32.395 115.823 32.412 115.772 32.412Z" fill="#241726"/>
<path fill-rule="evenodd" clip-rule="evenodd" d="M102.003 32.1909C101.817 32.1909 101.63 32.0891 101.511 31.9193C100.9 31.0874 101.103 27.2164 101.171 26.045C101.188 25.7903 101.409 25.5866 101.681 25.6035C101.935 25.6205 102.139 25.8582 102.122 26.1129C102.003 27.9125 102.003 30.0008 102.156 30.9346C102.682 30.0857 103.616 27.9634 104.329 26.0789C104.414 25.8242 104.703 25.7054 104.94 25.7903C105.178 25.8922 105.314 26.1638 105.212 26.4015C103.09 32.0551 102.326 32.157 102.088 32.1909C102.054 32.1909 102.037 32.1909 102.003 32.1909Z" fill="#241726"/>
<path fill-rule="evenodd" clip-rule="evenodd" d="M119.779 49.1691C119.542 49.1691 119.355 48.9824 119.321 48.7447C119.287 48.49 119.474 48.2523 119.728 48.2184C128.115 47.1827 129.134 38.2863 129.168 37.9128C129.202 37.6582 129.457 37.4714 129.694 37.4884C129.949 37.5223 130.136 37.76 130.119 38.0147C130.102 38.1166 128.981 48.0316 119.847 49.1522C119.83 49.1691 119.796 49.1691 119.779 49.1691Z" fill="#241726"/>
<path fill-rule="evenodd" clip-rule="evenodd" d="M112.343 44.466C109.983 44.466 106.808 40.5781 106.435 40.0858C106.265 39.882 106.299 39.5934 106.502 39.4236C106.706 39.2708 107.012 39.2878 107.165 39.4915C108.608 41.3251 111.392 44.0076 112.699 43.4643C113.26 43.2267 114.126 42.0552 113.497 36.9449C113.463 36.6732 113.65 36.4355 113.905 36.4185C114.16 36.3846 114.397 36.5713 114.431 36.826C114.974 41.2572 114.533 43.719 113.073 44.3302C112.835 44.4151 112.598 44.466 112.343 44.466Z" fill="#241726"/>
<path fill-rule="evenodd" clip-rule="evenodd" d="M101.443 33.5836C93.1408 33.312 93.1408 21.2747 101.443 21.02C109.745 21.2747 109.745 33.312 101.443 33.5836ZM101.443 21.9538C94.3972 22.1915 94.3972 32.4121 101.443 32.6329C108.489 32.4121 108.489 22.1745 101.443 21.9538Z" fill="#FBFCFF"/>
<path fill-rule="evenodd" clip-rule="evenodd" d="M116.35 34.5172C108.048 34.2456 108.048 22.2083 116.35 21.9536C124.652 22.2253 124.635 34.2456 116.35 34.5172ZM116.35 22.9044C109.287 23.1251 109.287 33.3457 116.35 33.5665C123.396 33.3457 123.396 23.1251 116.35 22.9044Z" fill="#FBFCFF"/>
<path fill-rule="evenodd" clip-rule="evenodd" d="M109.949 28.8803C109.915 28.8803 109.881 28.8803 109.847 28.8633L107.046 28.2861C106.791 28.2351 106.621 27.9805 106.672 27.7258C106.723 27.4711 106.978 27.3014 107.233 27.3523L110.051 27.9465C110.306 27.9975 110.458 28.2521 110.407 28.5068C110.374 28.7275 110.17 28.8803 109.949 28.8803Z" fill="#FBFCFF"/>
<path fill-rule="evenodd" clip-rule="evenodd" d="M122.275 27.9468C122.071 27.9468 121.884 27.8109 121.817 27.6072C121.749 27.3525 121.884 27.0809 122.139 27.013L129.881 24.7889C130.136 24.721 130.39 24.8568 130.475 25.1115C130.543 25.3661 130.39 25.6208 130.153 25.6887L122.394 27.9298C122.36 27.9298 122.309 27.9468 122.275 27.9468Z" fill="#FBFCFF"/>
<path fill-rule="evenodd" clip-rule="evenodd" d="M93.9389 180.934C93.6842 180.934 93.4805 180.747 93.4635 180.493C92.8353 170.476 101.307 131.036 101.664 129.372C101.715 129.118 101.969 128.948 102.224 128.999C102.479 129.067 102.632 129.304 102.581 129.559C102.496 129.967 93.7861 170.544 94.4143 180.425C94.4313 180.696 94.2275 180.917 93.9729 180.934C93.9559 180.934 93.9389 180.934 93.9389 180.934Z" fill="#241726"/>
<path fill-rule="evenodd" clip-rule="evenodd" d="M119.643 5.40017C119.643 5.40017 118.761 -0.796741 103.497 0.0861071C88.2512 0.968955 91.7827 20.4256 94.4482 22.412C95.9423 23.5495 99.7283 19.5427 102.733 15.8755C102.801 17.0809 103.345 18.5071 104.601 20.2048C109.915 27.2676 110.798 13.3458 113.667 12.0215C113.667 12.0215 107.487 20.867 122.071 20.867C122.071 20.867 121.63 12.463 123.837 10.4765C126.044 8.49014 119.643 5.40017 119.643 5.40017Z" fill="#D55A41"/>
<path fill-rule="evenodd" clip-rule="evenodd" d="M97.0797 16.2997C97.0628 16.2997 97.0458 16.2997 97.0288 16.2827C96.7571 16.2488 96.5874 16.0111 96.6213 15.7564C97.4532 9.50855 99.3038 5.70552 102.139 4.43218C104.957 3.17582 107.623 4.97547 107.742 5.04338C107.963 5.19618 108.014 5.4848 107.861 5.70552C107.725 5.90925 107.419 5.97716 107.199 5.82436C107.182 5.80738 104.856 4.2624 102.513 5.29805C100.034 6.41859 98.3191 10.0688 97.5551 15.8922C97.5212 16.1299 97.3174 16.2997 97.0797 16.2997Z" fill="#241726"/>
<path fill-rule="evenodd" clip-rule="evenodd" d="M107.233 16.9961C106.995 16.9961 106.774 16.8093 106.774 16.5546C106.587 12.7346 107.368 10.0352 109.1 8.54111C110.934 6.92821 113.141 7.3187 113.226 7.33568C113.837 7.43755 113.65 8.37133 113.056 8.25249C113.039 8.25249 111.188 7.94688 109.711 9.25418C108.217 10.5615 107.538 13.0063 107.708 16.5037C107.725 16.7754 107.521 16.9961 107.267 16.9961C107.25 16.9961 107.25 16.9961 107.233 16.9961Z" fill="#241726"/>
<path fill-rule="evenodd" clip-rule="evenodd" d="M118.336 17.9469C118.234 17.9469 118.115 17.9129 118.03 17.828C114.771 15.0776 117.08 6.60569 117.165 6.24915C117.249 5.99448 117.504 5.85866 117.759 5.92657C117.997 5.99448 118.149 6.24915 118.081 6.50382C118.064 6.58871 115.84 14.7381 118.642 17.115C118.845 17.2847 118.862 17.5903 118.693 17.7771C118.608 17.896 118.472 17.9469 118.336 17.9469Z" fill="#241726"/>
<path fill-rule="evenodd" clip-rule="evenodd" d="M133.684 19.5936C133.633 19.5936 133.582 19.5936 133.548 19.5766C133.294 19.5087 133.158 19.2371 133.226 18.9994C134.109 16.0792 133.939 13.7702 132.733 12.1403C130.764 9.47479 126.638 9.44084 126.604 9.44084C125.993 9.45782 125.993 8.49008 126.604 8.50706C126.791 8.50706 131.239 8.54101 133.497 11.58C134.89 13.4476 135.11 16.0452 134.126 19.271C134.075 19.4747 133.888 19.5936 133.684 19.5936Z" fill="#241726"/>
<path fill-rule="evenodd" clip-rule="evenodd" d="M138.404 24.551C138.319 24.551 138.251 24.534 138.183 24.5001C137.946 24.3812 137.861 24.0926 137.98 23.8549C137.997 23.8379 139.253 21.461 139.643 18.5918C140.17 14.8566 139.015 12.0723 136.265 10.3236C136.044 10.1877 135.976 9.88214 136.112 9.66143C136.265 9.44072 136.553 9.38978 136.774 9.52561C144.143 14.1945 138.879 24.2114 138.811 24.3133C138.727 24.4661 138.574 24.551 138.404 24.551Z" fill="#241726"/>
<path fill-rule="evenodd" clip-rule="evenodd" d="M153.599 53.2778C153.599 53.2778 182.241 70.2896 184.754 91.3761C185.959 101.478 145.416 128.524 144.465 124.738C143.514 120.968 137.861 109.322 137.861 109.322C137.861 109.322 160.679 91.0535 160.204 87.2844C159.728 83.4984 136.91 70.1199 139.745 66.3508C142.581 62.5647 153.599 53.2778 153.599 53.2778Z" fill="#52AFA6"/>
<path fill-rule="evenodd" clip-rule="evenodd" d="M94.0917 105.23C94.0917 105.23 60.5772 158.422 71.2733 167.878C81.9694 177.318 119.117 205.654 127.301 205.654C135.484 205.654 144.941 189.27 144.941 181.715C144.941 174.16 109.677 152.768 109.677 152.768C109.677 152.768 128.098 114.67 126.197 110.255C124.312 105.858 94.0917 105.23 94.0917 105.23Z" fill="#1A1F36"/>
<path fill-rule="evenodd" clip-rule="evenodd" d="M107.946 107.743C107.946 107.743 84.9236 208.065 91.2224 211.206C97.5043 214.364 115.195 217.301 120.849 214.771C126.52 212.258 146.044 115.62 142.886 111.834C139.745 108.065 107.946 107.743 107.946 107.743Z" fill="#1A1F36"/>
<path fill-rule="evenodd" clip-rule="evenodd" d="M92.3599 182.038C92.1052 182.038 91.8845 181.817 91.8845 181.562C91.8845 170.306 101.409 133.125 101.817 131.546C101.884 131.291 102.139 131.138 102.394 131.206C102.648 131.274 102.801 131.529 102.733 131.783C102.632 132.174 92.8352 170.425 92.8352 181.562C92.8352 181.817 92.6315 182.038 92.3599 182.038Z" fill="#FBFCFF"/>
<path fill-rule="evenodd" clip-rule="evenodd" d="M124.941 204.703C124.55 204.72 124.312 204.176 124.618 203.888C130.102 198.404 133.888 166.723 133.922 166.401C133.956 166.146 134.177 165.959 134.448 165.993C134.703 166.01 134.89 166.248 134.856 166.503C134.703 167.827 131.002 198.845 125.28 204.567C125.195 204.652 125.059 204.703 124.941 204.703Z" fill="#FBFCFF"/>
<path fill-rule="evenodd" clip-rule="evenodd" d="M117.708 51.0873C117.708 51.0873 121.8 62.4115 125.569 63.6679C129.355 64.9242 134.397 47.3012 136.91 48.252C139.423 49.1858 154.533 51.7155 156.435 55.4846C158.319 59.2706 149.813 108.065 146.672 110.9C143.514 113.719 101.341 107.437 94.0917 106.486C86.8591 105.535 101.019 64.9242 98.8115 58.948C96.6214 52.9718 117.708 51.0873 117.708 51.0873Z" fill="#52AFA6"/>
<path fill-rule="evenodd" clip-rule="evenodd" d="M79.6943 55.9599C90.5602 41.5967 95.5687 60.1195 97.1646 66.5881C97.1646 66.5881 104.72 51.7155 112.037 52.8869C119.355 54.0754 119.355 60.6798 119.355 60.6798C119.355 60.6798 101.171 69.6611 97.64 71.0702C94.0916 72.4794 79.6943 55.9599 79.6943 55.9599Z" fill="white"/>
<path fill-rule="evenodd" clip-rule="evenodd" d="M97.1477 71.6307C92.8523 71.6307 80.7131 57.8447 79.3379 56.2658C79.202 56.113 79.1851 55.8753 79.3039 55.7055C79.6265 54.9755 84.652 48.5409 89.3039 50.5612C93.5993 52.1911 96.4346 61.8345 97.3345 65.281C99.3039 61.8006 105.552 51.4441 112.122 52.4288C119.762 53.6682 120.255 61.0365 119.576 61.1045C118.829 61.478 101.324 70.1027 97.8099 71.5119C97.6061 71.5798 97.3854 71.6307 97.1477 71.6307ZM80.2886 55.9262C84.3124 60.3235 93.9389 71.0365 97.4533 70.629C100.713 69.3387 116.57 61.5289 118.879 60.3914C118.778 59.152 118.014 54.3303 111.969 53.3626C105.076 52.242 97.6571 66.6562 97.5891 66.792C97.4873 66.9788 97.3175 67.0807 97.1138 67.0467C96.91 67.0297 96.7403 66.8769 96.7063 66.6902C96.6723 66.5543 93.6333 53.2267 88.9644 51.4441C85.4839 49.8312 81.1206 54.568 80.2886 55.9262Z" fill="#241726"/>
<path fill-rule="evenodd" clip-rule="evenodd" d="M69.1511 80.8667C69.1511 80.8667 75.1103 50.9517 79.5416 51.563C83.9898 52.1742 96.3158 64.2963 96.3158 64.2963C96.3158 64.2963 106.876 60.2047 114.89 57.7768C119.508 56.3677 123.277 55.5188 123.667 56.3337C126.689 62.7344 125.263 86.4185 124.55 86.6561C119.015 88.5067 96.91 97.6408 92.2071 95.6204C87.5042 93.6171 69.1511 80.8667 69.1511 80.8667Z" fill="#B1739A"/>
<path fill-rule="evenodd" clip-rule="evenodd" d="M97.4023 92.327C97.3344 92.327 97.2665 92.31 97.2156 92.2761C96.9779 92.1742 96.859 91.8856 96.9609 91.6479C99.7283 85.451 99.0662 67.7261 99.0492 67.5394C99.0492 67.2847 99.2529 67.064 99.5076 67.064C99.8132 67.047 99.983 67.2507 99.9999 67.5054C100.034 68.2524 100.679 85.6377 97.8268 92.0384C97.7589 92.2082 97.5891 92.327 97.4023 92.327Z" fill="#241726"/>
<path fill-rule="evenodd" clip-rule="evenodd" d="M91.0187 90.9006C91.0187 90.9006 91.0187 90.9006 91.0017 90.9006C90.747 90.8836 90.5433 90.6629 90.5603 90.4083C90.5603 90.2555 91.2903 74.1944 93.871 65.2641C93.9559 65.0264 94.2105 64.8736 94.4652 64.9415C94.7199 65.0264 94.8557 65.2811 94.7878 65.5357C92.2411 74.3472 91.511 90.2894 91.4941 90.4422C91.4941 90.6969 91.2733 90.9006 91.0187 90.9006Z" fill="#241726"/>
<path fill-rule="evenodd" clip-rule="evenodd" d="M82.7674 92.0892C82.7674 92.0892 83.9389 85.4679 91.2564 83.821C93.4465 83.3287 93.7521 83.8719 93.2937 84.7548C94.4143 84.0078 95.6876 83.6003 96.927 84.0587C98.2173 84.5171 96.8421 86.2488 95.4499 87.624C96.944 86.4865 98.7606 85.5188 99.2869 87.1317C100.238 89.95 95.8574 96.079 92.0883 98.0994C89.0153 99.7632 83.0051 99.882 82.7674 92.0892Z" fill="#E38B72"/>
<path fill-rule="evenodd" clip-rule="evenodd" d="M91.7318 92.9039C91.6639 92.9039 91.579 92.8869 91.5111 92.853C91.2734 92.7171 91.1885 92.4285 91.3243 92.2078C91.7997 91.3759 94.2105 87.1654 95.6197 86.7919C96.2139 86.6221 96.4686 87.5389 95.8744 87.6917C95.1783 87.8954 93.4296 90.3742 92.1392 92.6662C92.0543 92.819 91.9015 92.9039 91.7318 92.9039Z" fill="#241726"/>
<path fill-rule="evenodd" clip-rule="evenodd" d="M88.8964 91.0196C88.8625 91.0196 88.8285 91.0196 88.7776 91.0026C88.5229 90.9347 88.3871 90.68 88.438 90.4253C89.1851 87.607 92.4618 84.6529 92.5976 84.534C92.8014 84.3642 93.09 84.3642 93.2598 84.568C93.4465 84.7547 93.4296 85.0603 93.2258 85.2301C93.1919 85.2641 90.017 88.1163 89.3548 90.663C89.3039 90.8837 89.1172 91.0196 88.8964 91.0196Z" fill="#241726"/>
<path fill-rule="evenodd" clip-rule="evenodd" d="M101.528 64.1099C101.443 64.1099 101.341 64.0759 101.256 64.008C101.036 63.8552 101.002 63.5666 101.155 63.3628C101.392 63.0233 107.131 55.1965 111.834 55.3323C113.226 55.3832 114.397 56.1133 115.28 57.5225C115.416 57.7432 115.348 58.0318 115.144 58.1676C114.924 58.3034 114.618 58.2525 114.482 58.0318C113.769 56.8943 112.886 56.317 111.8 56.2831C107.606 56.1642 101.969 63.8382 101.919 63.9061C101.817 64.0419 101.681 64.1099 101.528 64.1099Z" fill="#241726"/>
<path fill-rule="evenodd" clip-rule="evenodd" d="M93.3956 62.3267C93.1918 62.3267 93.0051 62.2078 92.9372 62.0041C90.8998 55.909 88.9643 54.3301 87.691 54.0754C86.5195 53.8377 85.7215 54.7206 85.7215 54.7376C85.5518 54.9243 85.2462 54.9583 85.0424 54.7885C84.8557 54.6017 84.8387 54.3131 85.0085 54.1094C85.0594 54.0584 86.163 52.8021 87.8777 53.1416C90.0849 53.5831 92.0883 56.4693 93.837 61.7154C93.9219 61.9531 93.7861 62.2248 93.5314 62.3097C93.4805 62.3267 93.4295 62.3267 93.3956 62.3267Z" fill="#241726"/>
<path fill-rule="evenodd" clip-rule="evenodd" d="M105.772 74.5852C105.62 74.5852 105.161 74.5852 104.991 74.2117C104.635 73.3458 103.973 68.8127 103.905 68.3034C103.871 68.0657 104.007 67.845 104.244 67.7771C104.822 67.6243 118.353 63.8892 121.053 63.8892C121.375 63.8892 121.732 63.9231 121.902 64.2287C122.394 65.0946 123.158 69.1183 123.243 69.5598C123.294 69.7974 123.158 70.0351 122.92 70.103C122.326 70.2898 108.234 74.5852 105.772 74.5852ZM104.89 68.575C105.144 70.3238 105.552 72.8025 105.789 73.6344C107.691 73.6005 117.131 70.884 122.241 69.3221C121.935 67.7601 121.443 65.553 121.137 64.8399C118.744 64.806 107.25 67.9469 104.89 68.575Z" fill="#241726"/>
<path fill-rule="evenodd" clip-rule="evenodd" d="M107.436 78.0315C107.216 78.0315 107.029 77.8787 106.978 77.6749C106.91 77.4203 107.08 77.1656 107.334 77.0977C110.9 76.2828 120.373 74.0587 121.409 73.5833C121.647 73.4814 121.918 73.5833 122.037 73.821C122.139 74.0587 122.037 74.3473 121.8 74.4491C120.475 75.0604 108.064 77.8957 107.538 78.0145C107.504 78.0315 107.47 78.0315 107.436 78.0315Z" fill="#241726"/>
<path fill-rule="evenodd" clip-rule="evenodd" d="M108.608 82.055C108.404 82.055 108.2 81.9022 108.149 81.6645C108.098 81.4098 108.268 81.1721 108.523 81.1212C108.642 81.0872 119.949 78.7443 122.003 77.8445C122.241 77.7256 122.513 77.8445 122.632 78.0822C122.733 78.3199 122.615 78.5915 122.377 78.7103C120.119 79.6781 109.219 81.9531 108.608 82.055Z" fill="#241726"/>
<path fill-rule="evenodd" clip-rule="evenodd" d="M86.061 68.5918C86.0101 68.5918 85.9422 68.5748 85.8743 68.5578C84.8047 68.0655 79.7792 64.9925 79.5585 64.8567C79.3378 64.7208 79.2699 64.4322 79.4057 64.2115C79.5415 63.9908 79.8301 63.9229 80.0509 64.0587C80.1018 64.0927 85.2461 67.2336 86.2648 67.692C86.5025 67.7938 86.6043 68.0655 86.5025 68.3032C86.4176 68.4899 86.2478 68.5918 86.061 68.5918Z" fill="#241726"/>
<path fill-rule="evenodd" clip-rule="evenodd" d="M89.0152 66.7071C88.9473 66.7071 88.8794 66.6901 88.8114 66.6561C87.8607 66.1808 79.4736 61.9363 79.4736 61.9363L79.915 61.0874C79.915 61.0874 88.2851 65.3319 89.2359 65.8072C89.4566 65.9261 89.5585 66.2147 89.4396 66.4354C89.3547 66.6052 89.185 66.7071 89.0152 66.7071Z" fill="#241726"/>
<path fill-rule="evenodd" clip-rule="evenodd" d="M127.657 68.3029C127.368 68.3029 127.063 68.286 126.757 68.235C126.146 68.1332 126.316 67.1824 126.91 67.3012C133.922 68.4727 137.046 52.4117 137.08 52.2589C137.114 51.9872 137.368 51.8174 137.623 51.8684C137.878 51.9193 138.048 52.174 137.997 52.4287C137.878 53.1078 134.924 68.3029 127.657 68.3029Z" fill="#241726"/>
<path fill-rule="evenodd" clip-rule="evenodd" d="M153.905 78.3031C153.718 78.3031 153.531 78.1842 153.463 77.9975C148.421 63.4814 153.294 54.6699 153.497 54.3134C153.633 54.0757 153.922 54.0078 154.143 54.1266C154.363 54.2624 154.448 54.5511 154.312 54.7718C154.261 54.8567 149.457 63.6003 154.346 77.6749C154.431 77.9296 154.312 78.2012 154.058 78.2861C154.007 78.3031 153.956 78.3031 153.905 78.3031Z" fill="#241726"/>
<path fill-rule="evenodd" clip-rule="evenodd" d="M175.314 91.8514C175.28 91.8514 175.246 91.8514 175.229 91.8344C172.088 91.2063 163.565 88.4728 163.209 88.354C162.767 88.2351 162.784 87.573 163.226 87.4542C164.363 87.1316 174.499 84.2963 177.097 85.6036C177.335 85.7224 177.419 85.9941 177.318 86.2318C177.199 86.4694 176.91 86.5543 176.672 86.4525C175.026 85.6206 168.693 86.9958 165.026 87.9465C167.691 88.7784 173.107 90.4592 175.399 90.9176C175.671 90.9686 175.823 91.2063 175.773 91.4609C175.739 91.6986 175.535 91.8514 175.314 91.8514Z" fill="#241726"/>
<path fill-rule="evenodd" clip-rule="evenodd" d="M100.815 129.406C100.594 129.406 100.391 129.271 100.289 129.05C99.5925 127.675 98.3531 119.016 98.6588 116.809C98.7097 116.554 98.9474 116.367 99.202 116.401C99.4567 116.435 99.6435 116.69 99.5925 116.945C99.3209 118.914 100.306 125.824 100.934 128.048C101.681 126.588 103.158 122.123 104.346 117.997C104.414 117.743 104.686 117.607 104.924 117.675C105.178 117.743 105.331 118.014 105.246 118.269C102.054 129.288 101.222 129.373 100.866 129.406C100.849 129.406 100.832 129.406 100.815 129.406Z" fill="#FBFCFF"/>
<path fill-rule="evenodd" clip-rule="evenodd" d="M134.058 115.756C122.156 115.756 95.0593 110.663 93.7011 110.408C93.4294 110.357 93.2597 110.12 93.3106 109.865C93.3615 109.61 93.6162 109.441 93.8709 109.491C107.64 112.089 134.703 116.435 138.574 114.262C139.1 113.94 139.575 114.789 139.032 115.077C138.183 115.553 136.418 115.756 134.058 115.756Z" fill="#FBFCFF"/>
<path fill-rule="evenodd" clip-rule="evenodd" d="M142.886 111.834C142.886 111.834 131.562 114.347 131.867 116.554C132.19 118.761 135.025 129.78 136.91 128.829C138.794 127.895 142.581 127.895 144.465 124.737C146.35 121.596 142.886 111.834 142.886 111.834Z" fill="#E38B72"/>
<path fill-rule="evenodd" clip-rule="evenodd" d="M138.794 133.09C138.659 133.09 138.523 133.023 138.421 132.904C138.081 132.462 130.136 121.919 132.037 112.055C132.088 111.8 132.343 111.63 132.598 111.681C132.852 111.732 133.005 111.987 132.971 112.242C131.137 121.681 139.083 132.225 139.168 132.326C139.338 132.53 139.287 132.836 139.083 132.989C138.998 133.057 138.896 133.09 138.794 133.09Z" fill="#FBFCFF"/>
<path fill-rule="evenodd" clip-rule="evenodd" d="M147.929 120.17C147.912 120.17 147.912 120.17 147.912 120.17C147.64 120.17 147.436 119.95 147.453 119.678C147.759 113.328 143.803 107.759 143.769 107.709C143.616 107.488 143.667 107.199 143.871 107.046C144.075 106.894 144.38 106.944 144.533 107.148C144.703 107.386 148.71 113.023 148.404 119.729C148.387 119.983 148.183 120.17 147.929 120.17Z" fill="#241726"/>
<path fill-rule="evenodd" clip-rule="evenodd" d="M136.282 107.267C134.89 107.267 102.343 107.199 95.0425 100.867C94.8557 100.697 94.8218 100.391 94.9915 100.187C95.1613 100.001 95.4669 99.9838 95.6707 100.154C102.683 106.249 135.942 106.333 136.282 106.333C136.893 106.316 136.893 107.284 136.282 107.267Z" fill="#241726"/>
<path fill-rule="evenodd" clip-rule="evenodd" d="M110.917 211.766C107.572 211.766 104.431 211.172 101.868 210.476C96.2648 208.931 92.292 206.622 92.1222 206.52C91.9015 206.401 91.8166 206.112 91.9524 205.875C92.0883 205.654 92.3769 205.586 92.5976 205.705C92.7674 205.807 108.591 214.941 120.951 208.54C121.188 208.421 121.46 208.506 121.579 208.727C121.715 208.965 121.613 209.253 121.392 209.372C117.98 211.138 114.346 211.766 110.917 211.766Z" fill="#FBFCFF"/>
<path fill-rule="evenodd" clip-rule="evenodd" d="M99.4906 180.679C99.2868 180.679 99.1171 180.543 99.0491 180.34C99.0152 180.238 98.2512 177.725 99.5755 176.503C99.7622 176.333 100.051 176.333 100.238 176.537C100.407 176.723 100.407 177.029 100.204 177.199C99.4736 177.878 99.7792 179.491 99.949 180.068C100.017 180.323 99.8811 180.577 99.6434 180.662C99.5924 180.662 99.5415 180.679 99.4906 180.679Z" fill="#FBFCFF"/>
<path fill-rule="evenodd" clip-rule="evenodd" d="M101.885 183.973C101.681 183.973 101.494 183.837 101.443 183.634C101.409 183.532 100.645 181.019 101.952 179.797C102.156 179.627 102.445 179.644 102.632 179.831C102.801 180.017 102.784 180.323 102.598 180.493C101.868 181.172 102.156 182.785 102.343 183.362C102.411 183.617 102.275 183.871 102.02 183.956C101.986 183.973 101.935 183.973 101.885 183.973Z" fill="#FBFCFF"/>
<path fill-rule="evenodd" clip-rule="evenodd" d="M98.5738 186.826C98.3701 186.826 98.1833 186.707 98.1154 186.503C98.0815 186.384 97.3175 183.871 98.6417 182.666C98.8285 182.479 99.1341 182.496 99.3039 182.683C99.4906 182.87 99.4737 183.175 99.2869 183.345C98.5569 184.024 98.8455 185.654 99.0153 186.214C99.1001 186.469 98.9643 186.741 98.7097 186.809C98.6587 186.826 98.6078 186.826 98.5738 186.826Z" fill="#FBFCFF"/>
<path fill-rule="evenodd" clip-rule="evenodd" d="M102.784 178.217C102.581 178.217 102.394 178.082 102.326 177.878C102.309 177.776 101.545 175.246 102.852 174.041C103.039 173.871 103.345 173.871 103.514 174.075C103.701 174.262 103.684 174.55 103.497 174.737C102.767 175.399 103.056 177.029 103.243 177.606C103.311 177.844 103.175 178.116 102.92 178.183C102.869 178.2 102.835 178.217 102.784 178.217Z" fill="#FBFCFF"/>
<path fill-rule="evenodd" clip-rule="evenodd" d="M103.548 172.835C103.328 172.835 103.141 172.683 103.09 172.445C103.073 172.343 102.564 169.796 104.007 168.71C104.211 168.557 104.499 168.591 104.669 168.795C104.822 169.015 104.771 169.304 104.567 169.457C103.769 170.068 103.905 171.681 104.007 172.258C104.075 172.513 103.905 172.767 103.65 172.818C103.616 172.818 103.582 172.835 103.548 172.835Z" fill="#FBFCFF"/>
<path fill-rule="evenodd" clip-rule="evenodd" d="M100.017 174.567C99.7623 174.567 99.5586 174.381 99.5416 174.126C99.5246 174.024 99.3718 171.511 100.985 170.578C101.205 170.442 101.511 170.527 101.63 170.747C101.766 170.968 101.681 171.257 101.46 171.393C100.373 172.021 100.475 174.041 100.475 174.075C100.492 174.33 100.306 174.55 100.051 174.567C100.034 174.567 100.017 174.567 100.017 174.567Z" fill="#FBFCFF"/>
<path fill-rule="evenodd" clip-rule="evenodd" d="M101.969 169.253C101.732 169.253 101.528 169.067 101.511 168.812C101.494 168.71 101.341 166.197 102.954 165.264C103.175 165.128 103.464 165.196 103.599 165.433C103.735 165.654 103.65 165.943 103.43 166.078C102.343 166.707 102.445 168.727 102.445 168.744C102.462 169.016 102.275 169.236 102.003 169.253C102.003 169.253 101.986 169.253 101.969 169.253Z" fill="#FBFCFF"/>
<path fill-rule="evenodd" clip-rule="evenodd" d="M78.7265 149.983C78.5228 149.983 78.336 149.848 78.2681 149.644C78.2342 149.542 77.4702 147.029 78.7945 145.807C78.9812 145.637 79.2868 145.654 79.4566 145.841C79.6264 146.028 79.6264 146.333 79.4226 146.503C78.6926 147.182 78.9982 148.812 79.168 149.372C79.2529 149.627 79.117 149.882 78.8624 149.966C78.8114 149.983 78.7605 149.983 78.7265 149.983Z" fill="#FBFCFF"/>
<path fill-rule="evenodd" clip-rule="evenodd" d="M81.1206 153.277C80.9168 153.277 80.7301 153.142 80.6622 152.955C80.6282 152.836 79.8642 150.323 81.1885 149.101C81.3753 148.931 81.6809 148.948 81.8506 149.135C82.0204 149.322 82.0204 149.627 81.8167 149.797C81.0866 150.476 81.3922 152.106 81.562 152.666C81.6469 152.921 81.4941 153.175 81.2564 153.26C81.2055 153.277 81.1545 153.277 81.1206 153.277Z" fill="#FBFCFF"/>
<path fill-rule="evenodd" clip-rule="evenodd" d="M77.7928 156.129C77.5891 156.129 77.4023 156.01 77.3344 155.807C77.3005 155.705 76.5534 153.175 77.8607 151.97C78.0475 151.783 78.3531 151.8 78.5229 151.987C78.7096 152.19 78.6927 152.479 78.5059 152.666C77.7759 153.328 78.0645 154.958 78.2512 155.518C78.3192 155.773 78.1833 156.044 77.9287 156.112C77.8777 156.129 77.8438 156.129 77.7928 156.129Z" fill="#FBFCFF"/>
<path fill-rule="evenodd" clip-rule="evenodd" d="M82.0034 147.522C81.7997 147.522 81.6129 147.386 81.562 147.182C81.528 147.08 80.764 144.567 82.0713 143.345C82.275 143.175 82.5637 143.175 82.7504 143.379C82.9202 143.566 82.9032 143.871 82.7165 144.041C81.9864 144.72 82.292 146.333 82.4618 146.91C82.5297 147.148 82.3939 147.42 82.1392 147.505C82.1053 147.505 82.0543 147.522 82.0034 147.522Z" fill="#FBFCFF"/>
<path fill-rule="evenodd" clip-rule="evenodd" d="M82.7674 142.14C82.5637 142.14 82.36 141.987 82.309 141.766C82.292 141.647 81.7827 139.101 83.2258 138.014C83.4296 137.861 83.7352 137.895 83.888 138.116C84.0408 138.32 84.0068 138.608 83.7861 138.761C82.9881 139.372 83.124 141.002 83.2428 141.563C83.2937 141.817 83.124 142.072 82.8693 142.123C82.8353 142.14 82.8014 142.14 82.7674 142.14Z" fill="#FBFCFF"/>
<path fill-rule="evenodd" clip-rule="evenodd" d="M79.236 143.872C78.9813 143.872 78.7776 143.685 78.7606 143.447C78.7606 143.328 78.5908 140.816 80.2207 139.882C80.4414 139.746 80.7301 139.831 80.8659 140.052C80.9847 140.289 80.9168 140.578 80.6791 140.697C79.5925 141.325 79.6944 143.362 79.7114 143.379C79.7284 143.634 79.5246 143.855 79.27 143.872C79.253 143.872 79.236 143.872 79.236 143.872Z" fill="#FBFCFF"/>
<path fill-rule="evenodd" clip-rule="evenodd" d="M81.2054 138.557C80.9508 138.557 80.747 138.37 80.73 138.116C80.7131 138.014 80.5603 135.501 82.1732 134.567C82.3939 134.432 82.6995 134.516 82.8183 134.737C82.9542 134.958 82.8693 135.246 82.6486 135.382C81.562 136.01 81.6638 138.031 81.6638 138.048C81.6808 138.319 81.4941 138.54 81.2394 138.557C81.2224 138.557 81.2054 138.557 81.2054 138.557Z" fill="#FBFCFF"/>
<path fill-rule="evenodd" clip-rule="evenodd" d="M143.888 95.6883C143.684 95.6883 143.497 95.5525 143.429 95.3487C143.396 95.2469 142.632 92.7172 143.956 91.5118C144.143 91.325 144.448 91.342 144.618 91.5287C144.805 91.7325 144.788 92.0211 144.601 92.2078C143.854 92.887 144.16 94.4999 144.329 95.0771C144.414 95.3148 144.278 95.5864 144.024 95.6543C143.973 95.6713 143.922 95.6883 143.888 95.6883Z" fill="#241726"/>
<path fill-rule="evenodd" clip-rule="evenodd" d="M146.282 98.9821C146.078 98.9821 145.891 98.8462 145.823 98.6425C145.789 98.5406 145.025 96.0109 146.35 94.8055C146.536 94.6357 146.842 94.6357 147.012 94.8395C147.182 95.0262 147.182 95.3148 146.978 95.5016C146.248 96.1807 146.553 97.7936 146.723 98.3709C146.808 98.6085 146.672 98.8802 146.418 98.9481C146.367 98.9651 146.316 98.9821 146.282 98.9821Z" fill="#241726"/>
<path fill-rule="evenodd" clip-rule="evenodd" d="M142.954 101.834C142.75 101.834 142.564 101.699 142.513 101.495C142.479 101.393 141.715 98.8803 143.022 97.6579C143.226 97.4882 143.514 97.5051 143.701 97.6919C143.871 97.8786 143.854 98.1842 143.667 98.354C142.937 99.0331 143.226 100.663 143.412 101.223C143.48 101.478 143.345 101.733 143.09 101.818C143.056 101.834 143.005 101.834 142.954 101.834Z" fill="#241726"/>
<path fill-rule="evenodd" clip-rule="evenodd" d="M147.165 93.2093C146.978 93.2093 146.791 93.0905 146.723 92.8867C146.689 92.7679 145.925 90.2552 147.25 89.0497C147.691 88.6253 148.336 89.3214 147.878 89.7458C147.148 90.408 147.453 92.0378 147.623 92.5981C147.691 92.8528 147.555 93.1244 147.317 93.1923C147.266 93.2093 147.216 93.2093 147.165 93.2093Z" fill="#241726"/>
<path fill-rule="evenodd" clip-rule="evenodd" d="M147.946 87.8275C147.725 87.8275 147.521 87.6747 147.47 87.454C147.453 87.3522 146.944 84.8055 148.387 83.7189C148.591 83.5491 148.896 83.6001 149.049 83.8038C149.202 84.0075 149.168 84.3131 148.964 84.4659C148.149 85.0771 148.285 86.69 148.404 87.2673C148.455 87.5219 148.285 87.7766 148.031 87.8275C147.997 87.8275 147.963 87.8275 147.946 87.8275Z" fill="#241726"/>
<path fill-rule="evenodd" clip-rule="evenodd" d="M144.397 89.5761C144.143 89.5761 143.939 89.3894 143.922 89.1347C143.922 89.0328 143.769 86.5201 145.382 85.5863C145.603 85.4505 145.891 85.5184 146.027 85.7561C146.146 85.9768 146.078 86.2654 145.857 86.4013C144.754 87.0294 144.873 89.0498 144.873 89.0668C144.89 89.3384 144.686 89.5591 144.431 89.5761C144.414 89.5761 144.414 89.5761 144.397 89.5761Z" fill="#241726"/>
<path fill-rule="evenodd" clip-rule="evenodd" d="M146.367 84.2624C146.112 84.2624 145.908 84.0587 145.891 83.821C145.891 83.7191 145.722 81.1894 147.334 80.2556C147.572 80.1368 147.861 80.2047 147.98 80.4254C148.115 80.6631 148.048 80.9517 147.81 81.0706C146.723 81.7157 146.825 83.7361 146.825 83.7531C146.859 84.0077 146.655 84.2454 146.401 84.2624C146.384 84.2624 146.367 84.2624 146.367 84.2624Z" fill="#241726"/>
<path fill-rule="evenodd" clip-rule="evenodd" d="M61.8336 93.5662C61.5789 93.5662 61.3751 93.3795 61.3582 93.1248C61.3412 92.8701 61.5449 92.6324 61.7996 92.6155C62.3938 92.5815 62.9881 92.4966 63.5993 92.3608C63.8539 92.3099 64.0916 92.4627 64.1595 92.7173C64.2105 92.972 64.0577 93.2267 63.803 93.2946C63.1409 93.4304 62.4957 93.5323 61.8505 93.5662H61.8336ZM59.949 93.5153C59.915 93.5153 59.8981 93.5153 59.8811 93.4983C59.219 93.4134 58.5568 93.2606 57.9456 93.0569C57.7079 92.955 57.5721 92.6834 57.657 92.4457C57.7419 92.208 58.0135 92.0722 58.2682 92.1571C58.8115 92.3608 59.4057 92.4966 59.9999 92.5645C60.2546 92.5985 60.4414 92.8362 60.4074 93.0908C60.3734 93.3285 60.1697 93.5153 59.949 93.5153ZM65.5008 92.7513C65.314 92.7513 65.1273 92.6324 65.0594 92.4457C64.9575 92.208 65.0763 91.9364 65.331 91.8345C65.4499 91.7836 65.5347 91.7496 65.5517 91.7326C66.129 91.4949 66.5195 92.3438 65.9422 92.5985C65.9083 92.6155 65.8234 92.6494 65.6706 92.7173C65.6196 92.7343 65.5517 92.7513 65.5008 92.7513ZM56.4176 92.242C56.3327 92.242 56.2478 92.225 56.1629 92.174C55.6196 91.8175 55.0933 91.3931 54.6179 90.9177C54.4312 90.7309 54.4312 90.4423 54.6179 90.2555C54.8047 90.0688 55.1103 90.0688 55.2801 90.2555C55.7215 90.68 56.1799 91.0535 56.6723 91.3761C56.893 91.5119 56.9609 91.8175 56.8081 92.0212C56.7232 92.174 56.5704 92.242 56.4176 92.242ZM53.7521 89.6104C53.5993 89.6104 53.4465 89.5425 53.3616 89.4067C53.005 88.8973 52.6824 88.3201 52.3768 87.7259C52.0882 87.1656 52.9541 86.7411 53.2257 87.3014C53.4974 87.8617 53.803 88.388 54.1425 88.8634C54.2954 89.0841 54.2274 89.3727 54.0237 89.5255C53.9388 89.5764 53.8369 89.6104 53.7521 89.6104ZM52.0712 86.2318C51.8675 86.2318 51.6808 86.113 51.6128 85.9262C51.4091 85.298 51.2393 84.6698 51.1205 84.0247C51.0865 83.77 51.2563 83.5153 51.511 83.4814C51.7656 83.4305 52.0033 83.6002 52.0543 83.8549C52.1731 84.4491 52.3259 85.0434 52.5127 85.6206C52.5976 85.8583 52.4617 86.1299 52.224 86.2148C52.1731 86.2318 52.1222 86.2318 52.0712 86.2318ZM51.3921 82.5306C51.1375 82.5306 50.9337 82.3269 50.9167 82.0722C50.9167 81.9364 50.9167 81.7836 50.9167 81.6308C50.9167 81.1384 50.9337 80.6291 51.0016 80.1198C51.0186 79.8651 51.2563 79.6784 51.511 79.7123C51.7826 79.7463 51.9694 79.967 51.9354 80.2386C51.8845 80.697 51.8505 81.1724 51.8505 81.6308C51.8505 81.7666 51.8675 81.9025 51.8675 82.0553C51.8675 82.3099 51.6638 82.5306 51.4091 82.5306H51.3921ZM51.8166 78.7955C51.7656 78.7955 51.7317 78.7955 51.6977 78.7785C51.4431 78.7106 51.2903 78.456 51.3582 78.2013C51.511 77.5731 51.7147 76.9619 51.9694 76.3507C52.0712 76.113 52.3429 75.9942 52.5806 76.096C52.8183 76.1979 52.9371 76.4695 52.8352 76.7072C52.6145 77.2675 52.4108 77.8617 52.258 78.439C52.2071 78.6597 52.0203 78.7955 51.8166 78.7955ZM53.2257 75.2981C53.1578 75.2981 53.0729 75.2811 52.9881 75.2471C52.7673 75.1113 52.6824 74.8227 52.8183 74.602C53.1409 74.0247 53.5144 73.4814 53.9049 72.9721C54.0577 72.7684 54.3633 72.7344 54.567 72.8872C54.7707 73.04 54.8047 73.3456 54.6519 73.5494C54.2784 74.0247 53.9388 74.5341 53.6332 75.0604C53.5483 75.2132 53.3955 75.2981 53.2257 75.2981ZM57.7079 72.9212C57.4193 72.9212 57.1137 72.9212 56.8081 72.9042C56.5364 72.8702 56.3497 72.6495 56.3667 72.3949C56.3836 72.1402 56.6213 71.9534 56.859 71.9534C57.5212 72.0044 58.1154 71.9874 58.6757 71.9365C59.2869 71.8855 59.3887 72.8193 58.7605 72.8872C58.438 72.9042 58.0814 72.9212 57.7079 72.9212ZM54.9575 72.6326C54.9405 72.6326 54.9066 72.6326 54.8726 72.6326C54.2444 72.4967 53.6162 72.327 52.9881 72.1232C52.7504 72.0383 52.6145 71.7667 52.6994 71.529C52.7843 71.2743 53.056 71.1385 53.2937 71.2234C53.8709 71.4271 54.4651 71.5799 55.0594 71.6988C55.0594 71.7157 55.0763 71.7157 55.0933 71.7157C55.1103 71.6478 55.1442 71.5799 55.2122 71.512C55.7045 71.0366 56.2308 70.6292 56.7572 70.2896C56.9779 70.1538 57.2665 70.2047 57.4193 70.4254C57.5551 70.6461 57.4872 70.9348 57.2665 71.0876C56.7911 71.3932 56.3157 71.7667 55.8573 72.1911C55.7385 72.31 55.5687 72.3609 55.4159 72.31C55.348 72.5137 55.1612 72.6326 54.9575 72.6326ZM60.5772 72.5307C60.3734 72.5307 60.1867 72.3949 60.1188 72.2081C60.0339 71.9534 60.1697 71.6818 60.4244 71.5969C61.2223 71.3253 61.494 71.0197 61.494 70.9008C61.511 70.6461 61.7147 70.4254 61.9864 70.4594C62.241 70.4594 62.4448 70.6801 62.4448 70.9517C62.4108 71.5799 61.7996 72.1402 60.713 72.4967C60.6791 72.5137 60.6281 72.5307 60.5772 72.5307ZM51.3921 71.4271C51.3242 71.4271 51.2563 71.4101 51.1884 71.3762C50.6111 71.1045 50.0339 70.782 49.4906 70.4254C49.2699 70.2896 49.219 69.984 49.3548 69.7633C49.5076 69.5426 49.7962 69.4917 50.0169 69.6275C50.5263 69.967 51.0526 70.2726 51.5959 70.5273C51.8336 70.6461 51.9354 70.9348 51.8166 71.1555C51.7487 71.3253 51.5789 71.4271 51.3921 71.4271ZM58.7266 70.3575C58.5229 70.3575 58.3191 70.2217 58.2682 70.018C58.2003 69.7633 58.3361 69.5086 58.5908 69.4407C59.3378 69.22 60.0678 69.203 60.696 69.3558C60.9507 69.4237 61.1035 69.6784 61.0526 69.9331C60.9847 70.1708 60.73 70.3405 60.4753 70.2726C59.9999 70.1538 59.4397 70.1708 58.8454 70.3405C58.8115 70.3575 58.7605 70.3575 58.7266 70.3575ZM48.2342 69.3728C48.1324 69.3728 48.0135 69.3389 47.9286 69.2709C47.4363 68.8635 46.9609 68.422 46.5195 67.9467C46.3327 67.7599 46.3327 67.4543 46.5195 67.2845C46.7232 67.0978 47.0118 67.0978 47.1986 67.3015C47.623 67.7429 48.0814 68.1674 48.5398 68.5409C48.7436 68.7107 48.7605 69.0163 48.5908 69.203C48.5059 69.3219 48.3701 69.3728 48.2342 69.3728ZM45.6366 66.6564C45.4838 66.6564 45.348 66.5715 45.2461 66.4526C44.8726 65.9093 44.533 65.3321 44.2614 64.7379C44.1595 64.5002 44.2614 64.2285 44.4991 64.1097C44.7368 64.0078 45.0254 64.1097 45.1273 64.3474C45.365 64.8737 45.6706 65.4 46.0271 65.9093C46.1799 66.1131 46.129 66.4187 45.9083 66.5545C45.8234 66.6224 45.7385 66.6564 45.6366 66.6564ZM44.0916 63.2268C43.8709 63.2268 43.6841 63.091 43.6332 62.8703C43.4804 62.2251 43.3955 61.563 43.3785 60.9009C43.3785 60.6462 43.5823 60.4255 43.8369 60.4085C44.0916 60.4085 44.3123 60.6122 44.3293 60.8669C44.3463 61.4781 44.4142 62.0723 44.55 62.6496C44.601 62.9042 44.4482 63.1589 44.1935 63.2268C44.1595 63.2268 44.1256 63.2268 44.0916 63.2268ZM43.9728 59.4747C43.9388 59.4747 43.9218 59.4747 43.9049 59.4747C43.6332 59.4408 43.4634 59.2031 43.4974 58.9314C43.5993 58.3033 43.7351 57.6751 43.9388 57.0299C44.0067 56.7752 44.2614 56.6394 44.5161 56.7073C44.7707 56.7922 44.9066 57.0469 44.8386 57.3016C44.6519 57.8958 44.5161 58.49 44.4312 59.0673C44.3972 59.3049 44.1935 59.4747 43.9728 59.4747ZM45.0424 55.8754C44.9914 55.8754 44.9235 55.8584 44.8556 55.8245C44.6179 55.7226 44.5161 55.451 44.6179 55.2133C44.8726 54.6191 45.1782 54.0418 45.5178 53.4815C45.6536 53.2608 45.9422 53.1929 46.1629 53.3118C46.3836 53.4476 46.4685 53.7362 46.3327 53.9739C46.0101 54.5002 45.7215 55.0435 45.4838 55.5868C45.3989 55.7736 45.2291 55.8754 45.0424 55.8754ZM46.9609 52.6157C46.876 52.6157 46.7741 52.5987 46.6892 52.5308C46.4855 52.378 46.4346 52.0724 46.5874 51.8687C46.9779 51.3423 47.3853 50.85 47.8268 50.3746C47.9965 50.1878 48.3021 50.1709 48.4889 50.3406C48.6757 50.5274 48.6926 50.816 48.5229 51.0028C48.438 51.1046 48.3531 51.2065 48.2682 51.2914C48.7945 51.4103 49.3038 51.4612 49.7962 51.4612C50.0509 51.4612 50.2716 51.6819 50.2546 51.9366C50.2546 52.1912 50.0509 52.4119 49.7792 52.4119C49.168 52.395 48.5059 52.3271 47.8098 52.1743C47.7419 52.1573 47.674 52.1233 47.623 52.0724C47.5212 52.1912 47.4363 52.3101 47.3514 52.4289C47.2495 52.5647 47.1137 52.6157 46.9609 52.6157ZM51.6468 52.1403C51.4431 52.1403 51.2563 52.0215 51.2054 51.8177C51.1205 51.5631 51.2563 51.2914 51.511 51.2235C52.0712 51.0367 52.5636 50.7481 52.9201 50.3916C53.1069 50.2048 53.3955 50.1878 53.5823 50.3746C53.769 50.5614 53.786 50.867 53.5993 51.0537C53.1239 51.5121 52.5127 51.8856 51.7996 52.1233C51.7487 52.1403 51.6977 52.1403 51.6468 52.1403ZM46.112 51.631C46.0611 51.631 45.9931 51.614 45.9422 51.597C45.3819 51.3763 44.7877 51.1046 44.1765 50.799C43.9388 50.6802 43.8539 50.4086 43.9728 50.1709C44.0916 49.9332 44.3802 49.8483 44.601 49.9671C45.1782 50.2558 45.7385 50.5104 46.2818 50.7142C46.5195 50.816 46.6553 51.0877 46.5534 51.3254C46.4855 51.5121 46.2987 51.631 46.112 51.631ZM42.7504 49.9162C42.6655 49.9162 42.5806 49.8992 42.4957 49.8483C41.9184 49.4578 41.3921 49.0503 40.9507 48.5919C40.7639 48.4052 40.7639 48.1166 40.9507 47.9298C41.1375 47.743 41.4431 47.743 41.6298 47.9298C42.0203 48.3373 42.4957 48.7108 43.005 49.0503C43.2257 49.1862 43.2937 49.4918 43.1409 49.7125C43.056 49.8483 42.9032 49.9162 42.7504 49.9162ZM49.5246 49.8483C49.3887 49.8483 49.2529 49.7974 49.168 49.6785C48.9982 49.4918 49.0152 49.1862 49.219 49.0164C49.7622 48.541 50.3055 48.1505 50.8149 47.8619C51.0356 47.7261 51.3242 47.8109 51.46 48.0317C51.5959 48.2524 51.511 48.541 51.2903 48.6768C50.8319 48.9485 50.3395 49.305 49.8302 49.7294C49.7453 49.8143 49.6264 49.8483 49.5246 49.8483ZM53.9897 49.5087C53.7351 49.5087 53.5313 49.305 53.5144 49.0503C53.5144 48.7617 53.3785 48.3882 52.8692 48.2184C52.8352 48.2184 52.8013 48.2014 52.7673 48.2014C52.5127 48.1675 52.3259 47.9298 52.3599 47.6751C52.3938 47.4035 52.6315 47.2337 52.9032 47.2677C52.9881 47.2846 53.0729 47.3016 53.1578 47.3356C53.9388 47.5902 54.4312 48.2184 54.4651 48.9994C54.4821 49.271 54.2784 49.4918 54.0237 49.5087C54.0067 49.5087 54.0067 49.5087 53.9897 49.5087ZM40.1527 47.2337C39.983 47.2337 39.8302 47.1488 39.7283 46.996C39.4057 46.4188 39.168 45.7906 38.9982 45.1285C38.9303 44.8738 39.1001 44.6191 39.3548 44.5512C39.6094 44.5003 39.8471 44.6531 39.915 44.9077C40.0509 45.485 40.2716 46.0283 40.5602 46.5376C40.6791 46.7583 40.6111 47.0469 40.3734 47.1828C40.3055 47.2167 40.2206 47.2337 40.1527 47.2337ZM39.2359 43.6004C38.3361 43.5156 38.9303 41.8178 38.9473 41.1726C38.9982 40.9179 39.2359 40.7482 39.4906 40.7991C39.7453 40.85 39.915 41.0877 39.8811 41.3424C39.7622 41.9536 39.7113 42.5478 39.7113 43.1081C39.7113 43.3797 39.5076 43.6004 39.2359 43.6004ZM39.8641 39.8993C39.8302 39.8993 39.7792 39.8993 39.7283 39.8823C39.4736 39.7974 39.3378 39.5427 39.4227 39.2881C39.6094 38.6938 39.8471 38.0826 40.1018 37.4714C40.2206 37.2338 40.4923 37.1319 40.73 37.2338C40.9677 37.3356 41.0865 37.6073 40.9677 37.8619C40.713 38.4392 40.4923 39.0164 40.3225 39.5767C40.2546 39.7804 40.0678 39.8993 39.8641 39.8993ZM41.3751 36.4358C41.2903 36.4358 41.2223 36.4188 41.1375 36.3849C40.9167 36.266 40.8319 35.9774 40.9507 35.7397C41.2393 35.1964 41.5619 34.6361 41.9184 34.0759C42.0543 33.8552 42.3429 33.7873 42.5636 33.9231C42.7843 34.0589 42.8522 34.3645 42.7164 34.5852C42.4108 35.0776 42.0882 35.6209 41.7826 36.1811C41.6977 36.3509 41.5279 36.4358 41.3751 36.4358ZM43.3616 33.227C43.2767 33.227 43.1748 33.193 43.0899 33.1421C42.8862 32.9893 42.8352 32.6837 42.9881 32.48C43.6502 31.5292 44.1425 30.9689 44.1595 30.935C44.3293 30.7482 44.6179 30.7143 44.8217 30.884C45.0254 31.0538 45.0424 31.3594 44.8726 31.5462C44.8726 31.5632 44.3972 32.1064 43.7521 33.0233C43.6502 33.1591 43.5144 33.227 43.3616 33.227Z" fill="#241726"/>
<path fill-rule="evenodd" clip-rule="evenodd" d="M162.767 182.479C162.428 182.479 162.105 182.462 161.8 182.445C161.171 182.377 161.273 181.443 161.867 181.494C162.445 181.545 163.039 181.545 163.684 181.494C163.922 181.477 164.159 181.664 164.193 181.936C164.21 182.19 164.007 182.428 163.752 182.445C163.412 182.462 163.09 182.479 162.767 182.479ZM165.569 182.139C165.365 182.139 165.178 182.004 165.127 181.8C165.059 181.545 165.195 181.29 165.45 181.206C166.044 181.053 166.587 180.832 167.08 180.543C167.3 180.408 167.589 180.492 167.725 180.713C167.861 180.934 167.776 181.223 167.555 181.358C166.995 181.681 166.367 181.953 165.704 182.122C165.654 182.139 165.62 182.139 165.569 182.139ZM159.983 182.105C159.932 182.105 159.898 182.105 159.847 182.088C159.219 181.919 158.591 181.664 158.013 181.358C157.776 181.24 157.691 180.968 157.81 180.73C157.929 180.492 158.217 180.408 158.438 180.526C158.964 180.798 159.524 181.019 160.102 181.189C160.356 181.256 160.509 181.511 160.424 181.766C160.373 181.97 160.187 182.105 159.983 182.105ZM156.655 180.391C156.536 180.391 156.435 180.357 156.35 180.272C155.857 179.881 155.382 179.423 154.94 178.897C154.771 178.71 154.788 178.404 154.991 178.234C155.178 178.065 155.484 178.082 155.654 178.285C156.061 178.761 156.485 179.185 156.944 179.542C157.148 179.712 157.182 180 157.012 180.204C156.927 180.323 156.791 180.391 156.655 180.391ZM168.794 180.255C168.676 180.255 168.557 180.221 168.472 180.119C168.285 179.949 168.268 179.644 168.455 179.457C168.845 179.049 169.185 178.557 169.474 178.031C169.592 177.793 169.881 177.708 170.102 177.827C170.339 177.963 170.424 178.251 170.305 178.472C169.983 179.083 169.592 179.627 169.134 180.102C169.049 180.204 168.913 180.255 168.794 180.255ZM154.176 177.538C154.024 177.538 153.871 177.47 153.786 177.318C153.446 176.774 153.141 176.197 152.869 175.586C152.767 175.348 152.869 175.077 153.107 174.975C153.345 174.856 153.633 174.975 153.735 175.212C153.99 175.773 154.278 176.316 154.584 176.825C154.72 177.046 154.652 177.335 154.431 177.47C154.346 177.521 154.261 177.538 154.176 177.538ZM170.577 176.961C170.526 176.961 170.492 176.961 170.441 176.961C170.187 176.893 170.051 176.622 170.119 176.367C170.272 175.807 170.356 175.212 170.407 174.601C170.424 174.347 170.662 174.143 170.917 174.16C171.171 174.177 171.375 174.414 171.341 174.669C171.307 175.348 171.188 175.993 171.019 176.622C170.968 176.825 170.781 176.961 170.577 176.961ZM152.648 174.075C152.445 174.075 152.258 173.939 152.207 173.735C152.173 173.599 152.19 173.396 152.275 173.277L152.648 173.566L153.107 173.481C153.175 173.735 153.022 173.99 152.767 174.058C152.733 174.075 152.682 174.075 152.648 174.075ZM170.849 173.226C170.611 173.226 170.407 173.039 170.373 172.802C170.356 172.53 170.322 172.275 170.272 172.021C170.068 171.987 169.881 171.936 169.677 171.885C169.423 171.834 169.27 171.579 169.321 171.324C169.389 171.07 169.643 170.917 169.898 170.968C169.949 170.985 170 171.002 170.051 171.002C169.983 170.764 170.136 170.51 170.39 170.442C170.645 170.374 170.9 170.51 170.968 170.764C171.002 170.9 171.036 171.036 171.069 171.172C171.273 171.189 171.477 171.206 171.681 171.223C171.935 171.24 172.139 171.443 172.122 171.715C172.105 171.97 171.918 172.173 171.63 172.156C171.511 172.156 171.375 172.156 171.256 172.139C171.273 172.326 171.307 172.513 171.324 172.7C171.341 172.954 171.154 173.192 170.9 173.226C170.883 173.226 170.866 173.226 170.849 173.226ZM173.531 172.055C173.311 172.055 173.107 171.885 173.073 171.664C173.022 171.392 173.192 171.155 173.463 171.121C174.041 171.019 174.618 170.849 175.178 170.628C175.738 170.391 176.095 171.29 175.518 171.511C174.907 171.749 174.261 171.936 173.616 172.038C173.582 172.055 173.565 172.055 173.531 172.055ZM167.996 171.307C167.929 171.307 167.861 171.29 167.81 171.274C167.182 171.002 166.604 170.696 166.078 170.34C165.552 170 166.095 169.202 166.587 169.542C167.08 169.881 167.623 170.17 168.183 170.408C168.421 170.51 168.523 170.781 168.421 171.019C168.353 171.206 168.183 171.307 167.996 171.307ZM177.012 170.662C176.859 170.662 176.723 170.594 176.621 170.459C176.485 170.238 176.536 169.949 176.757 169.796C177.097 169.576 177.419 169.321 177.725 169.049C177.878 168.931 178.013 168.795 178.149 168.676C178.336 168.489 178.642 168.489 178.828 168.676C178.998 168.863 178.998 169.168 178.811 169.338C178.659 169.491 178.506 169.627 178.353 169.779C178.013 170.068 177.64 170.34 177.283 170.594C177.199 170.645 177.114 170.662 177.012 170.662ZM169.847 169.61C169.66 169.61 169.508 169.508 169.423 169.338C169.134 168.778 168.811 168.285 168.438 167.878C168.268 167.691 168.285 167.386 168.489 167.216C168.676 167.046 168.981 167.046 169.151 167.25C169.575 167.725 169.949 168.285 170.255 168.914C170.373 169.151 170.289 169.44 170.051 169.559C169.983 169.593 169.915 169.61 169.847 169.61ZM164.89 169.202C164.771 169.202 164.635 169.151 164.533 169.049C163.922 168.353 163.599 167.691 163.599 167.114L164.075 167.08L164.533 167.114C164.533 167.454 164.788 167.912 165.246 168.404C165.416 168.608 165.399 168.897 165.212 169.083C165.11 169.151 165.008 169.202 164.89 169.202ZM179.677 168.031C179.592 168.031 179.508 167.997 179.423 167.946C179.202 167.81 179.151 167.504 179.287 167.301C179.609 166.791 179.881 166.265 180.085 165.705C180.187 165.467 180.458 165.331 180.696 165.433C180.951 165.518 181.069 165.79 180.985 166.044C180.747 166.656 180.441 167.267 180.068 167.81C179.983 167.946 179.83 168.031 179.677 168.031ZM167.3 166.893C167.232 166.893 167.165 166.876 167.114 166.842C166.587 166.605 166.01 166.537 165.501 166.571C165.263 166.588 165.025 166.384 164.991 166.129C164.974 165.875 165.178 165.637 165.433 165.62C165.552 165.62 165.671 165.62 165.789 165.62C166.384 165.62 166.961 165.739 167.504 165.993C167.742 166.112 167.844 166.384 167.725 166.622C167.657 166.791 167.487 166.893 167.3 166.893ZM181.019 164.516C180.985 164.516 180.968 164.516 180.934 164.516C180.679 164.482 180.509 164.228 180.543 163.973C180.628 163.464 180.662 162.937 180.662 162.411V162.173C180.662 161.919 180.866 161.698 181.12 161.698C181.375 161.715 181.596 161.902 181.613 162.156V162.411C181.613 162.988 181.562 163.566 181.477 164.126C181.443 164.364 181.239 164.516 181.019 164.516ZM180.951 160.764C180.713 160.764 180.526 160.594 180.475 160.374C180.373 159.78 180.221 159.185 180.034 158.608C179.949 158.353 180.085 158.099 180.339 158.014C180.577 157.929 180.849 158.065 180.934 158.319C181.137 158.948 181.29 159.576 181.409 160.204C181.46 160.459 181.29 160.713 181.036 160.747C181.002 160.764 180.968 160.764 180.951 160.764ZM179.779 157.182C179.592 157.182 179.423 157.08 179.338 156.91C179.219 156.639 179.066 156.367 178.913 156.112C178.625 156.231 178.336 156.35 178.047 156.435C177.793 156.52 177.538 156.384 177.453 156.146C177.368 155.892 177.504 155.62 177.759 155.552C177.98 155.467 178.2 155.382 178.421 155.297C178.302 155.094 178.37 154.822 178.557 154.686C178.777 154.533 179.066 154.584 179.219 154.805C179.236 154.839 179.253 154.856 179.27 154.89C179.321 154.873 179.355 154.839 179.389 154.822C179.626 154.686 179.915 154.771 180.034 155.009C180.17 155.229 180.085 155.518 179.847 155.654C179.83 155.654 179.796 155.671 179.762 155.688C179.915 155.96 180.068 156.231 180.204 156.503C180.305 156.74 180.204 157.029 179.983 157.131C179.915 157.165 179.847 157.182 179.779 157.182ZM175.467 156.876C174.974 156.876 174.516 156.825 174.075 156.724C173.82 156.673 173.667 156.418 173.718 156.163C173.769 155.909 174.024 155.756 174.278 155.807C174.822 155.926 175.399 155.96 176.01 155.909C176.621 155.841 176.706 156.808 176.095 156.842C175.874 156.876 175.671 156.876 175.467 156.876ZM172.479 155.96C172.377 155.96 172.258 155.926 172.173 155.858C171.494 155.297 171.137 154.584 171.188 153.82C171.222 153.566 171.443 153.379 171.698 153.396C171.969 153.413 172.156 153.634 172.139 153.905C172.139 154.381 172.36 154.788 172.784 155.128C172.971 155.28 173.005 155.586 172.835 155.79C172.75 155.909 172.614 155.96 172.479 155.96ZM181.205 154.669C181.053 154.669 180.917 154.601 180.832 154.482C180.662 154.279 180.713 153.973 180.917 153.82C181.375 153.464 181.85 153.056 182.292 152.615C182.479 152.445 182.784 152.445 182.954 152.632C183.141 152.819 183.141 153.107 182.954 153.294C182.479 153.752 181.986 154.194 181.494 154.567C181.409 154.635 181.307 154.669 181.205 154.669ZM177.64 154.075C177.521 154.075 177.402 154.024 177.3 153.922C176.859 153.464 176.401 153.09 175.942 152.819C175.721 152.683 175.654 152.394 175.789 152.173C175.925 151.936 176.214 151.868 176.435 152.004C176.961 152.326 177.487 152.751 177.98 153.277C178.166 153.464 178.166 153.769 177.98 153.939C177.878 154.024 177.759 154.075 177.64 154.075ZM172.648 152.785C172.513 152.785 172.36 152.734 172.275 152.598C172.122 152.394 172.156 152.089 172.377 151.936C172.92 151.528 173.548 151.325 174.227 151.325C174.312 151.325 174.38 151.325 174.448 151.325C174.72 151.342 174.907 151.562 174.89 151.834C174.873 152.089 174.635 152.275 174.397 152.275C174.329 152.258 174.278 152.275 174.227 152.258C173.752 152.258 173.328 152.411 172.937 152.7C172.852 152.768 172.75 152.785 172.648 152.785ZM183.905 152.004C183.803 152.004 183.701 151.97 183.616 151.919C183.412 151.749 183.378 151.477 183.531 151.274C183.973 150.747 184.329 150.272 184.635 149.797C184.788 149.576 185.076 149.508 185.297 149.661C185.518 149.797 185.569 150.102 185.433 150.323C185.093 150.815 184.72 151.325 184.295 151.834C184.21 151.953 184.058 152.004 183.905 152.004ZM185.959 148.88C185.891 148.88 185.823 148.863 185.755 148.846C185.518 148.727 185.416 148.438 185.535 148.218C185.806 147.657 186.01 147.08 186.163 146.52C186.231 146.265 186.485 146.112 186.74 146.197C186.995 146.265 187.148 146.52 187.08 146.774C186.91 147.386 186.672 147.997 186.384 148.608C186.316 148.778 186.146 148.88 185.959 148.88ZM186.927 145.263C186.927 145.263 186.91 145.263 186.893 145.263C186.638 145.246 186.435 145.026 186.451 144.754C186.485 144.16 186.468 143.566 186.367 142.971C186.316 142.717 186.502 142.479 186.757 142.445C187.012 142.394 187.249 142.564 187.3 142.836C187.402 143.481 187.436 144.143 187.402 144.822C187.385 145.06 187.182 145.263 186.927 145.263ZM186.333 141.562C186.146 141.562 185.976 141.443 185.891 141.257C185.687 140.713 185.416 140.17 185.093 139.644C184.957 139.423 185.025 139.134 185.246 138.999C185.467 138.863 185.755 138.931 185.891 139.151C186.248 139.729 186.553 140.323 186.774 140.917C186.876 141.155 186.757 141.426 186.502 141.528C186.451 141.545 186.401 141.562 186.333 141.562ZM184.38 138.337C184.244 138.337 184.109 138.286 184.024 138.184C183.328 137.369 182.75 136.927 182.75 136.927C182.53 136.758 182.496 136.469 182.648 136.265C182.818 136.061 183.107 136.011 183.311 136.18C183.345 136.197 183.973 136.673 184.737 137.556C184.907 137.759 184.89 138.065 184.686 138.235C184.601 138.303 184.499 138.337 184.38 138.337Z" fill="#241726"/>
</svg>
