<svg width="1366" height="768" viewBox="0 0 1366 768" fill="none" xmlns="http://www.w3.org/2000/svg">
<g clip-path="url(#clip0_234_282)">
<rect width="1366" height="768" fill="#01539D"/>
<path d="M424 122C424 287.685 289.685 422 124 422C-41.6854 422 -176 287.685 -176 122C-176 -43.6854 -41.6854 -178 124 -178C289.685 -178 424 -43.6854 424 122Z" fill="#9CEE7F"/>
<path d="M1591 622C1591 787.685 1456.69 922 1291 922C1125.31 922 991 787.685 991 622C991 456.315 1125.31 322 1291 322C1456.69 322 1591 456.315 1591 622Z" fill="#9CEE7F"/>
<circle cx="1291" cy="622" r="250" fill="#EEA47F"/>
<circle cx="124" cy="122" r="250" fill="#EEA47F"/>
</g>
<defs>
<clipPath id="clip0_234_282">
<rect width="1366" height="768" fill="white"/>
</clipPath>
</defs>
</svg>
