<svg width="1366" height="2500" viewBox="0 0 1366 2500" fill="none" xmlns="http://www.w3.org/2000/svg">
<g clip-path="url(#clip0_563_3)">
<mask id="mask0_563_3" style="mask-type:alpha" maskUnits="userSpaceOnUse" x="0" y="0" width="1366" height="2500">
<path d="M1366 0H0V2500H1366V0Z" fill="white"/>
</mask>
<g mask="url(#mask0_563_3)">
<path d="M1366 0H0V2500H1366V0Z" fill="#01539D"/>
<path d="M1570 2541.17C1570 2706.86 1435.69 2841.17 1270 2841.17C1104.31 2841.17 970 2706.86 970 2541.17C970 2375.48 1104.31 2241.17 1270 2241.17C1435.69 2241.17 1570 2375.48 1570 2541.17Z" fill="#9CEE7F"/>
<path d="M1520 2538.17C1520 2676.24 1408.07 2788.17 1270 2788.17C1131.93 2788.17 1020 2676.24 1020 2538.17C1020 2400.1 1131.93 2288.17 1270 2288.17C1408.07 2288.17 1520 2400.1 1520 2538.17Z" fill="#EEA47F"/>
<path d="M420 2047.02C420 2212.71 285.685 2347.02 120 2347.02C-45.6854 2347.02 -180 2212.71 -180 2047.02C-180 1881.33 -45.6854 1747.02 120 1747.02C285.685 1747.02 420 1881.33 420 2047.02Z" fill="#9CEE7F"/>
<path d="M370 2047.02C370 2185.09 258.071 2297.02 120 2297.02C-18.0712 2297.02 -130 2185.09 -130 2047.02C-130 1908.95 -18.0712 1797.02 120 1797.02C258.071 1797.02 370 1908.95 370 2047.02Z" fill="#EEA47F"/>
<path d="M1570 1542.17C1570 1707.86 1435.69 1842.17 1270 1842.17C1104.31 1842.17 970 1707.86 970 1542.17C970 1376.48 1104.31 1242.17 1270 1242.17C1435.69 1242.17 1570 1376.48 1570 1542.17Z" fill="#9CEE7F"/>
<path d="M1520 1539.17C1520 1677.24 1408.07 1789.17 1270 1789.17C1131.93 1789.17 1020 1677.24 1020 1539.17C1020 1401.1 1131.93 1289.17 1270 1289.17C1408.07 1289.17 1520 1401.1 1520 1539.17Z" fill="#EEA47F"/>
<path d="M420 1039.27C420 1204.96 285.685 1339.27 120 1339.27C-45.6854 1339.27 -180 1204.96 -180 1039.27C-180 873.576 -45.6854 739.266 120 739.266C285.685 739.266 420 873.576 420 1039.27Z" fill="#9CEE7F"/>
<path d="M370 1039.27C370 1177.34 258.071 1289.27 120 1289.27C-18.0712 1289.27 -130 1177.34 -130 1039.27C-130 901.196 -18.0712 789.266 120 789.266C258.071 789.266 370 901.196 370 1039.27Z" fill="#EEA47F"/>
<path d="M1569 536.453C1569 702.138 1434.69 836.453 1269 836.453C1103.31 836.453 969 702.138 969 536.453C969 370.768 1103.31 236.453 1269 236.453C1434.69 236.453 1569 370.768 1569 536.453Z" fill="#9CEE7F"/>
<path d="M1519 535.453C1519 673.524 1407.07 785.453 1269 785.453C1130.93 785.453 1019 673.524 1019 535.453C1019 397.382 1130.93 285.453 1269 285.453C1407.07 285.453 1519 397.382 1519 535.453Z" fill="#EEA47F"/>
<path d="M452 35.326C452 201.011 317.686 335.325 152 335.325C-13.6855 335.325 -148 201.011 -148 35.326C-148 -130.359 -13.6855 -264.675 152 -264.675C317.686 -264.675 452 -130.359 452 35.326Z" fill="#9CEE7F"/>
<path d="M402 35.3264C402 173.397 290.071 285.326 152 285.326C13.9287 285.326 -97.9999 173.397 -97.9999 35.3264C-97.9999 -102.745 13.9287 -214.674 152 -214.674C290.071 -214.674 402 -102.745 402 35.3264Z" fill="#EEA47F"/>
</g>
</g>
<defs>
<clipPath id="clip0_563_3">
<rect width="1366" height="2500" fill="white"/>
</clipPath>
</defs>
</svg>
