<svg width="1366" height="1536" viewBox="0 0 1366 1536" fill="none" xmlns="http://www.w3.org/2000/svg">
<g clip-path="url(#clip0_478_3)">
<rect width="1366" height="1536" fill="#01539D"/>
<path d="M1570 170C1570 335.685 1435.69 470 1270 470C1104.31 470 970 335.685 970 170C970 4.31457 1104.31 -130 1270 -130C1435.69 -130 1570 4.31457 1570 170Z" fill="#9CEE7F"/>
<path d="M1519 169C1519 307.071 1407.07 419 1269 419C1130.93 419 1019 307.071 1019 169C1019 30.9288 1130.93 -81 1269 -81C1407.07 -81 1519 30.9288 1519 169Z" fill="#EEA47F"/>
<path d="M420 664.003C420 829.138 285.909 963.007 120.499 963.007C-44.9106 963.007 -179.002 829.138 -179.002 664.003C-179.002 498.868 -44.9106 365 120.499 365C285.909 365 420 498.868 420 664.003Z" fill="#9CEE7F"/>
<path d="M368.086 668.987C368.086 806.599 256.344 918.156 118.502 918.156C-19.339 918.156 -131.082 806.599 -131.082 668.987C-131.082 531.374 -19.339 419.817 118.502 419.817C256.344 419.817 368.086 531.374 368.086 668.987Z" fill="#EEA47F"/>
<path d="M419.002 665.997C419.002 831.132 284.911 965 119.501 965C-45.9089 965 -180 831.132 -180 665.997C-180 500.862 -45.9089 366.993 119.501 366.993C284.911 366.993 419.002 500.862 419.002 665.997Z" fill="#9CEE7F"/>
<path d="M419.002 665.997C419.002 831.132 284.911 965 119.501 965C-45.9089 965 -180 831.132 -180 665.997C-180 500.862 -45.9089 366.993 119.501 366.993C284.911 366.993 419.002 500.862 419.002 665.997Z" fill="#9CEE7F"/>
<path d="M369.085 665.997C369.085 803.609 257.342 915.166 119.501 915.166C-18.3406 915.166 -130.083 803.609 -130.083 665.997C-130.083 528.384 -18.3406 416.827 119.501 416.827C257.342 416.827 369.085 528.384 369.085 665.997Z" fill="#EEA47F"/>
<path d="M1570 1160C1570 1325.69 1435.69 1460 1270 1460C1104.31 1460 970 1325.69 970 1160C970 994.315 1104.31 860 1270 860C1435.69 860 1570 994.315 1570 1160Z" fill="#9CEE7F"/>
<path d="M1520 1157C1520 1295.07 1408.07 1407 1270 1407C1131.93 1407 1020 1295.07 1020 1157C1020 1018.93 1131.93 907 1270 907C1408.07 907 1520 1018.93 1520 1157Z" fill="#EEA47F"/>
<path d="M420 1693C420 1858.69 285.685 1993 120 1993C-45.6854 1993 -180 1858.69 -180 1693C-180 1527.31 -45.6854 1393 120 1393C285.685 1393 420 1527.31 420 1693Z" fill="#9CEE7F"/>
<path d="M370 1693C370 1831.07 258.071 1943 120 1943C-18.0712 1943 -130 1831.07 -130 1693C-130 1554.93 -18.0712 1443 120 1443C258.071 1443 370 1554.93 370 1693Z" fill="#EEA47F"/>
</g>
<defs>
<clipPath id="clip0_478_3">
<rect width="1366" height="1536" fill="white"/>
</clipPath>
</defs>
</svg>
