<svg width="400" height="4300" viewBox="0 0 400 4300" fill="none" xmlns="http://www.w3.org/2000/svg">
<g clip-path="url(#clip0_603_167)">
<mask id="mask0_603_167" style="mask-type:alpha" maskUnits="userSpaceOnUse" x="0" y="0" width="400" height="4300">
<path d="M400 0H0V4300H400V0Z" fill="white"/>
</mask>
<g mask="url(#mask0_603_167)">
<path d="M400 0H0.000488281V4300H400V0Z" fill="#01539D"/>
<path d="M148.519 1869.55C148.519 1919.25 108.224 1959.55 58.5186 1959.55C8.81294 1959.55 -31.4814 1919.25 -31.4814 1869.55C-31.4814 1819.84 8.81294 1779.55 58.5186 1779.55C108.224 1779.55 148.519 1819.84 148.519 1869.55Z" fill="#9CEE7F"/>
<path d="M133.519 1869.55C133.519 1910.97 99.9404 1944.55 58.5191 1944.55C17.0977 1944.55 -16.481 1910.97 -16.481 1869.55C-16.481 1828.13 17.0977 1794.55 58.5191 1794.55C99.9404 1794.55 133.519 1828.13 133.519 1869.55Z" fill="#EEA47F"/>
<path d="M476.634 1677.05C476.634 1726.76 436.341 1767.05 386.634 1767.05C336.927 1767.05 296.634 1726.76 296.634 1677.05C296.634 1627.35 336.927 1587.05 386.634 1587.05C436.341 1587.05 476.634 1627.35 476.634 1677.05Z" fill="#9CEE7F"/>
<path d="M461.634 1676.15C461.634 1717.57 428.055 1751.15 386.634 1751.15C345.213 1751.15 311.634 1717.57 311.634 1676.15C311.634 1634.73 345.213 1601.15 386.634 1601.15C428.055 1601.15 461.634 1634.73 461.634 1676.15Z" fill="#EEA47F"/>
<path d="M476.634 2047.05C476.634 2096.76 436.341 2137.05 386.634 2137.05C336.927 2137.05 296.634 2096.76 296.634 2047.05C296.634 1997.35 336.927 1957.05 386.634 1957.05C436.341 1957.05 476.634 1997.35 476.634 2047.05Z" fill="#9CEE7F"/>
<path d="M461.634 2046.15C461.634 2087.57 428.055 2121.15 386.634 2121.15C345.213 2121.15 311.634 2087.57 311.634 2046.15C311.634 2004.73 345.213 1971.15 386.634 1971.15C428.055 1971.15 461.634 2004.73 461.634 2046.15Z" fill="#EEA47F"/>
<path d="M148.519 1496.35C148.519 1546.05 108.224 1586.35 58.5186 1586.35C8.81294 1586.35 -31.4814 1546.05 -31.4814 1496.35C-31.4814 1446.64 8.81294 1406.35 58.5186 1406.35C108.224 1406.35 148.519 1446.64 148.519 1496.35Z" fill="#9CEE7F"/>
<path d="M133.519 1496.35C133.519 1537.77 99.9404 1571.35 58.5191 1571.35C17.0977 1571.35 -16.481 1537.77 -16.481 1496.35C-16.481 1454.93 17.0977 1421.35 58.5191 1421.35C99.9404 1421.35 133.519 1454.93 133.519 1496.35Z" fill="#EEA47F"/>
<path d="M476.634 1309.97C476.634 1359.68 436.341 1399.97 386.634 1399.97C336.927 1399.97 296.634 1359.68 296.634 1309.97C296.634 1260.27 336.927 1219.97 386.634 1219.97C436.341 1219.97 476.634 1260.27 476.634 1309.97Z" fill="#9CEE7F"/>
<path d="M461.634 1309.07C461.634 1350.49 428.055 1384.07 386.634 1384.07C345.213 1384.07 311.634 1350.49 311.634 1309.07C311.634 1267.65 345.213 1234.07 386.634 1234.07C428.055 1234.07 461.634 1267.65 461.634 1309.07Z" fill="#EEA47F"/>
<path d="M148.519 1129.55C148.519 1179.25 108.224 1219.55 58.5186 1219.55C8.81294 1219.55 -31.4814 1179.25 -31.4814 1129.55C-31.4814 1079.84 8.81294 1039.55 58.5186 1039.55C108.224 1039.55 148.519 1079.84 148.519 1129.55Z" fill="#9CEE7F"/>
<path d="M133.519 1129.55C133.519 1170.97 99.9404 1204.55 58.5191 1204.55C17.0977 1204.55 -16.481 1170.97 -16.481 1129.55C-16.481 1088.13 17.0977 1054.55 58.5191 1054.55C99.9404 1054.55 133.519 1088.13 133.519 1129.55Z" fill="#EEA47F"/>
<path d="M476.634 942.052C476.634 991.759 436.341 1032.05 386.634 1032.05C336.927 1032.05 296.634 991.759 296.634 942.052C296.634 892.346 336.927 852.052 386.634 852.052C436.341 852.052 476.634 892.346 476.634 942.052Z" fill="#9CEE7F"/>
<path d="M461.634 941.151C461.634 982.572 428.055 1016.15 386.634 1016.15C345.213 1016.15 311.634 982.572 311.634 941.151C311.634 899.73 345.213 866.151 386.634 866.151C428.055 866.151 461.634 899.73 461.634 941.151Z" fill="#EEA47F"/>
<path d="M148.519 756.347C148.519 806.054 108.224 846.347 58.5186 846.347C8.81294 846.347 -31.4814 806.054 -31.4814 756.347C-31.4814 706.64 8.81294 666.347 58.5186 666.347C108.224 666.347 148.519 706.64 148.519 756.347Z" fill="#9CEE7F"/>
<path d="M133.519 756.347C133.519 797.768 99.9404 831.347 58.5191 831.347C17.0977 831.347 -16.481 797.768 -16.481 756.347C-16.481 714.926 17.0977 681.347 58.5191 681.347C99.9404 681.347 133.519 714.926 133.519 756.347Z" fill="#EEA47F"/>
<path d="M148.519 3316.55C148.519 3366.25 108.224 3406.55 58.5186 3406.55C8.81294 3406.55 -31.4814 3366.25 -31.4814 3316.55C-31.4814 3266.84 8.81294 3226.55 58.5186 3226.55C108.224 3226.55 148.519 3266.84 148.519 3316.55Z" fill="#9CEE7F"/>
<path d="M133.519 3316.55C133.519 3357.97 99.9404 3391.55 58.5191 3391.55C17.0977 3391.55 -16.481 3357.97 -16.481 3316.55C-16.481 3275.13 17.0977 3241.55 58.5191 3241.55C99.9404 3241.55 133.519 3275.13 133.519 3316.55Z" fill="#EEA47F"/>
<path d="M476.634 3134.05C476.634 3183.76 436.341 3224.05 386.634 3224.05C336.927 3224.05 296.634 3183.76 296.634 3134.05C296.634 3084.35 336.927 3044.05 386.634 3044.05C436.341 3044.05 476.634 3084.35 476.634 3134.05Z" fill="#9CEE7F"/>
<path d="M461.634 3133.15C461.634 3174.57 428.055 3208.15 386.634 3208.15C345.213 3208.15 311.634 3174.57 311.634 3133.15C311.634 3091.73 345.213 3058.15 386.634 3058.15C428.055 3058.15 461.634 3091.73 461.634 3133.15Z" fill="#EEA47F"/>
<path d="M148.519 2952.35C148.519 3002.05 108.224 3042.35 58.5186 3042.35C8.81294 3042.35 -31.4814 3002.05 -31.4814 2952.35C-31.4814 2902.64 8.81294 2862.35 58.5186 2862.35C108.224 2862.35 148.519 2902.64 148.519 2952.35Z" fill="#9CEE7F"/>
<path d="M133.519 2952.35C133.519 2993.77 99.9404 3027.35 58.5191 3027.35C17.0977 3027.35 -16.481 2993.77 -16.481 2952.35C-16.481 2910.93 17.0977 2877.35 58.5191 2877.35C99.9404 2877.35 133.519 2910.93 133.519 2952.35Z" fill="#EEA47F"/>
<path d="M476.634 2768.97C476.634 2818.68 436.341 2858.97 386.634 2858.97C336.927 2858.97 296.634 2818.68 296.634 2768.97C296.634 2719.27 336.927 2678.97 386.634 2678.97C436.341 2678.97 476.634 2719.27 476.634 2768.97Z" fill="#9CEE7F"/>
<path d="M461.634 2768.07C461.634 2809.49 428.055 2843.07 386.634 2843.07C345.213 2843.07 311.634 2809.49 311.634 2768.07C311.634 2726.65 345.213 2693.07 386.634 2693.07C428.055 2693.07 461.634 2726.65 461.634 2768.07Z" fill="#EEA47F"/>
<path d="M148.519 4042.55C148.519 4092.25 108.224 4132.55 58.5186 4132.55C8.81294 4132.55 -31.4814 4092.25 -31.4814 4042.55C-31.4814 3992.84 8.81294 3952.55 58.5186 3952.55C108.224 3952.55 148.519 3992.84 148.519 4042.55Z" fill="#9CEE7F"/>
<path d="M133.519 4042.55C133.519 4083.97 99.9404 4117.55 58.5191 4117.55C17.0977 4117.55 -16.481 4083.97 -16.481 4042.55C-16.481 4001.13 17.0977 3967.55 58.5191 3967.55C99.9404 3967.55 133.519 4001.13 133.519 4042.55Z" fill="#EEA47F"/>
<path d="M476.634 3860.05C476.634 3909.76 436.341 3950.05 386.634 3950.05C336.927 3950.05 296.634 3909.76 296.634 3860.05C296.634 3810.35 336.927 3770.05 386.634 3770.05C436.341 3770.05 476.634 3810.35 476.634 3860.05Z" fill="#9CEE7F"/>
<path d="M461.634 3859.15C461.634 3900.57 428.055 3934.15 386.634 3934.15C345.213 3934.15 311.634 3900.57 311.634 3859.15C311.634 3817.73 345.213 3784.15 386.634 3784.15C428.055 3784.15 461.634 3817.73 461.634 3859.15Z" fill="#EEA47F"/>
<path d="M476.634 4223.05C476.634 4272.76 436.341 4313.05 386.634 4313.05C336.927 4313.05 296.634 4272.76 296.634 4223.05C296.634 4173.35 336.927 4133.05 386.634 4133.05C436.341 4133.05 476.634 4173.35 476.634 4223.05Z" fill="#9CEE7F"/>
<path d="M461.634 4222.15C461.634 4263.57 428.055 4297.15 386.634 4297.15C345.213 4297.15 311.634 4263.57 311.634 4222.15C311.634 4180.73 345.213 4147.15 386.634 4147.15C428.055 4147.15 461.634 4180.73 461.634 4222.15Z" fill="#EEA47F"/>
<path d="M148.519 3678.35C148.519 3728.05 108.224 3768.35 58.5186 3768.35C8.81294 3768.35 -31.4814 3728.05 -31.4814 3678.35C-31.4814 3628.64 8.81294 3588.35 58.5186 3588.35C108.224 3588.35 148.519 3628.64 148.519 3678.35Z" fill="#9CEE7F"/>
<path d="M133.519 3678.35C133.519 3719.77 99.9404 3753.35 58.5191 3753.35C17.0977 3753.35 -16.481 3719.77 -16.481 3678.35C-16.481 3636.93 17.0977 3603.35 58.5191 3603.35C99.9404 3603.35 133.519 3636.93 133.519 3678.35Z" fill="#EEA47F"/>
<path d="M476.634 3494.97C476.634 3544.68 436.341 3584.97 386.634 3584.97C336.927 3584.97 296.634 3544.68 296.634 3494.97C296.634 3445.27 336.927 3404.97 386.634 3404.97C436.341 3404.97 476.634 3445.27 476.634 3494.97Z" fill="#9CEE7F"/>
<path d="M461.634 3494.07C461.634 3535.49 428.055 3569.07 386.634 3569.07C345.213 3569.07 311.634 3535.49 311.634 3494.07C311.634 3452.65 345.213 3419.07 386.634 3419.07C428.055 3419.07 461.634 3452.65 461.634 3494.07Z" fill="#EEA47F"/>
<path d="M148.519 2592.55C148.519 2642.25 108.224 2682.55 58.5186 2682.55C8.81294 2682.55 -31.4814 2642.25 -31.4814 2592.55C-31.4814 2542.84 8.81294 2502.55 58.5186 2502.55C108.224 2502.55 148.519 2542.84 148.519 2592.55Z" fill="#9CEE7F"/>
<path d="M133.519 2592.55C133.519 2633.97 99.9404 2667.55 58.5191 2667.55C17.0977 2667.55 -16.481 2633.97 -16.481 2592.55C-16.481 2551.13 17.0977 2517.55 58.5191 2517.55C99.9404 2517.55 133.519 2551.13 133.519 2592.55Z" fill="#EEA47F"/>
<path d="M476.634 2410.05C476.634 2459.76 436.341 2500.05 386.634 2500.05C336.927 2500.05 296.634 2459.76 296.634 2410.05C296.634 2360.35 336.927 2320.05 386.634 2320.05C436.341 2320.05 476.634 2360.35 476.634 2410.05Z" fill="#9CEE7F"/>
<path d="M461.634 2409.15C461.634 2450.57 428.055 2484.15 386.634 2484.15C345.213 2484.15 311.634 2450.57 311.634 2409.15C311.634 2367.73 345.213 2334.15 386.634 2334.15C428.055 2334.15 461.634 2367.73 461.634 2409.15Z" fill="#EEA47F"/>
<path d="M148.519 2230.35C148.519 2280.05 108.224 2320.35 58.5186 2320.35C8.81294 2320.35 -31.4814 2280.05 -31.4814 2230.35C-31.4814 2180.64 8.81294 2140.35 58.5186 2140.35C108.224 2140.35 148.519 2180.64 148.519 2230.35Z" fill="#9CEE7F"/>
<path d="M133.519 2230.35C133.519 2271.77 99.9404 2305.35 58.5191 2305.35C17.0977 2305.35 -16.481 2271.77 -16.481 2230.35C-16.481 2188.93 17.0977 2155.35 58.5191 2155.35C99.9404 2155.35 133.519 2188.93 133.519 2230.35Z" fill="#EEA47F"/>
<path d="M476.634 570.372C476.634 620.079 436.341 660.372 386.634 660.372C336.927 660.372 296.634 620.079 296.634 570.372C296.634 520.666 336.927 480.372 386.634 480.372C436.341 480.372 476.634 520.666 476.634 570.372Z" fill="#9CEE7F"/>
<path d="M461.634 569.472C461.634 610.893 428.055 644.472 386.634 644.472C345.213 644.472 311.634 610.893 311.634 569.472C311.634 528.051 345.213 494.472 386.634 494.472C428.055 494.472 461.634 528.051 461.634 569.472Z" fill="#EEA47F"/>
<path d="M148.519 395.777C148.519 445.484 108.224 485.777 58.5186 485.777C8.81294 485.777 -31.4814 445.484 -31.4814 395.777C-31.4814 346.07 8.81294 305.777 58.5186 305.777C108.224 305.777 148.519 346.07 148.519 395.777Z" fill="#9CEE7F"/>
<path d="M133.519 395.777C133.519 437.198 99.9404 470.777 58.5191 470.777C17.0977 470.777 -16.481 437.198 -16.481 395.777C-16.481 354.356 17.0977 320.777 58.5191 320.777C99.9404 320.777 133.519 354.356 133.519 395.777Z" fill="#EEA47F"/>
<path d="M476.341 207.3C476.341 257.005 436.048 297.3 386.341 297.3C336.634 297.3 296.341 257.005 296.341 207.3C296.341 157.594 336.634 117.3 386.341 117.3C436.048 117.3 476.341 157.594 476.341 207.3Z" fill="#9CEE7F"/>
<path d="M461.341 207C461.341 248.421 427.762 282 386.341 282C344.92 282 311.341 248.421 311.341 207C311.341 165.578 344.92 132 386.341 132C427.762 132 461.341 165.578 461.341 207Z" fill="#EEA47F"/>
<path d="M150.394 30.6C150.394 80.3056 110.099 120.6 60.3936 120.6C10.6879 120.6 -29.6064 80.3056 -29.6064 30.6C-29.6064 -19.1056 10.6879 -59.4001 60.3936 -59.4001C110.099 -59.4001 150.394 -19.1056 150.394 30.6Z" fill="#9CEE7F"/>
<path d="M135.394 30.6C135.394 72.0212 101.815 105.6 60.394 105.6C18.9726 105.6 -14.606 72.0212 -14.606 30.6C-14.606 -10.8215 18.9726 -44.4001 60.394 -44.4001C101.815 -44.4001 135.394 -10.8215 135.394 30.6Z" fill="#EEA47F"/>
</g>
</g>
<defs>
<clipPath id="clip0_603_167">
<rect width="400" height="4300" fill="white"/>
</clipPath>
</defs>
</svg>
