<svg width="640" height="4608" viewBox="0 0 640 4608" fill="none" xmlns="http://www.w3.org/2000/svg">
<rect width="640" height="4608" fill="#DDDDDD"/>
<g clip-path="url(#clip0_0_1)">
<rect width="640" height="4608" fill="#01539D"/>
<path d="M712 59.5349C712 136.598 649.424 199.07 572.233 199.07C495.042 199.07 432.466 136.598 432.466 59.5349C432.466 -17.5281 495.042 -80 572.233 -80C649.424 -80 712 -17.5281 712 59.5349Z" fill="#9CEE7F"/>
<path d="M687.774 61.8605C687.774 126.08 635.627 178.14 571.301 178.14C506.975 178.14 454.829 126.08 454.829 61.8605C454.829 -2.35867 506.975 -54.4186 571.301 -54.4186C635.627 -54.4186 687.774 -2.35867 687.774 61.8605Z" fill="#EEA47F"/>
<path d="M711.534 60.4651C711.534 137.528 648.958 200 571.767 200C494.576 200 432 137.528 432 60.4651C432 -16.5978 494.576 -79.0697 571.767 -79.0697C648.958 -79.0697 711.534 -16.5978 711.534 60.4651Z" fill="#9CEE7F"/>
<path d="M711.534 60.4651C711.534 137.528 648.958 200 571.767 200C494.576 200 432 137.528 432 60.4651C432 -16.5978 494.576 -79.0697 571.767 -79.0697C648.958 -79.0697 711.534 -16.5978 711.534 60.4651Z" fill="#9CEE7F"/>
<path d="M688.24 60.4652C688.24 124.684 636.093 176.744 571.767 176.744C507.441 176.744 455.294 124.684 455.294 60.4652C455.294 -3.75399 507.441 -55.8139 571.767 -55.8139C636.093 -55.8139 688.24 -3.75399 688.24 60.4652Z" fill="#EEA47F"/>
<path d="M712 575.535C712 652.598 649.424 715.07 572.233 715.07C495.042 715.07 432.466 652.598 432.466 575.535C432.466 498.472 495.042 436 572.233 436C649.424 436 712 498.472 712 575.535Z" fill="#9CEE7F"/>
<path d="M687.774 577.86C687.774 642.08 635.627 694.14 571.301 694.14C506.975 694.14 454.829 642.08 454.829 577.86C454.829 513.641 506.975 461.581 571.301 461.581C635.627 461.581 687.774 513.641 687.774 577.86Z" fill="#EEA47F"/>
<path d="M711.534 576.465C711.534 653.528 648.958 716 571.767 716C494.576 716 432 653.528 432 576.465C432 499.402 494.576 436.93 571.767 436.93C648.958 436.93 711.534 499.402 711.534 576.465Z" fill="#9CEE7F"/>
<path d="M711.534 576.465C711.534 653.528 648.958 716 571.767 716C494.576 716 432 653.528 432 576.465C432 499.402 494.576 436.93 571.767 436.93C648.958 436.93 711.534 499.402 711.534 576.465Z" fill="#9CEE7F"/>
<path d="M688.24 576.465C688.24 640.684 636.093 692.744 571.767 692.744C507.441 692.744 455.294 640.684 455.294 576.465C455.294 512.246 507.441 460.186 571.767 460.186C636.093 460.186 688.24 512.246 688.24 576.465Z" fill="#EEA47F"/>
<path d="M711 1091.53C711 1168.6 648.424 1231.07 571.233 1231.07C494.042 1231.07 431.466 1168.6 431.466 1091.53C431.466 1014.47 494.042 952 571.233 952C648.424 952 711 1014.47 711 1091.53Z" fill="#9CEE7F"/>
<path d="M686.774 1093.86C686.774 1158.08 634.627 1210.14 570.301 1210.14C505.975 1210.14 453.829 1158.08 453.829 1093.86C453.829 1029.64 505.975 977.581 570.301 977.581C634.627 977.581 686.774 1029.64 686.774 1093.86Z" fill="#EEA47F"/>
<path d="M710.534 1092.47C710.534 1169.53 647.958 1232 570.767 1232C493.576 1232 431 1169.53 431 1092.47C431 1015.4 493.576 952.93 570.767 952.93C647.958 952.93 710.534 1015.4 710.534 1092.47Z" fill="#9CEE7F"/>
<path d="M710.534 1092.47C710.534 1169.53 647.958 1232 570.767 1232C493.576 1232 431 1169.53 431 1092.47C431 1015.4 493.576 952.93 570.767 952.93C647.958 952.93 710.534 1015.4 710.534 1092.47Z" fill="#9CEE7F"/>
<path d="M687.24 1092.47C687.24 1156.68 635.093 1208.74 570.767 1208.74C506.441 1208.74 454.294 1156.68 454.294 1092.47C454.294 1028.25 506.441 976.186 570.767 976.186C635.093 976.186 687.24 1028.25 687.24 1092.47Z" fill="#EEA47F"/>
<path d="M711 1607.53C711 1684.6 648.424 1747.07 571.233 1747.07C494.042 1747.07 431.466 1684.6 431.466 1607.53C431.466 1530.47 494.042 1468 571.233 1468C648.424 1468 711 1530.47 711 1607.53Z" fill="#9CEE7F"/>
<path d="M686.774 1609.86C686.774 1674.08 634.627 1726.14 570.301 1726.14C505.975 1726.14 453.829 1674.08 453.829 1609.86C453.829 1545.64 505.975 1493.58 570.301 1493.58C634.627 1493.58 686.774 1545.64 686.774 1609.86Z" fill="#EEA47F"/>
<path d="M710.534 1608.47C710.534 1685.53 647.958 1748 570.767 1748C493.576 1748 431 1685.53 431 1608.47C431 1531.4 493.576 1468.93 570.767 1468.93C647.958 1468.93 710.534 1531.4 710.534 1608.47Z" fill="#9CEE7F"/>
<path d="M710.534 1608.47C710.534 1685.53 647.958 1748 570.767 1748C493.576 1748 431 1685.53 431 1608.47C431 1531.4 493.576 1468.93 570.767 1468.93C647.958 1468.93 710.534 1531.4 710.534 1608.47Z" fill="#9CEE7F"/>
<path d="M687.24 1608.47C687.24 1672.68 635.093 1724.74 570.767 1724.74C506.441 1724.74 454.294 1672.68 454.294 1608.47C454.294 1544.25 506.441 1492.19 570.767 1492.19C635.093 1492.19 687.24 1544.25 687.24 1608.47Z" fill="#EEA47F"/>
<path d="M710 2123.53C710 2200.6 647.424 2263.07 570.233 2263.07C493.042 2263.07 430.466 2200.6 430.466 2123.53C430.466 2046.47 493.042 1984 570.233 1984C647.424 1984 710 2046.47 710 2123.53Z" fill="#9CEE7F"/>
<path d="M685.774 2125.86C685.774 2190.08 633.627 2242.14 569.301 2242.14C504.975 2242.14 452.829 2190.08 452.829 2125.86C452.829 2061.64 504.975 2009.58 569.301 2009.58C633.627 2009.58 685.774 2061.64 685.774 2125.86Z" fill="#EEA47F"/>
<path d="M709.534 2124.47C709.534 2201.53 646.958 2264 569.767 2264C492.576 2264 430 2201.53 430 2124.47C430 2047.4 492.576 1984.93 569.767 1984.93C646.958 1984.93 709.534 2047.4 709.534 2124.47Z" fill="#9CEE7F"/>
<path d="M709.534 2124.47C709.534 2201.53 646.958 2264 569.767 2264C492.576 2264 430 2201.53 430 2124.47C430 2047.4 492.576 1984.93 569.767 1984.93C646.958 1984.93 709.534 2047.4 709.534 2124.47Z" fill="#9CEE7F"/>
<path d="M686.24 2124.47C686.24 2188.68 634.093 2240.74 569.767 2240.74C505.441 2240.74 453.294 2188.68 453.294 2124.47C453.294 2060.25 505.441 2008.19 569.767 2008.19C634.093 2008.19 686.24 2060.25 686.24 2124.47Z" fill="#EEA47F"/>
<path d="M710 2639.53C710 2716.6 647.424 2779.07 570.233 2779.07C493.042 2779.07 430.466 2716.6 430.466 2639.53C430.466 2562.47 493.042 2500 570.233 2500C647.424 2500 710 2562.47 710 2639.53Z" fill="#9CEE7F"/>
<path d="M685.774 2641.86C685.774 2706.08 633.627 2758.14 569.301 2758.14C504.975 2758.14 452.829 2706.08 452.829 2641.86C452.829 2577.64 504.975 2525.58 569.301 2525.58C633.627 2525.58 685.774 2577.64 685.774 2641.86Z" fill="#EEA47F"/>
<path d="M709.534 2640.47C709.534 2717.53 646.958 2780 569.767 2780C492.576 2780 430 2717.53 430 2640.47C430 2563.4 492.576 2500.93 569.767 2500.93C646.958 2500.93 709.534 2563.4 709.534 2640.47Z" fill="#9CEE7F"/>
<path d="M709.534 2640.47C709.534 2717.53 646.958 2780 569.767 2780C492.576 2780 430 2717.53 430 2640.47C430 2563.4 492.576 2500.93 569.767 2500.93C646.958 2500.93 709.534 2563.4 709.534 2640.47Z" fill="#9CEE7F"/>
<path d="M686.24 2640.47C686.24 2704.68 634.093 2756.74 569.767 2756.74C505.441 2756.74 453.294 2704.68 453.294 2640.47C453.294 2576.25 505.441 2524.19 569.767 2524.19C634.093 2524.19 686.24 2576.25 686.24 2640.47Z" fill="#EEA47F"/>
<path d="M710 3155.53C710 3232.6 647.424 3295.07 570.233 3295.07C493.042 3295.07 430.466 3232.6 430.466 3155.53C430.466 3078.47 493.042 3016 570.233 3016C647.424 3016 710 3078.47 710 3155.53Z" fill="#9CEE7F"/>
<path d="M685.774 3157.86C685.774 3222.08 633.627 3274.14 569.301 3274.14C504.975 3274.14 452.829 3222.08 452.829 3157.86C452.829 3093.64 504.975 3041.58 569.301 3041.58C633.627 3041.58 685.774 3093.64 685.774 3157.86Z" fill="#EEA47F"/>
<path d="M709.534 3156.47C709.534 3233.53 646.958 3296 569.767 3296C492.576 3296 430 3233.53 430 3156.47C430 3079.4 492.576 3016.93 569.767 3016.93C646.958 3016.93 709.534 3079.4 709.534 3156.47Z" fill="#9CEE7F"/>
<path d="M709.534 3156.47C709.534 3233.53 646.958 3296 569.767 3296C492.576 3296 430 3233.53 430 3156.47C430 3079.4 492.576 3016.93 569.767 3016.93C646.958 3016.93 709.534 3079.4 709.534 3156.47Z" fill="#9CEE7F"/>
<path d="M686.24 3156.47C686.24 3220.68 634.093 3272.74 569.767 3272.74C505.441 3272.74 453.294 3220.68 453.294 3156.47C453.294 3092.25 505.441 3040.19 569.767 3040.19C634.093 3040.19 686.24 3092.25 686.24 3156.47Z" fill="#EEA47F"/>
<path d="M710 3671.53C710 3748.6 647.424 3811.07 570.233 3811.07C493.042 3811.07 430.466 3748.6 430.466 3671.53C430.466 3594.47 493.042 3532 570.233 3532C647.424 3532 710 3594.47 710 3671.53Z" fill="#9CEE7F"/>
<path d="M685.774 3673.86C685.774 3738.08 633.627 3790.14 569.301 3790.14C504.975 3790.14 452.829 3738.08 452.829 3673.86C452.829 3609.64 504.975 3557.58 569.301 3557.58C633.627 3557.58 685.774 3609.64 685.774 3673.86Z" fill="#EEA47F"/>
<path d="M709.534 3672.47C709.534 3749.53 646.958 3812 569.767 3812C492.576 3812 430 3749.53 430 3672.47C430 3595.4 492.576 3532.93 569.767 3532.93C646.958 3532.93 709.534 3595.4 709.534 3672.47Z" fill="#9CEE7F"/>
<path d="M709.534 3672.47C709.534 3749.53 646.958 3812 569.767 3812C492.576 3812 430 3749.53 430 3672.47C430 3595.4 492.576 3532.93 569.767 3532.93C646.958 3532.93 709.534 3595.4 709.534 3672.47Z" fill="#9CEE7F"/>
<path d="M686.24 3672.47C686.24 3736.68 634.093 3788.74 569.767 3788.74C505.441 3788.74 453.294 3736.68 453.294 3672.47C453.294 3608.25 505.441 3556.19 569.767 3556.19C634.093 3556.19 686.24 3608.25 686.24 3672.47Z" fill="#EEA47F"/>
<path d="M710 4187.53C710 4264.6 647.424 4327.07 570.233 4327.07C493.042 4327.07 430.466 4264.6 430.466 4187.53C430.466 4110.47 493.042 4048 570.233 4048C647.424 4048 710 4110.47 710 4187.53Z" fill="#9CEE7F"/>
<path d="M685.774 4189.86C685.774 4254.08 633.627 4306.14 569.301 4306.14C504.975 4306.14 452.829 4254.08 452.829 4189.86C452.829 4125.64 504.975 4073.58 569.301 4073.58C633.627 4073.58 685.774 4125.64 685.774 4189.86Z" fill="#EEA47F"/>
<path d="M709.534 4188.47C709.534 4265.53 646.958 4328 569.767 4328C492.576 4328 430 4265.53 430 4188.47C430 4111.4 492.576 4048.93 569.767 4048.93C646.958 4048.93 709.534 4111.4 709.534 4188.47Z" fill="#9CEE7F"/>
<path d="M709.534 4188.47C709.534 4265.53 646.958 4328 569.767 4328C492.576 4328 430 4265.53 430 4188.47C430 4111.4 492.576 4048.93 569.767 4048.93C646.958 4048.93 709.534 4111.4 709.534 4188.47Z" fill="#9CEE7F"/>
<path d="M686.24 4188.47C686.24 4252.68 634.093 4304.74 569.767 4304.74C505.441 4304.74 453.294 4252.68 453.294 4188.47C453.294 4124.25 505.441 4072.19 569.767 4072.19C634.093 4072.19 686.24 4124.25 686.24 4188.47Z" fill="#EEA47F"/>
<path d="M710 4703.53C710 4780.6 647.424 4843.07 570.233 4843.07C493.042 4843.07 430.466 4780.6 430.466 4703.53C430.466 4626.47 493.042 4564 570.233 4564C647.424 4564 710 4626.47 710 4703.53Z" fill="#9CEE7F"/>
<path d="M685.774 4705.86C685.774 4770.08 633.627 4822.14 569.301 4822.14C504.975 4822.14 452.829 4770.08 452.829 4705.86C452.829 4641.64 504.975 4589.58 569.301 4589.58C633.627 4589.58 685.774 4641.64 685.774 4705.86Z" fill="#EEA47F"/>
<path d="M709.534 4704.47C709.534 4781.53 646.958 4844 569.767 4844C492.576 4844 430 4781.53 430 4704.47C430 4627.4 492.576 4564.93 569.767 4564.93C646.958 4564.93 709.534 4627.4 709.534 4704.47Z" fill="#9CEE7F"/>
<path d="M709.534 4704.47C709.534 4781.53 646.958 4844 569.767 4844C492.576 4844 430 4781.53 430 4704.47C430 4627.4 492.576 4564.93 569.767 4564.93C646.958 4564.93 709.534 4627.4 709.534 4704.47Z" fill="#9CEE7F"/>
<path d="M686.24 4704.47C686.24 4768.68 634.093 4820.74 569.767 4820.74C505.441 4820.74 453.294 4768.68 453.294 4704.47C453.294 4640.25 505.441 4588.19 569.767 4588.19C634.093 4588.19 686.24 4640.25 686.24 4704.47Z" fill="#EEA47F"/>
<path d="M215 317.535C215 394.598 152.424 457.07 75.2329 457.07C-1.95827 457.07 -64.5341 394.598 -64.5341 317.535C-64.5341 240.472 -1.95827 178 75.2329 178C152.424 178 215 240.472 215 317.535Z" fill="#9CEE7F"/>
<path d="M190.774 319.86C190.774 384.08 138.627 436.14 74.3012 436.14C9.97515 436.14 -42.1714 384.08 -42.1714 319.86C-42.1714 255.641 9.97515 203.581 74.3012 203.581C138.627 203.581 190.774 255.641 190.774 319.86Z" fill="#EEA47F"/>
<path d="M214.534 318.465C214.534 395.528 151.958 458 74.7671 458C-2.42416 458 -65 395.528 -65 318.465C-65 241.402 -2.42416 178.93 74.7671 178.93C151.958 178.93 214.534 241.402 214.534 318.465Z" fill="#9CEE7F"/>
<path d="M214.534 318.465C214.534 395.528 151.958 458 74.7671 458C-2.42416 458 -65 395.528 -65 318.465C-65 241.402 -2.42416 178.93 74.7671 178.93C151.958 178.93 214.534 241.402 214.534 318.465Z" fill="#9CEE7F"/>
<path d="M191.24 318.465C191.24 382.684 139.093 434.744 74.767 434.744C10.441 434.744 -41.7055 382.684 -41.7055 318.465C-41.7055 254.246 10.441 202.186 74.767 202.186C139.093 202.186 191.24 254.246 191.24 318.465Z" fill="#EEA47F"/>
<path d="M215 833.535C215 910.598 152.424 973.07 75.2329 973.07C-1.95827 973.07 -64.5341 910.598 -64.5341 833.535C-64.5341 756.472 -1.95827 694 75.2329 694C152.424 694 215 756.472 215 833.535Z" fill="#9CEE7F"/>
<path d="M190.774 835.86C190.774 900.08 138.627 952.14 74.3012 952.14C9.97515 952.14 -42.1714 900.08 -42.1714 835.86C-42.1714 771.641 9.97515 719.581 74.3012 719.581C138.627 719.581 190.774 771.641 190.774 835.86Z" fill="#EEA47F"/>
<path d="M214.534 834.465C214.534 911.528 151.958 974 74.7671 974C-2.42416 974 -65 911.528 -65 834.465C-65 757.402 -2.42416 694.93 74.7671 694.93C151.958 694.93 214.534 757.402 214.534 834.465Z" fill="#9CEE7F"/>
<path d="M214.534 834.465C214.534 911.528 151.958 974 74.7671 974C-2.42416 974 -65 911.528 -65 834.465C-65 757.402 -2.42416 694.93 74.7671 694.93C151.958 694.93 214.534 757.402 214.534 834.465Z" fill="#9CEE7F"/>
<path d="M191.24 834.465C191.24 898.684 139.093 950.744 74.767 950.744C10.441 950.744 -41.7055 898.684 -41.7055 834.465C-41.7055 770.246 10.441 718.186 74.767 718.186C139.093 718.186 191.24 770.246 191.24 834.465Z" fill="#EEA47F"/>
<path d="M191 1349.53C191 1426.6 128.424 1489.07 51.2329 1489.07C-25.9583 1489.07 -88.5341 1426.6 -88.5341 1349.53C-88.5341 1272.47 -25.9583 1210 51.2329 1210C128.424 1210 191 1272.47 191 1349.53Z" fill="#9CEE7F"/>
<path d="M166.774 1351.86C166.774 1416.08 114.627 1468.14 50.3012 1468.14C-14.0249 1468.14 -66.1714 1416.08 -66.1714 1351.86C-66.1714 1287.64 -14.0249 1235.58 50.3012 1235.58C114.627 1235.58 166.774 1287.64 166.774 1351.86Z" fill="#EEA47F"/>
<path d="M190.534 1350.47C190.534 1427.53 127.958 1490 50.7671 1490C-26.4242 1490 -89 1427.53 -89 1350.47C-89 1273.4 -26.4242 1210.93 50.7671 1210.93C127.958 1210.93 190.534 1273.4 190.534 1350.47Z" fill="#9CEE7F"/>
<path d="M190.534 1350.47C190.534 1427.53 127.958 1490 50.7671 1490C-26.4242 1490 -89 1427.53 -89 1350.47C-89 1273.4 -26.4242 1210.93 50.7671 1210.93C127.958 1210.93 190.534 1273.4 190.534 1350.47Z" fill="#9CEE7F"/>
<path d="M167.24 1350.47C167.24 1414.68 115.093 1466.74 50.767 1466.74C-13.559 1466.74 -65.7055 1414.68 -65.7055 1350.47C-65.7055 1286.25 -13.559 1234.19 50.767 1234.19C115.093 1234.19 167.24 1286.25 167.24 1350.47Z" fill="#EEA47F"/>
<path d="M215 1865.53C215 1942.6 152.424 2005.07 75.2329 2005.07C-1.95827 2005.07 -64.5341 1942.6 -64.5341 1865.53C-64.5341 1788.47 -1.95827 1726 75.2329 1726C152.424 1726 215 1788.47 215 1865.53Z" fill="#9CEE7F"/>
<path d="M190.774 1867.86C190.774 1932.08 138.627 1984.14 74.3012 1984.14C9.97515 1984.14 -42.1714 1932.08 -42.1714 1867.86C-42.1714 1803.64 9.97515 1751.58 74.3012 1751.58C138.627 1751.58 190.774 1803.64 190.774 1867.86Z" fill="#EEA47F"/>
<path d="M214.534 1866.47C214.534 1943.53 151.958 2006 74.7671 2006C-2.42416 2006 -65 1943.53 -65 1866.47C-65 1789.4 -2.42416 1726.93 74.7671 1726.93C151.958 1726.93 214.534 1789.4 214.534 1866.47Z" fill="#9CEE7F"/>
<path d="M214.534 1866.47C214.534 1943.53 151.958 2006 74.7671 2006C-2.42416 2006 -65 1943.53 -65 1866.47C-65 1789.4 -2.42416 1726.93 74.7671 1726.93C151.958 1726.93 214.534 1789.4 214.534 1866.47Z" fill="#9CEE7F"/>
<path d="M191.24 1866.47C191.24 1930.68 139.093 1982.74 74.767 1982.74C10.441 1982.74 -41.7055 1930.68 -41.7055 1866.47C-41.7055 1802.25 10.441 1750.19 74.767 1750.19C139.093 1750.19 191.24 1802.25 191.24 1866.47Z" fill="#EEA47F"/>
<path d="M215 2380.53C215 2457.6 152.424 2520.07 75.2329 2520.07C-1.95827 2520.07 -64.5341 2457.6 -64.5341 2380.53C-64.5341 2303.47 -1.95827 2241 75.2329 2241C152.424 2241 215 2303.47 215 2380.53Z" fill="#9CEE7F"/>
<path d="M190.774 2382.86C190.774 2447.08 138.627 2499.14 74.3012 2499.14C9.97515 2499.14 -42.1714 2447.08 -42.1714 2382.86C-42.1714 2318.64 9.97515 2266.58 74.3012 2266.58C138.627 2266.58 190.774 2318.64 190.774 2382.86Z" fill="#EEA47F"/>
<path d="M214.534 2381.47C214.534 2458.53 151.958 2521 74.7671 2521C-2.42416 2521 -65 2458.53 -65 2381.47C-65 2304.4 -2.42416 2241.93 74.7671 2241.93C151.958 2241.93 214.534 2304.4 214.534 2381.47Z" fill="#9CEE7F"/>
<path d="M214.534 2381.47C214.534 2458.53 151.958 2521 74.7671 2521C-2.42416 2521 -65 2458.53 -65 2381.47C-65 2304.4 -2.42416 2241.93 74.7671 2241.93C151.958 2241.93 214.534 2304.4 214.534 2381.47Z" fill="#9CEE7F"/>
<path d="M191.24 2381.47C191.24 2445.68 139.093 2497.74 74.767 2497.74C10.441 2497.74 -41.7055 2445.68 -41.7055 2381.47C-41.7055 2317.25 10.441 2265.19 74.767 2265.19C139.093 2265.19 191.24 2317.25 191.24 2381.47Z" fill="#EEA47F"/>
<path d="M215 2895.53C215 2972.6 152.424 3035.07 75.2329 3035.07C-1.95827 3035.07 -64.5341 2972.6 -64.5341 2895.53C-64.5341 2818.47 -1.95827 2756 75.2329 2756C152.424 2756 215 2818.47 215 2895.53Z" fill="#9CEE7F"/>
<path d="M190.774 2897.86C190.774 2962.08 138.627 3014.14 74.3012 3014.14C9.97515 3014.14 -42.1714 2962.08 -42.1714 2897.86C-42.1714 2833.64 9.97515 2781.58 74.3012 2781.58C138.627 2781.58 190.774 2833.64 190.774 2897.86Z" fill="#EEA47F"/>
<path d="M214.534 2896.47C214.534 2973.53 151.958 3036 74.7671 3036C-2.42416 3036 -65 2973.53 -65 2896.47C-65 2819.4 -2.42416 2756.93 74.7671 2756.93C151.958 2756.93 214.534 2819.4 214.534 2896.47Z" fill="#9CEE7F"/>
<path d="M214.534 2896.47C214.534 2973.53 151.958 3036 74.7671 3036C-2.42416 3036 -65 2973.53 -65 2896.47C-65 2819.4 -2.42416 2756.93 74.7671 2756.93C151.958 2756.93 214.534 2819.4 214.534 2896.47Z" fill="#9CEE7F"/>
<path d="M191.24 2896.47C191.24 2960.68 139.093 3012.74 74.767 3012.74C10.441 3012.74 -41.7055 2960.68 -41.7055 2896.47C-41.7055 2832.25 10.441 2780.19 74.767 2780.19C139.093 2780.19 191.24 2832.25 191.24 2896.47Z" fill="#EEA47F"/>
<path d="M215 3410.53C215 3487.6 152.424 3550.07 75.2329 3550.07C-1.95827 3550.07 -64.5341 3487.6 -64.5341 3410.53C-64.5341 3333.47 -1.95827 3271 75.2329 3271C152.424 3271 215 3333.47 215 3410.53Z" fill="#9CEE7F"/>
<path d="M190.774 3412.86C190.774 3477.08 138.627 3529.14 74.3012 3529.14C9.97515 3529.14 -42.1714 3477.08 -42.1714 3412.86C-42.1714 3348.64 9.97515 3296.58 74.3012 3296.58C138.627 3296.58 190.774 3348.64 190.774 3412.86Z" fill="#EEA47F"/>
<path d="M214.534 3411.47C214.534 3488.53 151.958 3551 74.7671 3551C-2.42416 3551 -65 3488.53 -65 3411.47C-65 3334.4 -2.42416 3271.93 74.7671 3271.93C151.958 3271.93 214.534 3334.4 214.534 3411.47Z" fill="#9CEE7F"/>
<path d="M214.534 3411.47C214.534 3488.53 151.958 3551 74.7671 3551C-2.42416 3551 -65 3488.53 -65 3411.47C-65 3334.4 -2.42416 3271.93 74.7671 3271.93C151.958 3271.93 214.534 3334.4 214.534 3411.47Z" fill="#9CEE7F"/>
<path d="M191.24 3411.47C191.24 3475.68 139.093 3527.74 74.767 3527.74C10.441 3527.74 -41.7055 3475.68 -41.7055 3411.47C-41.7055 3347.25 10.441 3295.19 74.767 3295.19C139.093 3295.19 191.24 3347.25 191.24 3411.47Z" fill="#EEA47F"/>
<path d="M215 3925.53C215 4002.6 152.424 4065.07 75.2329 4065.07C-1.95827 4065.07 -64.5341 4002.6 -64.5341 3925.53C-64.5341 3848.47 -1.95827 3786 75.2329 3786C152.424 3786 215 3848.47 215 3925.53Z" fill="#9CEE7F"/>
<path d="M190.774 3927.86C190.774 3992.08 138.627 4044.14 74.3012 4044.14C9.97515 4044.14 -42.1714 3992.08 -42.1714 3927.86C-42.1714 3863.64 9.97515 3811.58 74.3012 3811.58C138.627 3811.58 190.774 3863.64 190.774 3927.86Z" fill="#EEA47F"/>
<path d="M214.534 3926.47C214.534 4003.53 151.958 4066 74.7671 4066C-2.42416 4066 -65 4003.53 -65 3926.47C-65 3849.4 -2.42416 3786.93 74.7671 3786.93C151.958 3786.93 214.534 3849.4 214.534 3926.47Z" fill="#9CEE7F"/>
<path d="M214.534 3926.47C214.534 4003.53 151.958 4066 74.7671 4066C-2.42416 4066 -65 4003.53 -65 3926.47C-65 3849.4 -2.42416 3786.93 74.7671 3786.93C151.958 3786.93 214.534 3849.4 214.534 3926.47Z" fill="#9CEE7F"/>
<path d="M191.24 3926.47C191.24 3990.68 139.093 4042.74 74.767 4042.74C10.441 4042.74 -41.7055 3990.68 -41.7055 3926.47C-41.7055 3862.25 10.441 3810.19 74.767 3810.19C139.093 3810.19 191.24 3862.25 191.24 3926.47Z" fill="#EEA47F"/>
<path d="M215 4440.53C215 4517.6 152.424 4580.07 75.2329 4580.07C-1.95827 4580.07 -64.5341 4517.6 -64.5341 4440.53C-64.5341 4363.47 -1.95827 4301 75.2329 4301C152.424 4301 215 4363.47 215 4440.53Z" fill="#9CEE7F"/>
<path d="M190.774 4442.86C190.774 4507.08 138.627 4559.14 74.3012 4559.14C9.97515 4559.14 -42.1714 4507.08 -42.1714 4442.86C-42.1714 4378.64 9.97515 4326.58 74.3012 4326.58C138.627 4326.58 190.774 4378.64 190.774 4442.86Z" fill="#EEA47F"/>
<path d="M214.534 4441.47C214.534 4518.53 151.958 4581 74.7671 4581C-2.42416 4581 -65 4518.53 -65 4441.47C-65 4364.4 -2.42416 4301.93 74.7671 4301.93C151.958 4301.93 214.534 4364.4 214.534 4441.47Z" fill="#9CEE7F"/>
<path d="M214.534 4441.47C214.534 4518.53 151.958 4581 74.7671 4581C-2.42416 4581 -65 4518.53 -65 4441.47C-65 4364.4 -2.42416 4301.93 74.7671 4301.93C151.958 4301.93 214.534 4364.4 214.534 4441.47Z" fill="#9CEE7F"/>
<path d="M191.24 4441.47C191.24 4505.68 139.093 4557.74 74.767 4557.74C10.441 4557.74 -41.7055 4505.68 -41.7055 4441.47C-41.7055 4377.25 10.441 4325.19 74.767 4325.19C139.093 4325.19 191.24 4377.25 191.24 4441.47Z" fill="#EEA47F"/>
</g>
<defs>
<clipPath id="clip0_0_1">
<rect width="640" height="4608" fill="white"/>
</clipPath>
</defs>
</svg>
