<svg width="109" height="112" viewBox="0 0 109 112" fill="none" xmlns="http://www.w3.org/2000/svg">
<g id="forum-2 1" clip-path="url(#clip0_1840_641)">
<g id="Group">
<g id="Group_2">
<g id="container-id1">
<g id="id1">
<g id="Group_3">
<g id="Group_4">
<g id="id3">
<path id="Vector" fill-rule="evenodd" clip-rule="evenodd" d="M81.4009 43.5974C81.4009 39.4547 80.9011 35.9449 79.751 31.9748C78.8467 28.8678 77.7838 26.3279 76.2132 23.5086C72.6596 17.1301 68.2414 12.5518 62.086 8.86938C55.9306 5.17876 49.8862 3.50195 42.779 3.50195C35.6638 3.50195 29.6274 5.17876 23.472 8.86938C17.3166 12.5518 12.8905 17.1301 9.33683 23.5086C5.78321 29.887 4.16504 36.1504 4.16504 43.5152C4.16504 50.5266 5.62456 56.4776 8.85297 62.6341L4.30782 79.1803C4.21263 79.509 4.17297 79.7967 4.17297 80.1337C4.17297 80.7749 4.31575 81.3174 4.62511 81.8763C4.93446 82.427 5.32314 82.8298 5.8546 83.1503C6.39399 83.4709 6.91751 83.6106 7.53622 83.6106C7.86144 83.6106 8.13907 83.5695 8.45636 83.4791L24.4239 78.7611C26.8194 80.1173 28.9532 81.0461 31.5629 81.8599C35.3862 83.0846 38.7732 83.6106 42.7711 83.6106C42.779 83.6106 42.7869 83.6106 42.7869 83.6106C49.8942 83.6024 55.9226 81.9256 62.078 78.2432C68.2414 74.5608 72.6675 69.9742 76.2211 63.5876C79.7748 57.2091 81.3929 50.9622 81.4009 43.5974Z" fill="#92B1D8"/>
<path id="Vector_2" fill-rule="evenodd" clip-rule="evenodd" d="M100.232 86.9879C103.452 80.8478 104.904 74.905 104.904 67.9183C104.904 60.5617 103.294 54.3148 99.74 47.9446C96.5195 42.158 92.6248 37.9248 87.1992 34.3164C87.8417 37.5714 88.1193 40.3743 88.1193 43.7032C88.1193 52.3339 86.2235 59.6658 82.0591 67.1375C77.8947 74.6091 72.715 79.9766 65.5046 84.2919C58.2942 88.6072 51.2108 90.5717 42.8899 90.5717C42.8502 90.5717 42.8264 90.5717 42.7868 90.5717C39.6377 90.5635 36.9725 90.2758 33.8789 89.6182C37.3929 95.2158 41.47 99.2352 47.0543 102.572C53.1938 106.238 59.2064 107.932 66.2978 107.964C73.0322 107.964 78.7514 106.46 84.6609 103.123L100.628 107.833C100.946 107.932 101.223 107.964 101.549 107.964C102.167 107.964 102.691 107.825 103.23 107.504C103.762 107.184 104.15 106.781 104.46 106.23C104.769 105.671 104.912 105.129 104.912 104.488C104.912 104.151 104.872 103.863 104.777 103.534L100.232 86.9879Z" fill="#92CDC8"/>
</g>
</g>
</g>
</g>
</g>
</g>
</g>
<g id="add-reaction 2">
<path id="Vector_3" d="M46.9802 42.5436C47.4972 42.5436 47.9363 42.3559 48.2975 41.9806C48.6597 41.6063 48.8408 41.1513 48.8408 40.6156C48.8408 40.0799 48.6597 39.6249 48.2975 39.2506C47.9363 38.8753 47.4972 38.6876 46.9802 38.6876C46.4632 38.6876 46.0241 38.8753 45.6629 39.2506C45.3008 39.6249 45.1197 40.0799 45.1197 40.6156C45.1197 41.1513 45.3008 41.6063 45.6629 41.9806C46.0241 42.3559 46.4632 42.5436 46.9802 42.5436ZM38.7938 42.5436C39.3108 42.5436 39.7499 42.3559 40.1111 41.9806C40.4733 41.6063 40.6543 41.1513 40.6543 40.6156C40.6543 40.0799 40.4733 39.6249 40.1111 39.2506C39.7499 38.8753 39.3108 38.6876 38.7938 38.6876C38.2768 38.6876 37.8377 38.8753 37.4765 39.2506C37.1143 39.6249 36.9332 40.0799 36.9332 40.6156C36.9332 41.1513 37.1143 41.6063 37.4765 41.9806C37.8377 42.3559 38.2768 42.5436 38.7938 42.5436ZM42.887 49.8699C44.1274 49.8699 45.2695 49.5377 46.3134 48.8735C47.3573 48.2092 48.1789 47.3095 48.7782 46.1743H36.9958C37.5951 47.3095 38.4167 48.2092 39.4606 48.8735C40.5045 49.5377 41.6466 49.8699 42.887 49.8699ZM42.887 56.0394C41.2537 56.0394 39.7137 55.718 38.2669 55.0754C36.8201 54.4327 35.554 53.5489 34.4684 52.424C33.3828 51.2991 32.5299 49.9871 31.9098 48.4879C31.2896 46.9887 30.9795 45.3928 30.9795 43.7003C30.9795 41.9863 31.2896 40.3848 31.9098 38.8958C32.5299 37.408 33.3828 36.1016 34.4684 34.9767C35.554 33.8518 36.8201 32.968 38.2669 32.3253C39.7137 31.6827 41.2537 31.3613 42.887 31.3613C44.5412 31.3613 46.0867 31.6827 47.5235 32.3253C48.9593 32.968 50.22 33.8518 51.3056 34.9767C52.3912 36.1016 53.2441 37.408 53.8642 38.8958C54.4844 40.3848 54.7945 41.9863 54.7945 43.7003C54.7945 45.3928 54.4844 46.9887 53.8642 48.4879C53.2441 49.9871 52.3912 51.2991 51.3056 52.424C50.22 53.5489 48.9593 54.4327 47.5235 55.0754C46.0867 55.718 44.5412 56.0394 42.887 56.0394ZM42.887 53.7258C45.5741 53.7258 47.8584 52.751 49.7398 50.8015C51.6212 48.8519 52.5619 46.4849 52.5619 43.7003C52.5619 40.9158 51.6212 38.5488 49.7398 36.5992C47.8584 34.6497 45.5741 33.6749 42.887 33.6749C40.1999 33.6749 37.9156 34.6497 36.0342 36.5992C34.1528 38.5488 33.2122 40.9158 33.2122 43.7003C33.2122 46.4849 34.1528 48.8519 36.0342 50.8015C37.9156 52.751 40.1999 53.7258 42.887 53.7258Z" fill="white"/>
</g>
</g>
<defs>
<clipPath id="clip0_1840_641">
<rect width="107.664" height="111.565" fill="white" transform="translate(0.714355)"/>
</clipPath>
</defs>
</svg>
