<svg width="242" height="189" viewBox="0 0 242 189" fill="none" xmlns="http://www.w3.org/2000/svg">
<g id="Group 198">
<g id="forum-2 1" clip-path="url(#clip0_1802_121)">
<g id="Group">
<g id="Group_2">
<g id="container-id1">
<g id="id1">
<g id="Group_3">
<g id="Group_4">
<g id="id3">
<path id="Vector" fill-rule="evenodd" clip-rule="evenodd" d="M138.637 44.2693C138.637 40.1266 138.137 36.6168 136.987 32.6467C136.083 29.5397 135.02 26.9998 133.45 24.1805C129.896 17.802 125.478 13.2237 119.322 9.54126C113.167 5.85064 107.123 4.17383 100.015 4.17383C92.9001 4.17383 86.8637 5.85064 80.7083 9.54126C74.553 13.2237 70.1268 17.802 66.5732 24.1805C63.0195 30.5589 61.4014 36.8223 61.4014 44.1871C61.4014 51.1984 62.8609 57.1495 66.0893 63.306L61.5441 79.8521C61.449 80.1809 61.4093 80.4686 61.4093 80.8056C61.4093 81.4467 61.5521 81.9892 61.8614 82.5482C62.1708 83.0989 62.5595 83.5017 63.0909 83.8222C63.6303 84.1428 64.1538 84.2825 64.7726 84.2825C65.0978 84.2825 65.3754 84.2414 65.6927 84.151L81.6602 79.4329C84.0557 80.7892 86.1895 81.718 88.7992 82.5317C92.6225 83.7565 96.0096 84.2825 100.007 84.2825C100.015 84.2825 100.023 84.2825 100.023 84.2825C107.131 84.2743 113.159 82.5975 119.314 78.9151C125.478 75.2327 129.904 70.6461 133.457 64.2595C137.011 57.881 138.629 51.6341 138.637 44.2693Z" fill="#92B1D8"/>
<path id="Vector_2" fill-rule="evenodd" clip-rule="evenodd" d="M157.468 87.6598C160.689 81.5197 162.14 75.5769 162.14 68.5902C162.14 61.2336 160.53 54.9867 156.976 48.6165C153.756 42.8298 149.861 38.5967 144.435 34.9883C145.078 38.2433 145.356 41.0462 145.356 44.3751C145.356 53.0058 143.46 60.3377 139.295 67.8093C135.131 75.281 129.951 80.6484 122.741 84.9637C115.531 89.2791 108.447 91.2436 100.126 91.2436C100.087 91.2436 100.063 91.2436 100.023 91.2436C96.874 91.2353 94.2088 90.9476 91.1152 90.2901C94.6292 95.8877 98.7064 99.9071 104.291 103.244C110.43 106.91 116.443 108.603 123.534 108.636C130.269 108.636 135.988 107.132 141.897 103.795L157.865 108.505C158.182 108.603 158.46 108.636 158.785 108.636C159.404 108.636 159.927 108.497 160.466 108.176C160.998 107.855 161.387 107.453 161.696 106.902C162.005 106.343 162.148 105.801 162.148 105.159C162.148 104.822 162.108 104.535 162.013 104.206L157.468 87.6598Z" fill="#92CDC8"/>
</g>
</g>
</g>
</g>
</g>
</g>
</g>
<g id="add-reaction 2">
<path id="Vector_3" d="M104.217 43.2154C104.734 43.2154 105.173 43.0278 105.534 42.6525C105.896 42.2782 106.077 41.8232 106.077 41.2875C106.077 40.7517 105.896 40.2967 105.534 39.9225C105.173 39.5472 104.734 39.3595 104.217 39.3595C103.7 39.3595 103.26 39.5472 102.899 39.9225C102.537 40.2967 102.356 40.7517 102.356 41.2875C102.356 41.8232 102.537 42.2782 102.899 42.6525C103.26 43.0278 103.7 43.2154 104.217 43.2154ZM96.0301 43.2154C96.5471 43.2154 96.9862 43.0278 97.3474 42.6525C97.7096 42.2782 97.8907 41.8232 97.8907 41.2875C97.8907 40.7517 97.7096 40.2967 97.3474 39.9225C96.9862 39.5472 96.5471 39.3595 96.0301 39.3595C95.5131 39.3595 95.0741 39.5472 94.7129 39.9225C94.3507 40.2967 94.1696 40.7517 94.1696 41.2875C94.1696 41.8232 94.3507 42.2782 94.7129 42.6525C95.0741 43.0278 95.5131 43.2154 96.0301 43.2154ZM100.123 50.5417C101.364 50.5417 102.506 50.2096 103.55 49.5454C104.594 48.8811 105.415 47.9814 106.015 46.8462H94.2321C94.8314 47.9814 95.6531 48.8811 96.6969 49.5454C97.7408 50.2096 98.883 50.5417 100.123 50.5417ZM100.123 56.7112C98.49 56.7112 96.95 56.3899 95.5032 55.7473C94.0565 55.1046 92.7903 54.2208 91.7047 53.0959C90.6192 51.971 89.7663 50.659 89.1461 49.1598C88.5259 47.6606 88.2158 46.0647 88.2158 44.3722C88.2158 42.6581 88.5259 41.0566 89.1461 39.5677C89.7663 38.0798 90.6192 36.7734 91.7047 35.6485C92.7903 34.5236 94.0565 33.6398 95.5032 32.9972C96.95 32.3545 98.49 32.0332 100.123 32.0332C101.777 32.0332 103.323 32.3545 104.76 32.9972C106.196 33.6398 107.456 34.5236 108.542 35.6485C109.628 36.7734 110.48 38.0798 111.101 39.5677C111.721 41.0566 112.031 42.6581 112.031 44.3722C112.031 46.0647 111.721 47.6606 111.101 49.1598C110.48 50.659 109.628 51.971 108.542 53.0959C107.456 54.2208 106.196 55.1046 104.76 55.7473C103.323 56.3899 101.777 56.7112 100.123 56.7112ZM100.123 54.3977C102.81 54.3977 105.095 53.4229 106.976 51.4733C108.857 49.5238 109.798 47.1567 109.798 44.3722C109.798 41.5877 108.857 39.2207 106.976 37.2711C105.095 35.3216 102.81 34.3468 100.123 34.3468C97.4362 34.3468 95.1519 35.3216 93.2706 37.2711C91.3892 39.2207 90.4485 41.5877 90.4485 44.3722C90.4485 47.1567 91.3892 49.5238 93.2706 51.4733C95.1519 53.4229 97.4362 54.3977 100.123 54.3977Z" fill="white"/>
</g>
</g>
<path id="Ellipse 59" d="M25.3595 68.3329C25.3595 74.5924 20.4981 79.4216 14.7984 79.4216C9.09868 79.4216 4.2373 74.5924 4.2373 68.3329C4.2373 62.0733 9.09868 57.2441 14.7984 57.2441C20.4981 57.2441 25.3595 62.0733 25.3595 68.3329Z" stroke="#84D48C" stroke-width="8"/>
<path id="Polygon 3" d="M185.194 37.5376L200.972 18.0531L209.367 41.9544L185.194 37.5376Z" stroke="#61DAFB" stroke-width="8"/>
<path id="Polygon 4" d="M30.6261 163.885L34.8888 138.834L53.6936 155.185L30.6261 163.885Z" stroke="#9172B9" stroke-width="8"/>
<g id="spring 1">
<g id="Group_5">
<g id="Group_6">
<g id="container-id1_2">
<g id="id1_2">
<g id="Group_7">
<g id="Group_8">
<g id="id3_2">
<path id="Vector_4" fill-rule="evenodd" clip-rule="evenodd" d="M182.337 163.293C182.236 163.22 179.965 161.429 178.145 158.756C175.601 155.01 175.19 151.372 176.969 148.232C177.507 147.276 178.533 146.22 180.465 145.809C179.992 143.821 180.046 141.872 180.877 140.163C181.481 138.913 182.844 137.447 185.892 137.11C184.953 134.602 184.555 131.765 185.574 128.984C186.51 126.442 188.45 124.79 191.248 124.128C190.336 120.887 190.818 118.065 192.662 115.932C195.224 112.968 199.908 113.021 206.582 116.093C211.287 118.261 215.254 121.146 215.424 121.269C215.924 121.632 216.042 122.347 215.692 122.865C215.341 123.384 214.649 123.51 214.148 123.147L214.144 123.145C214.015 123.051 210.112 120.231 205.653 118.18C201.747 116.387 196.611 114.804 194.313 117.466C192.933 119.064 192.649 121.201 193.47 123.821C193.477 123.82 193.481 123.823 193.484 123.819C197.109 123.633 201.655 124.781 205.96 126.971C210.24 129.154 213.425 131.907 214.685 134.535C215.626 136.489 215.482 138.384 214.285 139.871C213.494 140.855 211.944 141.911 209.067 141.363C206.065 140.787 202.345 138.604 198.852 135.372C195.801 132.554 193.388 129.326 192.042 126.3C189.809 126.748 188.336 127.922 187.644 129.801C186.833 132.016 187.214 134.567 188.302 137.076C194.263 137.501 202.633 141.355 204.827 145.832C205.617 147.44 205.526 149.069 204.577 150.412C203.845 151.451 201.932 152.804 197.378 150.235C194.006 148.337 190.449 144.934 188.094 141.362C187.688 140.743 187.279 140.067 186.898 139.341C185.374 139.389 183.55 139.766 182.859 141.19C182.194 142.565 182.319 144.169 182.728 145.637C182.856 145.643 182.991 145.648 183.124 145.657C188.239 146.016 195.835 149.982 197.595 154.363C198.247 155.988 198.029 157.574 196.976 158.83C195.463 160.642 192.709 160.375 189.417 158.093C186.278 155.921 182.849 152.025 181.19 148.011C180.246 148.161 179.358 148.551 178.885 149.392C175.649 155.107 183.588 161.397 183.67 161.463C184.159 161.842 184.256 162.561 183.89 163.068C183.525 163.563 182.853 163.668 182.369 163.316L182.337 163.293ZM183.648 148.012C183.806 148.339 183.962 148.633 184.11 148.896C185.673 151.681 188.178 154.471 190.645 156.186C192.798 157.68 194.625 158.127 195.301 157.322C195.804 156.72 195.878 156.076 195.545 155.243C194.317 152.183 188.379 148.629 183.648 148.012ZM198.431 148.214C200.516 149.391 202.304 149.735 202.789 149.052C203.074 148.648 203.395 147.978 202.852 146.867C202.031 145.2 199.674 143.296 196.544 141.779C194.249 140.662 191.792 139.876 189.597 139.53C191.838 143.163 195.302 146.455 198.431 148.214ZM209.471 139.102C210.934 139.384 211.983 139.148 212.584 138.401C212.981 137.903 213.43 137.07 212.702 135.557C210.687 131.366 201.498 126.144 194.405 126.095C197.48 132.233 204.839 138.214 209.471 139.102Z" fill="#D8D128"/>
</g>
</g>
</g>
</g>
</g>
</g>
</g>
</g>
</g>
<defs>
<clipPath id="clip0_1802_121">
<rect width="107.664" height="111.565" fill="white" transform="translate(57.9512 0.671875)"/>
</clipPath>
</defs>
</svg>
