<svg width="230" height="230" viewBox="0 0 230 230" fill="none" xmlns="http://www.w3.org/2000/svg">
<g id="studying-2 1" clip-path="url(#clip0_1929_103)">
<g id="Group">
<g id="Group_2">
<g id="container-id1">
<g id="Clip path group">
<mask id="mask0_1929_103" style="mask-type:luminance" maskUnits="userSpaceOnUse" x="0" y="0" width="230" height="230">
<g id="presentation_clip_path">
<path id="Vector" d="M230 0H0V230H230V0Z" fill="white"/>
</g>
</mask>
<g mask="url(#mask0_1929_103)">
<g id="id1">
<g id="Group_3">
<g id="Group_4">
<g id="id3">
<path id="Vector_2" fill-rule="evenodd" clip-rule="evenodd" d="M10.6417 67.9343C10.6417 67.9343 63.8163 60.9358 73.4583 68.9679C83.1002 77 80.7956 120.651 76.949 122.566C73.0855 124.498 57.9871 124.82 57.9871 125.786C57.9871 126.752 61.5118 133.174 59.902 134.14C58.3091 135.106 47.0573 127.074 45.4475 127.074C43.8377 127.074 15.2 126.887 11.6584 125.599C8.13374 124.329 3.25346 68.9001 10.6417 67.9343Z" fill="white"/>
<path id="Vector_3" fill-rule="evenodd" clip-rule="evenodd" d="M220.883 90.5732C224.069 94.9451 224.425 127.057 221.239 128.158C218.037 129.243 203.175 128.887 201.752 129.615C200.329 130.344 190.416 139.833 190.06 137.631C189.721 135.445 190.771 129.243 190.771 129.243C190.771 129.243 181.57 130.344 177.317 128.158C173.063 125.955 174.843 92.0305 176.605 90.5732C178.384 89.1159 217.698 86.2013 220.883 90.5732Z" fill="white"/>
<path id="Vector_4" fill-rule="evenodd" clip-rule="evenodd" d="M189.551 137.715C189.263 135.885 189.89 131.513 190.161 129.819C189.263 129.903 187.586 130.039 185.637 130.039C181.79 130.039 178.909 129.547 177.079 128.615C176.317 128.209 175.232 127.023 174.605 121.227C173.538 111.297 174.605 91.5559 176.283 90.1833C177.605 89.0819 193.381 87.7432 204.887 87.7432C214.563 87.7432 220.07 88.5904 221.29 90.268C223.832 93.7588 225.221 118.719 222.696 126.751C222.341 127.853 221.934 128.446 221.392 128.632C219.578 129.259 214.308 129.429 209.665 129.564C206.31 129.666 202.531 129.785 201.989 130.073C201.616 130.259 200.328 131.361 198.956 132.513C194.974 135.885 191.805 138.478 190.466 138.478C189.975 138.478 189.636 138.19 189.551 137.715ZM190.771 128.734C190.873 128.734 190.958 128.751 191.025 128.802C191.11 128.853 191.178 128.904 191.229 128.988C191.263 129.073 191.297 129.158 191.297 129.242C191.297 129.276 191.28 129.31 191.28 129.327C191.28 129.395 190.28 135.258 190.551 137.444C191.788 137.241 195.99 133.665 198.295 131.733C200.04 130.242 201.057 129.395 201.515 129.158C202.226 128.785 204.921 128.683 209.631 128.548C213.986 128.412 219.392 128.243 221.07 127.667C221.07 127.667 221.358 127.548 221.714 126.446C223.866 119.601 222.984 94.3349 220.46 90.8781C220.002 90.2511 217.562 88.7768 204.887 88.7768C191.856 88.7768 177.961 90.268 176.927 90.9797C175.724 92.3523 174.233 114.483 176.046 124.006C176.605 126.921 177.283 127.548 177.554 127.7C179.214 128.548 182.01 129.005 185.637 129.005C188.416 129.005 190.687 128.734 190.72 128.734C190.737 128.734 190.754 128.734 190.771 128.734Z" fill="#241726"/>
<path id="Vector_5" fill-rule="evenodd" clip-rule="evenodd" d="M194.127 124.125C193.449 124.125 192.839 123.99 192.263 123.735C190.161 122.787 188.975 120.245 188.924 116.585C188.857 113.06 189.856 108.874 191.703 104.774C195.025 97.4362 200.278 92.3018 204.446 92.3018C205.124 92.3018 205.734 92.4373 206.31 92.6915C210.564 94.6233 210.818 102.943 206.87 111.653C203.548 118.991 198.295 124.125 194.127 124.125ZM192.635 105.214C190.856 109.162 189.89 113.195 189.958 116.568C190.009 119.804 190.975 122.024 192.686 122.803C193.127 122.99 193.601 123.092 194.127 123.092C197.855 123.092 202.82 118.11 205.938 111.23C209.513 103.316 209.496 95.2672 205.887 93.6404C205.446 93.4371 204.972 93.3354 204.446 93.3354C200.718 93.3354 195.753 98.3343 192.635 105.214Z" fill="#241726"/>
<path id="Vector_6" fill-rule="evenodd" clip-rule="evenodd" d="M208.818 122.956C204.684 122.956 198.854 119.533 193.974 114.229C187.162 106.841 184.519 98.5713 187.942 95.4025C188.806 94.6061 189.958 94.2163 191.381 94.2163C195.499 94.2163 201.328 97.6393 206.226 102.943C213.021 110.331 215.681 118.601 212.241 121.77C211.377 122.566 210.225 122.956 208.818 122.956ZM188.636 96.165C185.739 98.8424 188.518 106.79 194.72 113.534C199.431 118.635 204.955 121.922 208.801 121.922C209.954 121.922 210.886 121.617 211.546 121.007C214.444 118.33 211.665 110.382 205.463 103.638C200.752 98.5374 195.228 95.233 191.381 95.233C190.229 95.233 189.297 95.555 188.636 96.165Z" fill="#241726"/>
<path id="Vector_7" fill-rule="evenodd" clip-rule="evenodd" d="M180.74 109.417C180.604 107.129 182.383 104.892 185.772 103.113C189.026 101.401 193.415 100.3 198.126 100.012C198.973 99.9611 199.702 99.9272 200.549 99.9272C209.547 99.9272 216.274 102.994 216.528 107.214C216.664 109.518 214.885 111.755 211.512 113.534C208.259 115.229 203.87 116.347 199.142 116.635C198.346 116.686 197.516 116.703 196.719 116.703C187.721 116.703 181.011 113.636 180.74 109.417ZM200.549 100.961C199.769 100.961 198.973 100.995 198.193 101.029C193.618 101.317 189.382 102.384 186.247 104.028C183.281 105.57 181.655 107.519 181.773 109.366C181.994 112.958 188.416 115.67 196.719 115.67C197.499 115.67 198.295 115.653 199.092 115.602C203.65 115.314 207.903 114.263 211.021 112.619C213.987 111.06 215.613 109.112 215.495 107.282C215.274 103.672 208.852 100.961 200.549 100.961Z" fill="#241726"/>
<path id="Vector_8" fill-rule="evenodd" clip-rule="evenodd" d="M203.836 108.18C203.836 108.857 203.684 109.434 203.345 110.027C203.006 110.603 202.582 111.026 201.989 111.365C201.413 111.704 200.837 111.857 200.159 111.857C199.481 111.857 198.905 111.704 198.312 111.365C197.736 111.026 197.312 110.603 196.973 110.027C196.634 109.434 196.482 108.857 196.482 108.18C196.482 107.502 196.634 106.926 196.973 106.349C197.312 105.756 197.736 105.333 198.312 104.994C198.905 104.655 199.481 104.502 200.159 104.502C200.837 104.502 201.413 104.655 201.989 104.994C202.582 105.333 203.006 105.756 203.345 106.349C203.684 106.926 203.836 107.502 203.836 108.18Z" fill="#E25C81"/>
<path id="Vector_9" fill-rule="evenodd" clip-rule="evenodd" d="M210.242 122.363C210.242 122.82 210.14 123.21 209.903 123.617C209.682 124.006 209.394 124.295 208.988 124.532C208.581 124.769 208.191 124.871 207.734 124.871C207.276 124.871 206.87 124.769 206.48 124.532C206.073 124.295 205.785 124.006 205.548 123.617C205.328 123.21 205.226 122.82 205.226 122.363C205.226 121.888 205.328 121.499 205.548 121.092C205.785 120.702 206.073 120.414 206.48 120.177C206.87 119.957 207.276 119.838 207.734 119.838C208.191 119.838 208.581 119.957 208.988 120.177C209.394 120.414 209.682 120.702 209.903 121.092C210.14 121.499 210.242 121.888 210.242 122.363Z" fill="#995780"/>
<path id="Vector_10" fill-rule="evenodd" clip-rule="evenodd" d="M211.174 94.9112C211.174 95.3857 211.072 95.7755 210.835 96.1652C210.598 96.5719 210.309 96.86 209.92 97.0972C209.513 97.3175 209.123 97.4361 208.666 97.4361C208.191 97.4361 207.802 97.3175 207.395 97.0972C207.005 96.86 206.717 96.5719 206.48 96.1652C206.243 95.7755 206.141 95.3857 206.141 94.9112C206.141 94.4537 206.243 94.064 206.48 93.6573C206.717 93.2506 207.005 92.9625 207.395 92.7422C207.802 92.505 208.191 92.4033 208.666 92.4033C209.123 92.4033 209.513 92.505 209.92 92.7422C210.309 92.9625 210.598 93.2506 210.835 93.6573C211.072 94.064 211.174 94.4537 211.174 94.9112Z" fill="#009E98"/>
<path id="Vector_11" fill-rule="evenodd" clip-rule="evenodd" d="M184.23 110.586C184.23 111.043 184.129 111.433 183.908 111.84C183.671 112.23 183.383 112.518 182.976 112.755C182.587 112.992 182.18 113.094 181.723 113.094C181.265 113.094 180.858 112.992 180.469 112.755C180.062 112.518 179.774 112.23 179.554 111.84C179.316 111.433 179.215 111.043 179.215 110.586C179.215 110.111 179.316 109.722 179.554 109.315C179.774 108.925 180.062 108.637 180.469 108.4C180.858 108.163 181.265 108.061 181.723 108.061C182.18 108.061 182.587 108.163 182.976 108.4C183.383 108.637 183.671 108.925 183.908 109.315C184.129 109.722 184.23 110.111 184.23 110.586Z" fill="#009E98"/>
<path id="Vector_12" fill-rule="evenodd" clip-rule="evenodd" d="M58.4955 106.671L61.2407 113.382L44.1427 118.991L39.8556 111.569C39.8556 111.569 27.1126 111.586 25.2825 102.316C22.1476 86.4556 38.9744 74.6616 54.6489 79.2369C76.9152 85.71 58.4955 106.671 58.4955 106.671Z" fill="#009D97"/>
<path id="Vector_13" fill-rule="evenodd" clip-rule="evenodd" d="M47.6844 117.974C47.5319 117.974 47.3963 117.906 47.2947 117.788C46.1763 116.398 36.4496 104.164 39.6523 100.758C40.4657 99.8934 41.3977 99.6561 42.3466 100.063C42.1433 98.3513 42.1941 96.5382 43.1769 95.7248C43.8886 95.1317 44.8884 95.1825 46.1424 95.8773C46.2102 95.9112 46.261 95.9451 46.3288 95.979C46.7185 96.1993 47.0235 96.4196 47.3794 96.6907C47.498 95.6231 47.803 94.742 48.3453 94.1997C48.9384 93.6236 50.0229 93.2169 51.836 94.4878C56.9196 98.0971 56.5977 113.026 56.5807 113.653C56.5807 113.941 56.3435 114.195 56.0554 114.161C55.9538 114.161 55.886 114.144 55.8013 114.094C55.7335 114.043 55.6657 113.992 55.6149 113.907C55.564 113.822 55.5471 113.738 55.5471 113.653C55.5471 113.636 55.5471 113.636 55.5471 113.636C55.5471 113.484 55.886 98.6225 51.2429 95.335C50.2432 94.6233 49.5145 94.5047 49.0739 94.9453C48.5995 95.4028 48.3792 96.3687 48.3283 97.521C50.599 99.7747 51.3277 102.689 51.1413 104.096C51.0226 104.943 50.5821 105.18 50.3448 105.231C49.8704 105.35 49.3959 105.062 48.9214 104.384C48.0064 103.045 47.3116 100.317 47.3116 97.9616C46.8202 97.521 46.3796 97.199 45.8204 96.8771C45.7526 96.8432 45.7018 96.8093 45.651 96.7754C44.1428 95.962 43.77 96.5382 43.6514 96.7246C43.143 97.538 43.2108 99.2155 43.5328 100.893C44.9901 102.401 46.0576 105.163 45.7696 106.146C45.651 106.502 45.3629 106.722 45.024 106.705C44.7698 106.688 44.1259 106.638 43.1939 103.757C42.9227 102.944 42.7533 102.249 42.5838 101.418C42.4483 101.283 42.2958 101.181 42.1433 101.096C41.5163 100.741 40.974 100.859 40.3979 101.452C38.4492 103.537 44.092 112.179 48.0911 117.144C48.108 117.161 48.125 117.178 48.1419 117.212C48.1758 117.279 48.2097 117.364 48.2097 117.466C48.2097 117.55 48.1758 117.635 48.1419 117.72C48.0911 117.805 48.0233 117.855 47.9386 117.906C47.8708 117.957 47.7861 117.974 47.6844 117.974ZM48.3961 99.1308C48.5656 100.91 49.0739 102.774 49.7687 103.791C49.9043 103.977 50.0059 104.096 50.0737 104.147C50.1415 103.926 50.1754 103.452 50.0398 102.706C49.8365 101.622 49.3112 100.317 48.3961 99.1308Z" fill="#241726"/>
<path id="Vector_14" fill-rule="evenodd" clip-rule="evenodd" d="M59.3597 108.705C60.512 109.383 61.5795 114.195 61.3423 114.788C61.1051 115.364 45.0408 121.448 43.9055 120.787C42.7532 120.109 40.8892 115.229 41.3467 114.28C41.3467 114.28 58.2074 108.044 59.3597 108.705Z" fill="white"/>
<path id="Vector_15" fill-rule="evenodd" clip-rule="evenodd" d="M43.6514 121.227C42.2957 120.431 40.3131 115.28 40.8893 114.059C40.9401 113.924 41.0418 113.839 41.1773 113.788C41.8043 113.551 56.479 108.146 59.0717 108.146C59.3089 108.146 59.4784 108.179 59.6139 108.264C60.9865 109.061 62.1557 114.161 61.8168 114.975C61.3593 116.127 45.9221 121.346 44.1936 121.346C43.9564 121.346 43.7869 121.312 43.6514 121.227ZM44.1597 120.346L44.1936 120.312C46.3796 120.312 59.3767 115.466 60.8679 114.5C60.9187 113.602 59.919 109.62 59.1056 109.145C57.106 109.162 46.1762 113.043 41.7874 114.669C41.7196 115.737 43.2616 119.821 44.1597 120.346Z" fill="#241726"/>
<path id="Vector_16" fill-rule="evenodd" clip-rule="evenodd" d="M43.16 117.703C43.0753 117.669 43.0075 117.601 42.9736 117.516C42.9228 117.431 42.8889 117.364 42.8889 117.262C42.8889 117.16 42.9228 117.093 42.9736 117.008C43.0075 116.923 43.0753 116.855 43.16 116.821C43.177 116.805 43.2109 116.788 43.2278 116.788C43.804 116.567 57.3095 111.534 59.6649 111.297C59.919 111.263 60.1902 111.467 60.2241 111.755C60.2241 111.772 60.2241 111.789 60.2241 111.806C60.2241 111.907 60.2071 111.992 60.1563 112.06C60.1054 112.145 60.0546 112.212 59.9699 112.246C59.9021 112.297 59.8343 112.314 59.7665 112.314C57.9873 112.5 48.4131 115.94 43.5837 117.753C43.5328 117.77 43.4651 117.77 43.4142 117.77C43.3126 117.77 43.2448 117.753 43.16 117.703ZM48.1928 119.855C48.1759 119.821 48.1759 119.787 48.1759 119.753C48.1759 119.651 48.1928 119.584 48.2437 119.499C48.2945 119.414 48.3453 119.363 48.4301 119.312C48.5148 119.262 48.5995 119.245 48.6842 119.245C48.7859 119.245 48.8706 119.262 48.9554 119.312C49.0232 119.363 49.0909 119.414 49.1418 119.499C49.1587 119.55 49.1757 119.584 49.1926 119.651C49.4468 120.854 50.3449 123.295 51.4125 123.108C53.3103 122.786 58.2923 120.702 59.1565 120.007C58.9362 119.397 58.1737 117.77 57.6484 116.686C57.5975 116.618 57.5806 116.533 57.5806 116.449C57.5806 116.364 57.6145 116.279 57.6653 116.194C57.6992 116.11 57.767 116.059 57.8517 116.008C57.8517 116.008 57.8687 116.008 57.8687 115.991C57.9534 115.957 58.0212 115.94 58.1059 115.94C58.1906 115.94 58.2753 115.957 58.3601 116.008C58.4448 116.059 58.4956 116.11 58.5465 116.194C58.5634 116.211 58.5634 116.211 58.5634 116.228C58.8176 116.737 60.0885 119.329 60.2071 119.99C60.241 120.109 60.2241 120.295 60.0885 120.499C59.3937 121.515 53.3103 123.82 51.5989 124.125C51.4802 124.142 51.3786 124.159 51.2769 124.159C49.1418 124.159 48.2776 120.312 48.1928 119.855ZM59.631 86.7773C59.5462 86.7264 59.4954 86.6586 59.4446 86.5909C59.4107 86.5231 59.3937 86.4553 59.3768 86.3875C59.2582 85.3369 57.8687 84.5235 57.3433 84.2863C57.0722 84.1846 56.9536 83.8796 57.0722 83.6085C57.1908 83.3543 57.4789 83.2357 57.75 83.3373C57.8517 83.3882 60.1732 84.4049 60.4105 86.2689C60.4105 86.2858 60.4105 86.3028 60.4105 86.3197C60.4105 86.4214 60.3935 86.5061 60.3427 86.5739C60.2918 86.6586 60.2241 86.7264 60.1563 86.7773C60.0716 86.8111 59.9868 86.845 59.8852 86.845C59.8004 86.845 59.7157 86.8111 59.631 86.7773ZM60.2749 91.0983C60.1732 91.0983 60.0885 91.0644 60.0207 91.0305C59.936 90.9797 59.8682 90.9119 59.8343 90.8272C59.7835 90.7594 59.7665 90.6747 59.7496 90.59C59.7496 89.3191 57.9703 88.2854 57.9534 88.2684C57.8687 88.2346 57.8178 88.1668 57.767 88.082C57.7161 87.9973 57.6992 87.9295 57.6992 87.8279C57.6992 87.7431 57.7161 87.6584 57.767 87.5737C57.8178 87.489 57.8687 87.4212 57.9534 87.3873C58.0381 87.3365 58.1228 87.3195 58.2076 87.3195C58.3092 87.3195 58.377 87.3365 58.4617 87.3873C58.5634 87.4381 60.7663 88.709 60.7833 90.573C60.7833 90.8611 60.563 91.0814 60.2749 91.0983ZM62.8167 92.5387C62.715 92.5387 62.6303 92.5217 62.5625 92.4709C62.4778 92.4201 62.41 92.3523 62.3761 92.2845C62.3253 92.1998 62.2914 92.1151 62.2914 92.0134C62.2914 91.9456 62.3084 91.8778 62.3422 91.81C62.8675 90.6577 61.7153 88.9632 61.7153 88.9463C61.6983 88.9463 61.6983 88.9463 61.6983 88.9293C61.6475 88.8446 61.6305 88.7768 61.6305 88.6751C61.6305 88.5735 61.6475 88.5057 61.6983 88.421C61.7492 88.3362 61.8 88.2684 61.8847 88.2346C61.9694 88.1837 62.0542 88.1668 62.1389 88.1668C62.2406 88.1668 62.3253 88.1837 62.41 88.2346C62.4609 88.2684 62.5117 88.3023 62.5456 88.3532C62.6134 88.4379 64.0537 90.5391 63.2742 92.2337C63.1895 92.4201 63.0031 92.5387 62.8167 92.5387ZM54.9032 86.0317C54.3271 84.8963 52.2936 84.7438 52.2767 84.7438C52.1919 84.7438 52.1242 84.7269 52.0394 84.676C51.9547 84.6421 51.9039 84.5743 51.853 84.4896C51.8022 84.4049 51.7853 84.3371 51.7853 84.2354C51.7853 84.2185 51.7853 84.2185 51.7853 84.2016C51.8022 83.9304 52.0394 83.6932 52.3275 83.7271C52.4461 83.7271 54.971 83.8965 55.8183 85.5572C55.8522 85.6419 55.8691 85.7097 55.8691 85.7944C55.8691 85.8961 55.8522 85.9808 55.8013 86.0486C55.7505 86.1333 55.6996 86.2011 55.6149 86.2519C55.5302 86.2858 55.4624 86.3197 55.3607 86.3197C55.1743 86.3197 54.9879 86.2011 54.9032 86.0317ZM49.5315 83.456C48.5826 82.6256 46.6339 83.2696 46.6 83.2865C46.5661 83.2865 46.5152 83.3034 46.4644 83.3034C46.3627 83.3034 46.2949 83.2696 46.2102 83.2357C46.1255 83.1848 46.0747 83.117 46.0238 83.0323C45.973 82.9645 45.956 82.8798 45.956 82.7781C45.956 82.6934 45.973 82.6087 46.0238 82.524C46.0747 82.4392 46.1255 82.3884 46.2102 82.3376C46.2272 82.3206 46.2441 82.3206 46.278 82.3037C46.3797 82.2698 48.7859 81.4564 50.1924 82.6765C50.2432 82.7273 50.2771 82.7612 50.311 82.812C50.3618 82.8968 50.3788 82.9815 50.3788 83.0662C50.3788 83.1679 50.3618 83.2357 50.311 83.3204C50.2602 83.4051 50.2093 83.4729 50.1246 83.5068C50.0399 83.5576 49.9551 83.5746 49.8704 83.5746C49.7349 83.5746 49.6162 83.5407 49.5315 83.456ZM53.412 82.0834C52.7173 81.0328 50.6669 81.1514 50.6499 81.1514C50.633 81.1514 50.633 81.1514 50.616 81.1514C50.5143 81.1514 50.4296 81.1175 50.3618 81.0836C50.2771 81.0328 50.2093 80.965 50.1585 80.8803C50.1246 80.8125 50.1077 80.7447 50.0907 80.66C50.0907 80.66 50.0907 80.643 50.0907 80.6261C50.0907 80.5413 50.1246 80.4566 50.1585 80.3719C50.2093 80.2872 50.2771 80.2363 50.3618 80.1855C50.4296 80.1516 50.4974 80.1177 50.5821 80.1177C50.6838 80.1177 53.2256 79.9483 54.2762 81.5072C54.2762 81.5072 54.2762 81.5242 54.2932 81.5411C54.344 81.6089 54.361 81.6936 54.361 81.7953C54.361 81.88 54.344 81.9648 54.2932 82.0495C54.2423 82.1342 54.1915 82.185 54.1068 82.2359C54.022 82.2867 53.9373 82.3037 53.8526 82.3037C53.6831 82.3037 53.5137 82.2189 53.412 82.0834Z" fill="#241726"/>
<path id="Vector_17" fill-rule="evenodd" clip-rule="evenodd" d="M36.3309 77.4235C37.1274 76.8982 31.9082 72.2382 31.332 72.7127C30.7559 73.2041 30.5695 79.7959 31.4337 79.6433C31.4337 79.6433 35.5345 77.9488 36.3309 77.4235ZM54.4286 76.4915C55.3776 76.5084 53.8017 69.6964 53.0391 69.7642C52.2935 69.832 48.3452 75.1189 49.1247 75.4917C49.1247 75.4917 53.4797 76.4746 54.4286 76.4915ZM66.4938 98.3172C66.4938 98.3172 64.3925 102.249 64.1214 103.164C63.8503 104.062 70.8318 104.35 70.9673 103.604C71.1029 102.859 67.053 97.6563 66.4938 98.3172ZM67.1207 85.5573C67.8324 86.1843 70.9843 79.9314 70.3573 79.5078C69.7303 79.0841 63.325 80.6262 63.6978 81.4057C63.6978 81.4057 66.409 84.9303 67.1207 85.5573Z" fill="#E25C81"/>
<path id="Vector_18" fill-rule="evenodd" clip-rule="evenodd" d="M45.4983 76.3728C46.4134 76.1186 42.9565 70.0521 42.2618 70.3233C41.5501 70.6113 39.2794 76.7964 40.1436 76.932C40.1436 76.932 44.5833 76.627 45.4983 76.3728ZM61.7998 79.8466C62.664 80.2533 63.9011 73.3565 63.1893 73.1362C62.4607 72.899 56.7501 76.2033 57.3432 76.8473C57.3432 76.8473 60.9526 79.4568 61.7998 79.8466ZM68.4933 87.9296C68.4933 87.9296 67.8154 92.3354 67.8663 93.2843C67.9002 94.2332 74.5936 92.1828 74.475 91.4372C74.3564 90.6917 68.8152 87.1162 68.4933 87.9296Z" fill="#F5D450"/>
<path id="Vector_19" fill-rule="evenodd" clip-rule="evenodd" d="M22.0121 92.0814C21.5207 92.8778 16.6912 87.8112 17.1657 87.235C17.6402 86.6419 24.215 86.2522 24.0964 87.0995C24.0964 87.0995 22.5204 91.268 22.0121 92.0814ZM38.9405 114.856C39.8556 115.127 36.2462 121.109 35.5515 120.821C34.8567 120.516 32.7385 114.263 33.6027 114.161C33.6027 114.161 38.0424 114.585 38.9405 114.856ZM21.0292 102.52C21.0292 102.52 22.4696 106.722 22.6052 107.671C22.7238 108.603 15.7931 107.79 15.7762 107.044C15.7592 106.282 20.5717 101.774 21.0292 102.52Z" fill="#E25C81"/>
<path id="Vector_20" fill-rule="evenodd" clip-rule="evenodd" d="M29.4171 80.8976C29.4171 80.8976 26.7228 84.4392 26.0111 85.0662C25.2994 85.6932 22.1306 79.4573 22.7576 79.0336C23.3676 78.61 29.7899 80.1181 29.4171 80.8976ZM20.7072 94.7081C20.7072 94.7081 20.9105 99.1478 20.758 100.097C20.6055 101.029 14.1832 98.2666 14.3866 97.538C14.5899 96.8093 20.4869 93.8608 20.7072 94.7081ZM28.6377 112.535C29.4002 113.094 24.0285 117.551 23.4693 117.042C22.9101 116.534 22.9779 109.942 23.8252 110.128C23.8252 110.128 27.8751 111.975 28.6377 112.535Z" fill="#F5D450"/>
<path id="Vector_21" fill-rule="evenodd" clip-rule="evenodd" d="M53.9541 192.331C53.9541 192.331 37.9237 174.013 35.8733 169.895C33.806 165.777 78.6096 131.276 82.7274 133.852C86.8451 136.428 91.4881 152.899 91.4881 152.899L54.8183 171.793C58.8004 176.673 66.7648 183.282 66.7648 183.282L53.9541 192.331ZM192.415 199.753C188.806 202.328 157.914 152.899 158.931 151.357C159.965 149.815 173.877 134.36 173.877 134.36C173.877 134.36 204.768 172.979 203.734 176.063C203.734 176.063 196.007 197.177 192.415 199.753Z" fill="#E25C81"/>
<path id="Vector_22" fill-rule="evenodd" clip-rule="evenodd" d="M206.768 171.708C202.853 176.639 200.041 180.35 196.702 178.046C193.364 175.741 184.247 172.03 185.213 168.505C186.179 164.981 195.889 155.034 197.482 156.644C197.482 156.644 210.682 166.777 206.768 171.708ZM100.571 58.8007C100.571 58.8007 102.994 45.1766 94.2504 50.1586C85.5065 55.1575 83.6934 64.918 92.0813 68.5444C92.0813 68.5444 95.6399 60.3428 100.571 58.8007Z" fill="#E25C81"/>
<path id="Vector_23" fill-rule="evenodd" clip-rule="evenodd" d="M163.879 67.3751C163.879 67.3751 147.34 17.3353 112.636 43.4313C73.3397 72.9671 81.0329 107.01 112.89 114.568C112.89 114.568 169.844 125.04 163.879 67.3751Z" fill="#E25C81"/>
<path id="Vector_24" fill-rule="evenodd" clip-rule="evenodd" d="M171.742 81.1176C179.113 89.387 170.877 103.536 161.032 101.096C151.187 98.673 157.863 86.269 157.863 86.269C157.863 86.269 163.947 72.3738 171.742 81.1176Z" fill="#E25C81"/>
<path id="Vector_25" fill-rule="evenodd" clip-rule="evenodd" d="M90.1666 64.7143C90.0818 64.7143 89.9971 64.6973 89.9124 64.6465C89.8277 64.6126 89.7768 64.5448 89.726 64.4601C89.6751 64.3754 89.6582 64.3076 89.6582 64.2059C89.6582 64.1042 89.6751 64.0365 89.726 63.9517C89.7599 63.884 89.8107 63.8331 89.8785 63.7992C94.7249 60.2407 95.2671 58.1734 95.1655 57.2583C95.0468 56.2416 94.1148 55.8518 94.1148 55.8518C94.0979 55.8349 94.064 55.8349 94.0471 55.8179C93.9623 55.7671 93.9115 55.7163 93.8607 55.6315C93.8098 55.5468 93.7929 55.4621 93.7929 55.3774C93.7929 55.2757 93.8098 55.191 93.8607 55.1062C93.9115 55.0385 93.9623 54.9707 94.0471 54.9198C94.1318 54.8859 94.2165 54.8521 94.3012 54.8521C94.386 54.8521 94.4368 54.869 94.5046 54.9029C94.5724 54.9198 95.9958 55.5468 96.1822 57.1227C96.4194 59.1562 94.5046 61.681 90.4885 64.6296C90.4716 64.6296 90.4546 64.6465 90.4377 64.6465C90.353 64.6973 90.2682 64.7143 90.1835 64.7143C90.1835 64.7143 90.1835 64.7143 90.1666 64.7143ZM114.365 78.152C114.331 78.0164 114.263 77.6436 114.72 77.3217C116.025 76.4405 122.736 69.1709 126.108 65.4429C126.142 65.409 126.176 65.3921 126.226 65.3582C126.311 65.3074 126.379 65.2904 126.481 65.2904C126.582 65.2904 126.65 65.3074 126.735 65.3582C126.819 65.409 126.887 65.4599 126.921 65.5446C126.972 65.6293 126.989 65.7141 126.989 65.8157C126.989 65.9005 126.972 65.9852 126.921 66.0699C126.904 66.0869 126.887 66.1207 126.87 66.1377C126.498 66.5613 118.245 75.6441 115.754 77.83C117.279 78.1011 121.6 78.152 125.515 78.0334H125.532C125.616 78.0334 125.701 78.0503 125.786 78.1011C125.871 78.152 125.938 78.2028 125.972 78.2875C126.023 78.3723 126.04 78.4401 126.057 78.5248C126.057 78.5417 126.057 78.5417 126.057 78.5417C126.057 78.6434 126.023 78.7112 125.972 78.7959C125.938 78.8806 125.871 78.9484 125.786 78.9823C125.718 79.0331 125.633 79.0501 125.549 79.067C123.905 79.1009 122.498 79.1348 121.295 79.1348C114.687 79.1348 114.466 78.4739 114.365 78.152ZM116.551 94.1315C116.296 94.1315 116.059 94.0637 115.839 93.9282C115.771 93.8943 115.72 93.8604 115.669 93.8265C113.873 92.42 115.517 87.9125 116.923 84.6421C117.008 84.4218 117.076 84.2862 117.093 84.2184C117.178 83.9643 117.466 83.7948 117.737 83.8795C117.991 83.9473 118.16 84.2184 118.093 84.4896C118.076 84.5404 117.991 84.7437 117.872 85.0488C115.297 91.0305 115.788 92.6064 116.296 93.0131C116.381 93.0639 116.483 93.1148 116.703 93.0809C118.194 92.8267 121.075 89.0309 122.549 86.6925C122.6 86.6247 122.651 86.5739 122.736 86.523C122.82 86.4891 122.905 86.4552 122.99 86.4552C123.091 86.4552 123.176 86.4891 123.244 86.523C123.261 86.54 123.261 86.54 123.261 86.54C123.515 86.6925 123.583 87.0144 123.43 87.2517C123.007 87.9125 119.296 93.674 116.873 94.0976C116.771 94.1146 116.669 94.1315 116.568 94.1315C116.568 94.1315 116.568 94.1315 116.551 94.1315ZM134.53 81.3038C132.208 79.5754 136.004 71.2891 136.783 69.6454C136.783 69.6284 136.8 69.6115 136.8 69.5946C136.851 69.5268 136.902 69.459 136.987 69.4082C137.071 69.3743 137.156 69.3404 137.241 69.3404C137.343 69.3404 137.427 69.3743 137.495 69.4082C137.58 69.459 137.648 69.5268 137.698 69.5946C137.732 69.6793 137.766 69.764 137.766 69.8657C137.766 69.9335 137.749 70.0012 137.715 70.086C135.631 74.4579 134.055 79.6601 135.14 80.4735C135.462 80.7107 136.97 81.0666 142.918 75.678C142.952 75.661 142.968 75.6441 142.985 75.6271C143.07 75.5932 143.155 75.5593 143.257 75.5593C143.341 75.5593 143.426 75.5932 143.511 75.6271C143.595 75.678 143.646 75.7457 143.697 75.8135C143.748 75.8982 143.765 75.983 143.765 76.0846C143.765 76.1694 143.748 76.2541 143.697 76.3388C143.68 76.3727 143.646 76.4066 143.612 76.4405C139.02 80.5921 136.766 81.6258 135.546 81.6258C135.089 81.6258 134.767 81.4733 134.53 81.3038ZM108.569 71.3569C107.569 70.7638 106.841 68.9676 110.162 60.1221C110.179 60.0882 110.196 60.0712 110.196 60.0543C110.247 59.9696 110.315 59.9018 110.399 59.8509C110.467 59.8171 110.552 59.7832 110.654 59.7832C110.704 59.7832 110.772 59.8001 110.823 59.8171C111.094 59.9187 111.23 60.2237 111.128 60.4949C107.858 69.2048 108.857 70.3402 109.095 70.4757C110.213 71.1196 114.636 67.0866 118.11 62.9689C118.143 62.9181 118.194 62.8842 118.245 62.8503C118.33 62.7994 118.415 62.7825 118.499 62.7825C118.601 62.7825 118.686 62.7994 118.753 62.8503C118.787 62.8672 118.804 62.8842 118.838 62.9011C119.058 63.0875 119.075 63.4095 118.906 63.6298C117.245 65.5954 112.009 71.5433 109.298 71.5433C109.027 71.5433 108.79 71.4755 108.569 71.3569ZM159.677 95.0127C159.575 95.0127 159.507 94.9957 159.422 94.9449C159.338 94.894 159.27 94.8432 159.236 94.7585C159.185 94.6738 159.168 94.589 159.168 94.5043C159.168 94.4704 159.168 94.4535 159.168 94.4365C159.795 88.6242 161.185 85.5232 163.422 84.981C166.438 84.2523 169.59 88.8445 169.725 89.0479C169.742 89.0648 169.742 89.0648 169.742 89.0818C169.793 89.1665 169.81 89.2343 169.81 89.336C169.81 89.4376 169.793 89.5054 169.742 89.5901C169.691 89.6749 169.641 89.7257 169.556 89.7765C169.471 89.8274 169.403 89.8443 169.302 89.8443C169.2 89.8443 169.132 89.8274 169.047 89.7765C168.98 89.7426 168.912 89.6918 168.878 89.624C168.082 88.4548 165.608 85.5063 163.659 85.9808C162.473 86.2688 160.897 87.9973 160.185 94.5551C160.185 94.6229 160.168 94.6907 160.117 94.7585C160.083 94.8432 160.016 94.894 159.931 94.9449C159.846 94.9957 159.778 95.0127 159.677 95.0127Z" fill="#241726"/>
<path id="Vector_26" fill-rule="evenodd" clip-rule="evenodd" d="M146.273 90.2173C146.273 91.4543 145.985 92.5218 145.375 93.5894C144.748 94.6739 143.968 95.4534 142.901 96.0634C141.816 96.6904 140.765 96.9785 139.511 96.9785C138.274 96.9785 137.207 96.6904 136.139 96.0634C135.055 95.4534 134.275 94.6739 133.665 93.5894C133.038 92.5218 132.75 91.4543 132.75 90.2173C132.75 88.9633 133.038 87.9127 133.665 86.8282C134.275 85.7606 135.055 84.9811 136.139 84.3542C137.207 83.7272 138.274 83.4561 139.511 83.4561C140.765 83.4561 141.816 83.7272 142.901 84.3542C143.968 84.9811 144.748 85.7606 145.375 86.8282C145.985 87.9127 146.273 88.9633 146.273 90.2173Z" fill="#DE2C70"/>
<path id="Vector_27" fill-rule="evenodd" clip-rule="evenodd" d="M109.738 77.4233C109.738 78.6603 109.45 79.7279 108.823 80.7955C108.196 81.88 107.434 82.6595 106.349 83.2695C105.265 83.8965 104.214 84.1845 102.977 84.1845C101.723 84.1845 100.673 83.8965 99.5882 83.2695C98.5037 82.6595 97.7412 81.88 97.1142 80.7955C96.4872 79.7279 96.2161 78.6603 96.2161 77.4233C96.2161 76.1694 96.4872 75.1188 97.1142 74.0342C97.7412 72.9667 98.5037 72.1872 99.5882 71.5602C100.673 70.9332 101.723 70.6621 102.977 70.6621C104.214 70.6621 105.265 70.9332 106.349 71.5602C107.434 72.1872 108.196 72.9667 108.823 74.0342C109.45 75.1188 109.738 76.1694 109.738 77.4233Z" fill="#DE2C70"/>
<path id="Vector_28" fill-rule="evenodd" clip-rule="evenodd" d="M145.815 40.0757C145.815 40.0757 155.779 13.8272 132.886 7.60826C109.976 1.37235 104.604 26.8921 88.116 10.5229C88.116 10.5229 85.0489 21.7407 87.4212 28.5189C85.6589 26.9938 84.0322 25.4009 83.2527 24.1809C83.2527 24.1809 75.8984 53.9201 101.706 54.6148C117.72 55.0554 132.852 29.739 145.815 40.0757Z" fill="#995780"/>
<path id="Vector_29" fill-rule="evenodd" clip-rule="evenodd" d="M176.097 36.3138C197.465 65.2566 162.676 79.8465 162.676 79.8465C162.676 79.8465 166.235 51.8866 136.123 36.568C136.123 36.568 159.49 13.8272 176.097 36.3138Z" fill="#995780"/>
<path id="Vector_30" fill-rule="evenodd" clip-rule="evenodd" d="M127.921 121.21L140.85 122.091C140.85 122.091 131.666 145.391 120.329 139.054C116.5 136.902 110.586 121.905 110.586 121.905L121.075 121.515L118.16 106.231L129.514 104.011C129.514 104.011 127.734 119.482 127.921 121.21Z" fill="#E25C81"/>
<path id="Vector_31" fill-rule="evenodd" clip-rule="evenodd" d="M138.681 35.7548C138.596 35.7548 138.529 35.7379 138.461 35.704C138.376 35.6532 138.325 35.5854 138.275 35.5007C138.224 35.4329 138.207 35.3481 138.207 35.2465C138.207 35.2295 138.207 35.2126 138.207 35.1956C138.241 34.8228 138.885 25.8926 127.836 21.7579C123.244 20.0295 117.245 23.7744 111.433 27.3838C105.756 30.9254 99.8762 34.5856 95.1654 33.1452C92.7422 32.4166 90.8613 30.4848 89.387 27.2313C89.3531 27.1635 89.3362 27.0957 89.3362 27.0279C89.3362 26.9263 89.3701 26.8585 89.404 26.7738C89.4548 26.689 89.5226 26.6213 89.5904 26.5874C89.6073 26.5704 89.6243 26.5704 89.6412 26.5535C89.709 26.5196 89.7768 26.5196 89.8615 26.5196C89.9462 26.5196 90.0309 26.5365 90.1157 26.5874C90.2004 26.6213 90.2512 26.689 90.3021 26.7738C90.3021 26.7907 90.319 26.7907 90.319 26.8077C91.6746 29.7731 93.3522 31.5354 95.4535 32.1624C99.7407 33.4672 105.4 29.9256 110.891 26.5196C116.906 22.7577 123.142 18.8942 128.209 20.792C134.36 23.0966 137.021 26.9093 138.19 29.6884C139.444 32.7216 139.24 35.1956 139.24 35.2973C139.223 35.382 139.207 35.4329 139.173 35.5007C139.122 35.5854 139.054 35.6532 138.969 35.6871C138.901 35.7379 138.817 35.7718 138.715 35.7718C138.698 35.7718 138.681 35.7718 138.681 35.7548Z" fill="#241726"/>
<path id="Vector_32" fill-rule="evenodd" clip-rule="evenodd" d="M92.1323 46.0069C87.8281 42.7873 88.489 35.6533 88.5229 35.3482C88.5568 35.0771 88.811 34.8568 89.0821 34.8907C89.1668 34.9077 89.2177 34.9246 89.2854 34.9585C89.3702 35.0093 89.4379 35.0602 89.4718 35.1449C89.5227 35.2296 89.5566 35.3143 89.5566 35.3991C89.5566 35.416 89.5396 35.433 89.5396 35.4499C89.5396 35.5346 88.9126 42.3128 92.7423 45.1935C95.1994 47.0236 98.9613 46.9389 103.943 44.9055C110.196 42.3806 113.822 37.8731 116.737 34.2637C119.397 30.9594 121.499 28.3498 124.583 28.2481C127.446 28.1464 130.751 30.2646 135.292 35.1449C135.326 35.1618 135.343 35.1957 135.36 35.2296C135.411 35.3143 135.428 35.3991 135.428 35.4838C135.428 35.5855 135.411 35.6702 135.36 35.7549C135.309 35.8227 135.258 35.8905 135.174 35.9413C135.089 35.9752 135.021 36.0091 134.919 36.0091C134.818 36.0091 134.75 35.9752 134.665 35.9413C134.614 35.9074 134.581 35.8735 134.547 35.8397C130.276 31.2644 127.125 29.1971 124.617 29.2648C122.007 29.3665 120.041 31.8067 117.533 34.9077C114.551 38.6187 110.823 43.2448 104.333 45.8713C101.588 46.9728 99.1816 47.532 97.1142 47.532C95.1316 47.532 93.4709 47.0236 92.1323 46.0069ZM162.405 60.0546C162.303 60.0546 162.218 60.0208 162.151 59.9869C162.066 59.936 161.998 59.8682 161.947 59.7835C161.913 59.7157 161.88 59.631 161.88 59.5293C161.88 59.4785 161.896 59.4446 161.913 59.3938C163.235 54.8693 162.913 50.8533 160.914 47.4812C156.965 40.8047 147.815 38.7373 147.73 38.7204C147.679 38.7034 147.645 38.6865 147.595 38.6526C147.527 38.6187 147.459 38.5509 147.408 38.4662C147.357 38.3984 147.34 38.3137 147.34 38.212C147.34 38.1273 147.357 38.0426 147.408 37.9578C147.459 37.8731 147.527 37.8223 147.595 37.7714C147.679 37.7206 147.764 37.7037 147.866 37.7037C147.883 37.7037 147.917 37.7037 147.95 37.7037C148.34 37.7884 157.626 39.9066 161.795 46.9558C163.947 50.5822 164.32 54.8693 162.896 59.6818C162.828 59.9021 162.625 60.0546 162.405 60.0546Z" fill="#241726"/>
<path id="Vector_33" fill-rule="evenodd" clip-rule="evenodd" d="M123.041 134.513C126.057 134.953 133.92 120.465 133.92 120.465C133.92 120.465 159.304 118.652 163.371 123.634C167.454 128.633 172.894 197.499 172.894 197.499L87.2519 199.312C87.2519 199.312 85.4387 127.717 91.7763 123.634C98.1308 119.567 115.347 121.38 115.347 121.38C115.347 121.38 116.347 133.547 123.041 134.513Z" fill="#F5D450"/>
<path id="Vector_34" fill-rule="evenodd" clip-rule="evenodd" d="M204.277 168.2C204.277 168.2 184.993 187.416 183.908 187.704C182.807 187.992 173.063 190.754 173.097 189.992C173.148 189.212 176.859 178.706 176.859 178.706L197.905 161.541L204.277 168.2Z" fill="#FBFCFF"/>
<path id="Vector_35" fill-rule="evenodd" clip-rule="evenodd" d="M172.741 190.398C172.657 190.297 172.572 190.093 172.589 189.958C172.64 189.178 175.503 181.011 176.385 178.537C176.402 178.435 176.469 178.367 176.537 178.299L197.583 161.134C197.6 161.117 197.617 161.1 197.651 161.083C197.736 161.032 197.821 161.015 197.905 161.015C198.007 161.015 198.075 161.032 198.159 161.083C198.21 161.117 198.244 161.134 198.278 161.185L204.65 167.844C204.683 167.861 204.717 167.895 204.734 167.929C204.785 168.014 204.802 168.098 204.802 168.2C204.802 168.285 204.785 168.369 204.734 168.454C204.7 168.488 204.683 168.522 204.65 168.556C198.82 174.368 185.145 187.924 184.027 188.196C183.891 188.229 183.62 188.314 183.248 188.416C179.452 189.45 174.91 190.636 173.487 190.636C173.25 190.636 172.945 190.602 172.741 190.398ZM173.724 189.602C175.52 189.45 181.095 187.941 182.976 187.416C183.366 187.314 183.637 187.247 183.773 187.213C184.79 186.704 196.024 175.69 203.565 168.183L197.871 162.235L177.3 179.011C176.046 182.536 174.182 187.975 173.724 189.602Z" fill="#241726"/>
<path id="Vector_36" fill-rule="evenodd" clip-rule="evenodd" d="M180.248 188.891C180.248 188.891 173.013 191.026 172.708 190.721C172.097 190.128 175.08 182.807 175.08 182.807L180.248 188.891Z" fill="#241726"/>
<path id="Vector_37" fill-rule="evenodd" clip-rule="evenodd" d="M183.756 182.96L180.113 182.553L180.367 179.808C180.367 179.808 176.673 179.571 176.402 178.469C176.147 177.351 205.378 153.204 205.378 153.204C205.378 153.204 211.445 161.625 210.682 162.32C209.92 163.015 184.468 189.331 184.112 188.179L183.756 182.96Z" fill="#F5D450"/>
<path id="Vector_38" fill-rule="evenodd" clip-rule="evenodd" d="M183.756 183.468C183.671 183.468 183.587 183.451 183.502 183.4C183.417 183.366 183.366 183.298 183.315 183.214C183.265 183.129 183.248 183.061 183.248 182.96C183.248 182.858 183.265 182.79 183.315 182.705C183.332 182.655 183.366 182.621 183.4 182.587C192.483 173.826 206.192 160.507 206.751 159.795C206.886 159.541 207.175 159.473 207.429 159.609C207.683 159.744 207.751 160.083 207.615 160.32C207.293 160.914 191.076 176.605 184.112 183.332C184.027 183.434 183.892 183.468 183.756 183.468ZM179.554 180.265C179.537 180.248 179.52 180.214 179.486 180.18C179.452 180.096 179.418 180.011 179.418 179.926C179.418 179.825 179.452 179.74 179.486 179.655C179.52 179.621 179.554 179.587 179.587 179.537L204.531 156.237C204.565 156.203 204.582 156.186 204.616 156.169C204.701 156.118 204.785 156.101 204.887 156.101C204.972 156.101 205.056 156.118 205.141 156.169C205.192 156.203 205.226 156.22 205.26 156.271C205.294 156.287 205.311 156.321 205.327 156.355C205.378 156.44 205.395 156.525 205.395 156.609C205.395 156.711 205.378 156.796 205.327 156.881C205.294 156.914 205.277 156.948 205.226 156.982L180.282 180.299C180.265 180.316 180.231 180.35 180.197 180.367C180.113 180.418 180.028 180.435 179.943 180.435C179.808 180.435 179.655 180.384 179.554 180.265Z" fill="#241726"/>
<path id="Vector_39" fill-rule="evenodd" clip-rule="evenodd" d="M202.65 154.678C202.65 154.678 209.75 163.54 210.208 163.574C210.665 163.608 214.953 158.711 214.647 157.948C214.342 157.203 208.293 150.357 207.124 151.119C205.955 151.882 202.65 154.678 202.65 154.678Z" fill="white"/>
<path id="Vector_40" fill-rule="evenodd" clip-rule="evenodd" d="M210.174 164.099C209.903 164.065 209.496 164.048 202.243 155C202.226 154.983 202.209 154.949 202.209 154.932C202.159 154.847 202.125 154.762 202.125 154.678C202.125 154.576 202.159 154.491 202.209 154.423C202.226 154.356 202.26 154.322 202.311 154.288C202.447 154.169 205.666 151.458 206.836 150.695C206.853 150.679 206.869 150.679 206.886 150.662C207.022 150.577 207.158 150.543 207.327 150.543H207.344C209.327 150.543 214.851 157.101 215.122 157.762C215.257 158.084 215.19 158.524 214.444 159.626C213.851 160.507 211.038 164.099 210.208 164.099C210.191 164.099 210.191 164.099 210.174 164.099ZM210.242 162.964C211.207 162.184 213.936 158.88 214.139 158.084C213.563 157.084 208.53 151.577 207.344 151.577C206.497 152.136 204.26 154 203.362 154.745C205.734 157.694 209.293 162.032 210.242 162.964Z" fill="#241726"/>
<path id="Vector_41" fill-rule="evenodd" clip-rule="evenodd" d="M212.478 162.134C213.275 162.066 216.833 157.084 216.833 157.084C216.833 157.084 208.937 149.103 208.479 149.306C208.022 149.526 204.141 152.763 204.141 152.763C204.141 152.763 211.682 162.185 212.478 162.134Z" fill="#995780"/>
<path id="Vector_42" fill-rule="evenodd" clip-rule="evenodd" d="M88.1499 177.571C102.655 181.197 110.365 199.769 110.365 199.769C110.365 199.769 128.938 167.15 143.9 177.113C158.846 187.077 159.304 201.583 158.389 202.938C157.491 204.294 113.077 213.36 106.739 210.648C100.384 207.92 61.8676 194.788 62.7826 190.704C62.7826 190.704 73.6616 173.945 88.1499 177.571Z" fill="white"/>
<path id="Vector_43" fill-rule="evenodd" clip-rule="evenodd" d="M106.536 211.123C105.146 210.53 102.198 209.428 98.4699 208.039C75.0344 199.278 61.5967 193.618 62.2745 190.602C62.2914 190.534 62.3084 190.483 62.3423 190.432C62.715 189.856 71.5097 176.537 84.0154 176.537C85.4388 176.537 86.8792 176.707 88.2857 177.062C95.928 178.977 101.656 185.01 105.112 189.721C107.875 193.483 109.671 197.041 110.416 198.651C111.586 196.736 114.619 191.924 118.635 187.162C125.616 178.893 132.056 174.707 137.8 174.707C140.071 174.707 142.206 175.368 144.172 176.69C159.677 187.026 159.761 201.82 158.829 203.226C157.762 204.819 123.227 211.665 110.925 211.665C108.823 211.665 107.383 211.479 106.536 211.123ZM98.8257 207.073C102.571 208.462 105.536 209.564 106.943 210.174C107.654 210.479 108.993 210.631 110.925 210.631C123.752 210.631 156.389 203.819 158.016 202.582C158.762 201.396 158.084 187.196 143.612 177.537C141.816 176.334 139.851 175.724 137.8 175.724C124.803 175.724 110.942 199.786 110.806 200.023C110.704 200.193 110.552 200.312 110.332 200.278C110.247 200.278 110.179 200.261 110.111 200.21C110.027 200.159 109.959 200.108 109.908 200.023C109.908 200.007 109.891 199.99 109.891 199.973C109.806 199.786 102.113 181.587 88.0315 178.062C86.6589 177.723 85.4388 177.571 84.0154 177.571C72.5942 177.571 64.0707 189.721 63.2742 190.89C63.1556 193.737 89.0313 203.413 98.8257 207.073Z" fill="#241726"/>
<path id="Vector_44" fill-rule="evenodd" clip-rule="evenodd" d="M108.739 206.107C108.654 206.056 108.603 206.005 108.552 205.921C108.501 205.836 108.484 205.751 108.484 205.666C108.484 205.565 108.501 205.48 108.552 205.395C108.569 205.378 108.586 205.361 108.603 205.344C121.363 189.179 132.293 181.994 141.07 183.942C151.322 186.213 154.678 199.973 154.813 200.549C154.83 200.6 154.83 200.634 154.83 200.668C154.83 200.769 154.813 200.854 154.762 200.939C154.711 201.006 154.661 201.074 154.576 201.125C154.525 201.142 154.491 201.159 154.44 201.176C154.389 201.193 154.356 201.193 154.305 201.193C154.22 201.193 154.135 201.176 154.051 201.125C153.966 201.074 153.915 201.023 153.864 200.939C153.847 200.888 153.83 200.854 153.813 200.786C153.779 200.651 150.458 187.077 140.85 184.942C132.479 183.078 121.905 190.161 109.399 205.971C109.366 206.039 109.315 206.073 109.264 206.107C109.179 206.158 109.094 206.175 108.993 206.175C108.908 206.175 108.823 206.158 108.739 206.107Z" fill="#241726"/>
<path id="Vector_45" fill-rule="evenodd" clip-rule="evenodd" d="M111.264 212.072C111.162 212.072 111.094 212.038 111.009 212.004C110.925 211.953 110.874 211.885 110.823 211.817C110.772 211.733 110.755 211.648 110.755 211.546C110.755 211.462 110.772 211.377 110.823 211.292C110.84 211.258 110.857 211.224 110.891 211.19C124.04 197.685 133.987 191.94 140.477 194.177C145.849 196.024 146.646 202.599 146.663 202.887C146.696 203.158 146.493 203.429 146.222 203.446C146.205 203.463 146.188 203.463 146.171 203.463C146.069 203.463 145.985 203.429 145.9 203.379C145.815 203.345 145.764 203.277 145.714 203.192C145.68 203.124 145.663 203.074 145.646 203.006C145.646 202.938 144.883 196.77 140.139 195.143C135.953 193.72 127.633 195.465 111.636 211.902C111.602 211.953 111.569 211.97 111.518 212.004C111.433 212.038 111.365 212.072 111.264 212.072ZM106.739 205.277C106.637 205.277 106.553 205.243 106.485 205.192C106.4 205.158 106.332 205.09 106.282 205.005C106.282 204.988 106.265 204.972 106.248 204.938C101.452 192.72 95.1993 185.705 87.6586 184.095C77.2033 181.875 67.7647 190.975 67.68 191.076C67.6461 191.11 67.6122 191.127 67.5614 191.161C67.4936 191.195 67.4089 191.229 67.3072 191.229C67.2225 191.229 67.1377 191.195 67.053 191.161C67.0191 191.127 66.9852 191.11 66.9513 191.076C66.9174 191.042 66.8836 191.008 66.8666 190.958C66.8158 190.89 66.7988 190.805 66.7988 190.703C66.7988 190.619 66.8158 190.534 66.8666 190.449C66.8836 190.398 66.9174 190.382 66.9513 190.348C67.358 189.941 76.8813 180.757 87.862 183.095C95.7755 184.773 102.283 192.008 107.214 204.565C107.231 204.633 107.248 204.683 107.248 204.751C107.248 204.853 107.231 204.938 107.18 205.005C107.129 205.09 107.078 205.158 106.993 205.209C106.959 205.209 106.942 205.226 106.926 205.226C106.858 205.26 106.807 205.277 106.739 205.277Z" fill="#241726"/>
<path id="Vector_46" fill-rule="evenodd" clip-rule="evenodd" d="M102.181 206.751C102.13 206.632 97.2667 194.211 87.2859 190.941C81.965 189.179 76.085 190.331 69.8491 194.313C69.8491 194.313 69.8491 194.313 69.8321 194.33C69.7474 194.364 69.6796 194.398 69.5779 194.398C69.4763 194.398 69.4085 194.364 69.3238 194.33C69.239 194.279 69.1713 194.211 69.1374 194.144C69.0865 194.059 69.0696 193.974 69.0696 193.873C69.0696 193.788 69.0865 193.703 69.1374 193.618C69.1713 193.551 69.2221 193.5 69.3068 193.449C75.8139 189.28 81.965 188.111 87.6079 189.958C98.0462 193.398 102.943 205.853 103.13 206.378C103.164 206.446 103.164 206.497 103.164 206.565C103.164 206.666 103.147 206.734 103.096 206.819C103.062 206.904 102.994 206.971 102.91 207.005C102.825 207.056 102.757 207.09 102.655 207.09C102.452 207.09 102.249 206.954 102.181 206.751Z" fill="#241726"/>
<path id="Vector_47" fill-rule="evenodd" clip-rule="evenodd" d="M107.637 216.528C109.908 216.528 165.641 207.92 166.099 206.565C166.556 205.209 164.286 195.245 164.286 195.245L110.365 203.853C110.365 203.853 60.9695 186.179 59.6139 186.179C58.2413 186.179 55.0725 197.956 55.0725 197.956C55.0725 197.956 105.383 216.528 107.637 216.528Z" fill="#995780"/>
<path id="Vector_48" fill-rule="evenodd" clip-rule="evenodd" d="M65.5617 180.452C65.5617 180.452 78.8977 181.96 80.1008 190.517C80.3381 192.212 78.8808 191.992 76.949 191.026C78.5588 192.517 79.3383 193.906 77.7962 194.601C74.9833 195.872 70.4589 192.957 68.0357 191.127C70.73 193.364 75.5425 197.736 73.204 198.414C70.0353 199.312 60.6983 197.465 55.7164 194.296C50.7175 191.127 53.3271 180.011 65.5617 180.452Z" fill="#E25C81"/>
<path id="Vector_49" fill-rule="evenodd" clip-rule="evenodd" d="M120.567 132.293C119.55 131.022 115.686 119.686 115.686 119.686C115.686 119.686 108.467 119.94 107.959 121.228C107.451 122.515 112.856 138.478 114.398 139.766C115.94 141.054 121.346 134.614 121.346 134.614C121.346 134.614 125.989 141.054 128.039 140.291C130.107 139.512 140.138 123.295 138.088 122.007C136.021 120.719 131.903 119.94 131.903 119.94C131.903 119.94 121.6 133.581 120.567 132.293Z" fill="white"/>
<path id="Vector_50" fill-rule="evenodd" clip-rule="evenodd" d="M121.312 135.445C120.024 136.936 116.754 140.461 114.907 140.461C114.585 140.461 114.297 140.359 114.06 140.156C112.467 138.834 106.875 122.566 107.485 121.041C108.061 119.601 113.399 119.245 115.669 119.177C115.89 119.177 116.093 119.313 116.178 119.516C117.652 123.854 120.058 130.514 120.872 131.835C122.143 131.327 127.175 125.345 131.496 119.635C131.615 119.482 131.801 119.398 132.005 119.431C132.174 119.465 136.241 120.245 138.359 121.567C138.766 121.821 138.935 122.312 138.851 123.024C138.461 127.006 130.293 139.986 128.226 140.766C128.04 140.833 127.87 140.867 127.684 140.867C127.667 140.867 127.667 140.867 127.667 140.867C125.616 140.867 122.465 136.953 121.312 135.445ZM121.363 134.106C121.533 134.106 121.668 134.191 121.77 134.309C123.295 136.445 126.26 139.834 127.667 139.834C127.735 139.834 127.802 139.817 127.853 139.8C129.243 139.291 136.309 128.48 137.648 123.803C137.97 122.685 137.8 122.431 137.8 122.431C136.173 121.414 133.106 120.719 132.123 120.516C129.141 124.447 122.532 132.903 120.77 132.903C120.533 132.903 120.312 132.801 120.177 132.615C119.194 131.395 116.059 122.397 115.314 120.211C111.891 120.363 108.722 120.923 108.434 121.431C108.095 123.024 113.45 138.309 114.72 139.376C114.737 139.393 114.788 139.427 114.907 139.427C116.161 139.427 119.279 136.275 120.956 134.293C121.058 134.174 121.194 134.106 121.346 134.106H121.363Z" fill="#241726"/>
<path id="Vector_51" fill-rule="evenodd" clip-rule="evenodd" d="M201.261 179.13C196.092 180.757 187.01 172.335 187.992 169.505C188.433 168.234 190.009 168.471 191.839 169.268C190.788 168.234 190.128 167.116 190.365 166.048C190.856 163.93 194.398 165.438 197.143 166.98C194.889 165.387 192.737 163.303 195.279 162.506C199.634 161.151 205.887 166.607 205.887 166.607C205.887 166.607 206.666 165.963 207.666 166.929C211.835 170.945 206.446 177.486 201.261 179.13Z" fill="#E25C81"/>
<path id="Vector_52" fill-rule="evenodd" clip-rule="evenodd" d="M190.263 174.453C189.263 173.436 187.009 170.86 187.619 169.098C187.823 168.505 188.246 168.115 188.823 167.946C189.28 167.81 189.839 167.827 190.466 167.963C190.026 167.234 189.822 166.455 189.992 165.692C190.144 165.065 190.517 164.608 191.093 164.387C191.89 164.082 193.059 164.303 194.313 164.76C193.923 164.218 193.703 163.71 193.754 163.218C193.788 162.761 194.093 162.134 195.245 161.778C199.837 160.354 206.09 165.726 206.361 165.963C206.395 165.997 206.429 166.048 206.463 166.099C206.514 166.184 206.531 166.251 206.531 166.353C206.531 166.455 206.514 166.522 206.463 166.607C206.412 166.692 206.361 166.743 206.276 166.794C206.192 166.844 206.107 166.861 206.022 166.861C205.921 166.861 205.836 166.844 205.768 166.794C205.734 166.777 205.7 166.76 205.683 166.743C205.615 166.692 199.566 161.49 195.55 162.761C195.211 162.862 194.804 163.049 194.77 163.32C194.72 163.947 195.872 165.082 197.465 166.251C197.617 166.336 197.736 166.404 197.888 166.489C198.956 167.099 199.854 167.675 200.871 168.386C201.091 168.539 201.159 168.844 201.006 169.081C200.871 169.302 200.566 169.386 200.329 169.251C199.803 168.963 198.312 168.132 196.889 167.116C194.72 165.912 192.466 164.98 191.449 165.353C191.212 165.455 191.059 165.624 190.992 165.929C190.805 166.76 191.364 167.692 192.279 168.59C195.279 169.928 198.719 172.606 199.261 173.03C199.312 173.08 199.346 173.114 199.38 173.182C199.43 173.25 199.447 173.335 199.447 173.436C199.447 173.521 199.43 173.606 199.38 173.69C199.329 173.775 199.278 173.826 199.193 173.877C199.108 173.928 199.041 173.945 198.939 173.945C198.854 173.945 198.803 173.928 198.736 173.911C198.075 173.606 194.042 171.776 191.669 169.454C190.602 168.997 189.687 168.759 189.111 168.929C188.856 169.013 188.687 169.166 188.602 169.437C188.365 170.098 189.009 171.691 190.992 173.741C193.906 176.741 198.363 179.299 201.227 178.384C204.429 177.384 207.378 174.622 208.242 171.843C208.784 170.081 208.496 168.403 207.395 166.997C207.208 166.777 207.259 166.455 207.479 166.268C207.7 166.099 208.022 166.133 208.208 166.37C209.53 168.048 209.886 170.047 209.225 172.148C208.259 175.283 205.107 178.249 201.549 179.367C201.04 179.537 200.515 179.604 199.956 179.604C196.736 179.604 192.856 177.13 190.263 174.453Z" fill="#241726"/>
<path id="Vector_53" fill-rule="evenodd" clip-rule="evenodd" d="M193.55 159.185C193.55 159.185 188.297 167.895 192.246 168.268C196.194 168.658 198.719 159.287 198.719 159.287L193.55 159.185Z" fill="#E25C81"/>
<path id="Vector_54" fill-rule="evenodd" clip-rule="evenodd" d="M191.822 168.556C190.839 168.454 190.365 167.929 190.161 167.488C188.941 165.099 192.347 159.338 192.737 158.694C192.788 158.609 192.839 158.558 192.923 158.507C193.008 158.456 193.093 158.439 193.178 158.439C193.279 158.439 193.347 158.456 193.432 158.507C193.516 158.558 193.584 158.626 193.618 158.694C193.669 158.778 193.703 158.863 193.703 158.965C193.703 159.049 193.669 159.134 193.618 159.219C192.262 161.49 190.365 165.607 191.076 167.031C191.161 167.217 191.364 167.471 191.924 167.522C194.855 167.81 197.177 161.405 197.854 158.931C197.871 158.88 197.888 158.846 197.905 158.795C197.956 158.728 198.007 158.66 198.092 158.609C198.176 158.558 198.261 158.541 198.346 158.541C198.397 158.541 198.448 158.541 198.481 158.558C198.753 158.626 198.922 158.914 198.854 159.185C198.583 160.168 196.194 168.573 192.11 168.573C192.025 168.573 191.924 168.573 191.822 168.556Z" fill="#241726"/>
<path id="Vector_55" fill-rule="evenodd" clip-rule="evenodd" d="M187.264 145.171C185.196 142.087 170.522 120.719 154.559 120.719C147.645 120.719 156.355 138.478 155.847 141.562C155.338 144.663 162.032 171.437 167.183 170.928C167.183 170.928 189.314 148.256 187.264 145.171ZM58.5293 145.697C58.5293 145.697 74.4919 167.827 77.5759 168.353C80.66 168.861 103.841 154.441 104.35 151.865C104.875 149.289 102.215 121.482 97.1479 121.482C87.3534 121.482 56.9873 140.545 58.5293 145.697Z" fill="#F5D450"/>
<path id="Vector_56" fill-rule="evenodd" clip-rule="evenodd" d="M74.5766 189.501C71.4587 186.654 67.0529 186.162 67.002 186.145C66.9343 186.145 66.8665 186.128 66.7987 186.078C66.714 186.044 66.6631 185.976 66.6123 185.891C66.5615 185.806 66.5445 185.739 66.5445 185.637C66.5445 185.62 66.5445 185.603 66.5445 185.586C66.5784 185.298 66.8495 185.095 67.1207 185.129C67.3071 185.146 71.8993 185.671 75.2714 188.738C75.3053 188.772 75.3392 188.823 75.3731 188.857C75.407 188.941 75.4409 189.026 75.4409 189.128C75.4409 189.212 75.407 189.297 75.3731 189.382C75.3222 189.467 75.2545 189.517 75.1867 189.568C75.1019 189.619 75.0172 189.636 74.9155 189.636C74.7969 189.636 74.6783 189.585 74.5766 189.501ZM69.6625 193.127C67.7138 190.331 63.4435 189.348 63.3927 189.348C63.3418 189.331 63.3079 189.314 63.2571 189.297C63.1724 189.246 63.1046 189.179 63.0707 189.094C63.0199 189.026 63.0029 188.941 63.0029 188.84C63.0029 188.806 63.0029 188.772 63.0029 188.738C63.0199 188.687 63.0368 188.636 63.0707 188.585C63.1046 188.501 63.1724 188.45 63.2571 188.399C63.3418 188.348 63.4096 188.331 63.5113 188.331C63.5452 188.331 63.5791 188.331 63.6299 188.348C63.8163 188.382 68.3238 189.416 70.5097 192.534C70.5097 192.551 70.5267 192.551 70.5267 192.568C70.5775 192.652 70.5945 192.737 70.5945 192.822C70.5945 192.923 70.5775 193.008 70.5267 193.076C70.4759 193.161 70.425 193.228 70.3403 193.279C70.2556 193.313 70.1708 193.347 70.0861 193.347C69.9167 193.347 69.7641 193.262 69.6625 193.127ZM86.5909 161.236C82.7274 139.562 91.539 131.717 91.9118 131.395C92.1321 131.208 92.454 131.242 92.6404 131.446C92.6574 131.479 92.6743 131.496 92.6913 131.53C92.7421 131.615 92.776 131.683 92.776 131.784C92.776 131.886 92.7421 131.954 92.6913 132.039C92.6743 132.089 92.6404 132.14 92.5896 132.174C92.5049 132.259 83.8627 140.02 87.6077 161.049C87.6077 161.083 87.6246 161.1 87.6246 161.134C87.6246 161.236 87.5907 161.32 87.5568 161.388C87.506 161.473 87.4382 161.541 87.3535 161.591C87.2857 161.625 87.201 161.659 87.0993 161.659C86.8621 161.659 86.6418 161.473 86.5909 161.236ZM168.2 164.93C168.115 164.879 168.064 164.828 168.014 164.743C167.98 164.675 167.963 164.608 167.946 164.54C166.438 150.628 159.795 137.393 159.727 137.258C159.71 137.19 159.693 137.122 159.693 137.038C159.693 136.953 159.71 136.868 159.761 136.783C159.812 136.699 159.863 136.648 159.948 136.597C160.032 136.546 160.117 136.529 160.202 136.529C160.303 136.529 160.388 136.546 160.456 136.597C160.541 136.648 160.608 136.699 160.642 136.783C160.659 136.783 160.659 136.783 160.659 136.783C160.727 136.919 167.437 150.34 168.979 164.421C168.979 164.455 168.979 164.472 168.979 164.489C168.979 164.574 168.963 164.659 168.912 164.743C168.861 164.828 168.81 164.879 168.725 164.93C168.641 164.981 168.556 164.997 168.471 164.997H168.454C168.369 164.997 168.285 164.981 168.2 164.93ZM167.353 68.9678C167.251 68.9678 167.166 68.9509 167.082 68.9001C167.014 68.8492 166.946 68.7814 166.895 68.7137C166.861 68.6289 166.827 68.5442 166.827 68.4425C166.827 68.3578 166.844 68.29 166.895 68.2053C167.031 67.9681 179.926 43.5497 168.098 35.6701C161.879 31.5354 157.338 31.044 154.61 31.366C151.695 31.7049 150.204 33.0266 150.187 33.0436C150.153 33.0605 150.136 33.0944 150.102 33.1114C150.018 33.1453 149.933 33.1791 149.848 33.1791C149.746 33.1791 149.662 33.1453 149.577 33.1114C149.526 33.0775 149.492 33.0436 149.458 33.0097C149.441 32.9758 149.408 32.9589 149.391 32.925C149.34 32.8402 149.323 32.7555 149.323 32.6538C149.323 32.5691 149.34 32.4844 149.391 32.3997C149.424 32.3488 149.458 32.3149 149.492 32.281C149.763 32.0438 156.118 26.4349 168.658 34.8059C173.911 38.3136 175.419 45.3121 172.996 55.0557C171.199 62.3083 167.827 68.6289 167.793 68.6967C167.793 68.6967 167.793 68.6967 167.793 68.7137C167.742 68.7814 167.692 68.8492 167.607 68.9001C167.522 68.9509 167.437 68.9678 167.353 68.9678Z" fill="#241726"/>
<path id="Vector_57" fill-rule="evenodd" clip-rule="evenodd" d="M126.667 150.577C131.818 152.119 129.751 168.861 130.276 170.928C130.785 172.979 117.144 172.724 117.144 172.724C115.076 175.3 113.026 179.926 111.738 179.164C110.45 178.384 107.875 174.012 107.875 174.012C107.875 174.012 94.2335 174.012 93.454 172.979C92.6745 171.945 90.3699 151.102 96.8092 150.831C96.8092 150.831 121.516 149.035 126.667 150.577Z" fill="white"/>
<path id="Vector_58" fill-rule="evenodd" clip-rule="evenodd" d="M111.467 179.604C110.247 178.876 108.196 175.537 107.586 174.521C102.35 174.521 93.8267 174.351 93.0472 173.284C92.2508 172.233 90.7426 158.609 93.42 152.983C94.2164 151.272 95.3518 150.373 96.7752 150.323C96.8769 150.323 108.993 149.441 117.94 149.441C122.464 149.441 125.362 149.645 126.819 150.085C131.073 151.356 130.852 161.252 130.734 167.166C130.7 168.878 130.666 170.352 130.768 170.793C130.852 171.098 130.785 171.386 130.581 171.64C129.751 172.707 125.701 173.25 118.55 173.25C118.042 173.25 117.635 173.25 117.381 173.25C116.771 174.029 116.161 175.012 115.568 175.944C114.076 178.316 113.094 179.757 112.043 179.757C111.84 179.757 111.653 179.706 111.467 179.604ZM117.94 150.475C109.044 150.475 96.9616 151.339 96.843 151.356C95.911 151.39 95.1654 151.932 94.5554 153.017C91.7763 157.931 93.3183 171.674 93.8775 172.691C94.5723 173.165 101.554 173.487 107.874 173.487C108.061 173.487 108.23 173.589 108.315 173.741C109.332 175.47 111.145 178.198 111.992 178.723H112.043C112.585 178.723 113.856 176.724 114.703 175.402C115.364 174.351 116.042 173.267 116.737 172.402C116.839 172.284 116.94 172.199 117.144 172.216C117.161 172.216 117.703 172.216 118.55 172.216C126.921 172.216 129.565 171.42 129.785 170.996C129.632 170.488 129.649 169.335 129.7 167.149C129.819 161.896 130.022 152.119 126.514 151.068C125.193 150.678 122.295 150.475 117.94 150.475Z" fill="#241726"/>
<path id="Vector_59" fill-rule="evenodd" clip-rule="evenodd" d="M108.925 163.286C108.925 163.286 120.77 147.577 121.532 147.832C122.312 148.086 125.311 152 125.904 152.983C126.464 153.881 113.043 170.233 110.721 171.521C108.4 172.809 99.4017 163.286 99.6559 162.506C99.9101 161.727 102.994 156.575 103.774 157.609C103.774 157.609 107.959 162.642 108.925 163.286Z" fill="#995780"/>
<path id="Vector_60" fill-rule="evenodd" clip-rule="evenodd" d="M163.591 171.979C163.506 171.979 163.421 171.945 163.337 171.911C163.252 171.86 163.201 171.793 163.15 171.708C163.099 171.64 163.083 171.555 163.083 171.454C163.083 171.403 163.083 171.369 163.099 171.335C163.54 169.624 162.676 168.268 162.659 168.251L162.642 168.234C162.591 168.149 162.574 168.065 162.574 167.963C162.574 167.878 162.591 167.793 162.642 167.709C162.693 167.641 162.744 167.59 162.811 167.539L162.828 167.522C162.913 167.471 162.998 167.455 163.083 167.455C163.184 167.455 163.269 167.471 163.354 167.522C163.421 167.556 163.472 167.607 163.523 167.692C163.574 167.76 164.658 169.437 164.099 171.589C164.031 171.826 163.828 171.979 163.591 171.979ZM159.287 167.471C159.202 167.471 159.117 167.455 159.033 167.404C158.948 167.353 158.897 167.302 158.846 167.217C158.795 167.133 158.778 167.048 158.778 166.963C158.778 166.912 158.778 166.878 158.795 166.828C159.236 165.116 158.372 163.76 158.355 163.76C158.355 163.743 158.338 163.743 158.338 163.727C158.287 163.642 158.27 163.557 158.27 163.472C158.27 163.371 158.287 163.286 158.338 163.218C158.389 163.133 158.439 163.083 158.507 163.032C158.507 163.032 158.524 163.032 158.524 163.015C158.609 162.981 158.694 162.947 158.778 162.947C158.88 162.947 158.965 162.981 159.05 163.015C159.117 163.066 159.168 163.117 159.219 163.184C159.27 163.252 160.354 164.947 159.795 167.082C159.727 167.319 159.524 167.471 159.287 167.471ZM163.15 163.489C163.066 163.438 162.998 163.388 162.964 163.303C162.913 163.218 162.896 163.133 162.896 163.049C162.896 162.998 162.896 162.964 162.913 162.913C163.354 161.202 162.472 159.846 162.456 159.846C162.456 159.829 162.456 159.829 162.456 159.812C162.405 159.727 162.371 159.643 162.371 159.558C162.371 159.456 162.405 159.389 162.456 159.304C162.489 159.219 162.557 159.151 162.642 159.117C162.71 159.067 162.794 159.033 162.896 159.033C162.981 159.033 163.066 159.067 163.15 159.117C163.218 159.151 163.269 159.202 163.32 159.27C163.371 159.338 164.455 161.032 163.896 163.167C163.845 163.405 163.625 163.557 163.404 163.557C163.303 163.557 163.235 163.54 163.15 163.489ZM160.083 161.795C159.982 161.795 159.897 161.778 159.812 161.727C159.744 161.676 159.676 161.625 159.626 161.541C159.575 161.456 159.558 161.371 159.558 161.286C159.558 161.236 159.575 161.202 159.575 161.151C160.015 159.439 159.151 158.084 159.134 158.084C159.134 158.067 159.134 158.067 159.117 158.05C159.066 157.965 159.05 157.88 159.05 157.796C159.05 157.694 159.066 157.626 159.117 157.541C159.168 157.457 159.236 157.389 159.304 157.355C159.388 157.304 159.473 157.287 159.575 157.287C159.66 157.287 159.744 157.304 159.829 157.355C159.897 157.389 159.948 157.44 159.998 157.508C160.049 157.575 161.134 159.27 160.575 161.405C160.507 161.642 160.303 161.795 160.083 161.795ZM160.998 155.864C160.914 155.813 160.846 155.745 160.812 155.677C160.761 155.593 160.744 155.508 160.744 155.406C160.744 155.372 160.744 155.322 160.744 155.288C161.202 153.576 160.32 152.221 160.303 152.204V152.187C160.253 152.102 160.219 152.017 160.219 151.916C160.219 151.831 160.253 151.746 160.303 151.661C160.337 151.594 160.388 151.543 160.456 151.492C160.473 151.492 160.473 151.475 160.49 151.475C160.575 151.424 160.642 151.407 160.744 151.407C160.829 151.407 160.914 151.424 160.998 151.475C161.066 151.526 161.117 151.577 161.168 151.644C161.219 151.712 162.303 153.39 161.744 155.542C161.693 155.779 161.473 155.932 161.252 155.932C161.151 155.932 161.083 155.898 160.998 155.864ZM161.388 176.995C161.303 176.944 161.252 176.893 161.202 176.808C161.151 176.724 161.134 176.639 161.134 176.537C161.134 176.503 161.134 176.469 161.151 176.419C161.591 174.724 160.71 173.352 160.71 173.335C160.693 173.335 160.693 173.318 160.693 173.318C160.642 173.233 160.625 173.148 160.625 173.063C160.625 172.962 160.642 172.877 160.693 172.792C160.727 172.725 160.778 172.674 160.846 172.623C160.863 172.623 160.863 172.623 160.88 172.606C160.964 172.572 161.032 172.538 161.134 172.538C161.235 172.538 161.303 172.572 161.388 172.606C161.456 172.657 161.524 172.708 161.557 172.775C161.608 172.843 162.693 174.521 162.134 176.673C162.134 176.724 162.117 176.758 162.083 176.808C162.049 176.893 161.981 176.944 161.896 176.995C161.812 177.046 161.744 177.063 161.642 177.063C161.54 177.063 161.473 177.046 161.388 176.995ZM166.268 178.554C166.2 178.503 166.133 178.452 166.082 178.367C166.048 178.283 166.014 178.198 166.014 178.113C166.014 178.062 166.031 178.028 166.031 177.978C166.472 176.266 165.607 174.911 165.59 174.911C165.59 174.894 165.59 174.894 165.573 174.877C165.523 174.792 165.506 174.724 165.506 174.622C165.506 174.521 165.523 174.453 165.573 174.368C165.624 174.3 165.675 174.233 165.743 174.199C165.743 174.182 165.76 174.182 165.777 174.182C165.845 174.131 165.929 174.114 166.031 174.114C166.116 174.114 166.2 174.131 166.285 174.182C166.353 174.216 166.404 174.267 166.455 174.334C166.505 174.402 167.59 176.097 167.031 178.249C166.98 178.469 166.76 178.622 166.539 178.622C166.438 178.622 166.353 178.605 166.268 178.554ZM165.557 183.129C165.455 183.129 165.387 183.112 165.302 183.061C165.218 183.01 165.15 182.943 165.116 182.875C165.065 182.79 165.048 182.705 165.048 182.604C165.048 182.57 165.048 182.519 165.065 182.485C165.506 180.774 164.625 179.418 164.625 179.401C164.608 179.401 164.608 179.384 164.608 179.384C164.557 179.299 164.54 179.215 164.54 179.13C164.54 179.028 164.557 178.944 164.608 178.859C164.641 178.791 164.692 178.74 164.76 178.689C164.777 178.689 164.777 178.689 164.794 178.672C164.879 178.622 164.947 178.605 165.048 178.605C165.15 178.605 165.218 178.622 165.302 178.672C165.37 178.723 165.438 178.774 165.472 178.842C165.523 178.91 166.607 180.587 166.048 182.739C165.997 182.977 165.777 183.129 165.557 183.129Z" fill="#241726"/>
</g>
</g>
</g>
</g>
</g>
</g>
</g>
</g>
</g>
</g>
<defs>
<clipPath id="clip0_1929_103">
<rect width="230" height="230" fill="white"/>
</clipPath>
</defs>
</svg>
