<svg version="1.2" width="135.73mm" height="135.73mm" viewBox="0 0 13573 13573" preserveAspectRatio="xMidYMid" fill-rule="evenodd" stroke-width="28.222" stroke-linejoin="round" xmlns="http://www.w3.org/2000/svg" xmlns:ooo="http://xml.openoffice.org/svg/export" xmlns:xlink="http://www.w3.org/1999/xlink" xmlns:presentation="http://sun.com/xmlns/staroffice/presentation" xmlns:smil="http://www.w3.org/2001/SMIL20/" xmlns:anim="urn:oasis:names:tc:opendocument:xmlns:animation:1.0" xml:space="preserve">
 <defs class="ClipPathGroup">
  <clipPath id="presentation_clip_path" clipPathUnits="userSpaceOnUse">
   <rect x="0" y="0" width="13573" height="13573"/>
  </clipPath>
  <clipPath id="presentation_clip_path_shrink" clipPathUnits="userSpaceOnUse">
   <rect x="13" y="13" width="13546" height="13546"/>
  </clipPath>
 </defs>
 <defs class="TextShapeIndex">
  <g ooo:slide="id1" ooo:id-list="id3"/>
 </defs>
 <defs class="EmbeddedBulletChars">
  <g id="bullet-char-template-57356" transform="scale(0.00048828125,-0.00048828125)">
   <path d="M 580,1141 L 1163,571 580,0 -4,571 580,1141 Z"/>
  </g>
  <g id="bullet-char-template-57354" transform="scale(0.00048828125,-0.00048828125)">
   <path d="M 8,1128 L 1137,1128 1137,0 8,0 8,1128 Z"/>
  </g>
  <g id="bullet-char-template-10146" transform="scale(0.00048828125,-0.00048828125)">
   <path d="M 174,0 L 602,739 174,1481 1456,739 174,0 Z M 1358,739 L 309,1346 659,739 1358,739 Z"/>
  </g>
  <g id="bullet-char-template-10132" transform="scale(0.00048828125,-0.00048828125)">
   <path d="M 2015,739 L 1276,0 717,0 1260,543 174,543 174,936 1260,936 717,1481 1274,1481 2015,739 Z"/>
  </g>
  <g id="bullet-char-template-10007" transform="scale(0.00048828125,-0.00048828125)">
   <path d="M 0,-2 C -7,14 -16,27 -25,37 L 356,567 C 262,823 215,952 215,954 215,979 228,992 255,992 264,992 276,990 289,987 310,991 331,999 354,1012 L 381,999 492,748 772,1049 836,1024 860,1049 C 881,1039 901,1025 922,1006 886,937 835,863 770,784 769,783 710,716 594,584 L 774,223 C 774,196 753,168 711,139 L 727,119 C 717,90 699,76 672,76 641,76 570,178 457,381 L 164,-76 C 142,-110 111,-127 72,-127 30,-127 9,-110 8,-76 1,-67 -2,-52 -2,-32 -2,-23 -1,-13 0,-2 Z"/>
  </g>
  <g id="bullet-char-template-10004" transform="scale(0.00048828125,-0.00048828125)">
   <path d="M 285,-33 C 182,-33 111,30 74,156 52,228 41,333 41,471 41,549 55,616 82,672 116,743 169,778 240,778 293,778 328,747 346,684 L 369,508 C 377,444 397,411 428,410 L 1163,1116 C 1174,1127 1196,1133 1229,1133 1271,1133 1292,1118 1292,1087 L 1292,965 C 1292,929 1282,901 1262,881 L 442,47 C 390,-6 338,-33 285,-33 Z"/>
  </g>
  <g id="bullet-char-template-9679" transform="scale(0.00048828125,-0.00048828125)">
   <path d="M 813,0 C 632,0 489,54 383,161 276,268 223,411 223,592 223,773 276,916 383,1023 489,1130 632,1184 813,1184 992,1184 1136,1130 1245,1023 1353,916 1407,772 1407,592 1407,412 1353,268 1245,161 1136,54 992,0 813,0 Z"/>
  </g>
  <g id="bullet-char-template-8226" transform="scale(0.00048828125,-0.00048828125)">
   <path d="M 346,457 C 273,457 209,483 155,535 101,586 74,649 74,723 74,796 101,859 155,911 209,963 273,989 346,989 419,989 480,963 531,910 582,859 608,796 608,723 608,648 583,586 532,535 482,483 420,457 346,457 Z"/>
  </g>
  <g id="bullet-char-template-8211" transform="scale(0.00048828125,-0.00048828125)">
   <path d="M -4,459 L 1135,459 1135,606 -4,606 -4,459 Z"/>
  </g>
  <g id="bullet-char-template-61548" transform="scale(0.00048828125,-0.00048828125)">
   <path d="M 173,740 C 173,903 231,1043 346,1159 462,1274 601,1332 765,1332 928,1332 1067,1274 1183,1159 1299,1043 1357,903 1357,740 1357,577 1299,437 1183,322 1067,206 928,148 765,148 601,148 462,206 346,322 231,437 173,577 173,740 Z"/>
  </g>
 </defs>
 <defs class="TextEmbeddedBitmaps"/>
 <g>
  <g id="id2" class="Master_Slide">
   <g id="bg-id2" class="Background"/>
   <g id="bo-id2" class="BackgroundObjects"/>
  </g>
 </g>
 <g class="SlideGroup">
  <g>
   <g id="container-id1">
    <g id="id1" class="Slide" clip-path="url(#presentation_clip_path)">
     <g class="Page">
      <g class="Graphic">
       <g id="id3">
        <rect class="BoundingBox" stroke="none" fill="none" x="0" y="0" width="13573" height="13573"/>
        <path fill="rgb(255,255,255)" stroke="none" d="M 12744,8164 C 12621,8093 12500,8061 12359,8061 12217,8061 12096,8093 11973,8164 11899,8207 11842,8253 11785,8317 L 10959,9238 C 11299,6754 11417,4438 11465,3805 L 10854,2304 10079,2245 C 9922,1234 8703,896 8153,1681 7889,1195 7344,971 6862,1137 6799,1159 6746,1182 6688,1216 6552,1295 6451,1387 6362,1517 6357,1508 6353,1501 6348,1493 6269,1356 6180,1252 6056,1154 6077,1082 6086,1018 6086,943 6086,801 6054,680 5983,557 5912,435 5823,346 5701,275 5578,204 5457,172 5315,172 5173,172 5053,204 4930,275 4856,318 4799,364 4741,428 L 2385,3057 1820,2338 C 1756,2256 1689,2197 1599,2145 1476,2074 1355,2042 1213,2042 1071,2042 951,2074 828,2145 705,2216 617,2305 546,2428 475,2550 443,2671 443,2813 443,2955 475,3075 546,3198 565,3232 584,3259 608,3290 L 1739,4731 C 1803,4813 1871,4871 1960,4923 2083,4994 2204,5026 2346,5026 2487,5026 2608,4994 2731,4923 2805,4880 2862,4834 2920,4770 L 3480,4145 2518,12037 3087,12060 3475,13010 3648,13037 C 6035,13414 8095,13400 8051,13400 9340,13400 10029,13250 10105,13241 10162,13095 10263,12875 10443,12123 L 12933,9346 C 12970,9305 12998,9266 13026,9218 13097,9095 13129,8974 13129,8832 13129,8690 13097,8569 13026,8446 12983,8372 12937,8315 12873,8258 12831,8220 12793,8192 12744,8164 Z"/>
        <path fill="rgb(122,208,1)" stroke="none" d="M 852,3098 C 839,3081 828,3065 817,3046 775,2973 756,2901 756,2816 756,2732 775,2660 817,2586 860,2513 912,2460 986,2418 1059,2375 1131,2356 1216,2356 1301,2356 1373,2375 1446,2418 1499,2448 1538,2482 1576,2529 L 2369,3540 4972,636 C 5007,597 5041,570 5085,544 5158,502 5230,482 5315,482 5400,482 5472,502 5545,544 5619,587 5672,639 5714,713 5756,786 5776,858 5776,943 5776,1028 5756,1100 5714,1173 5697,1202 5680,1225 5658,1250 L 2688,4563 C 2654,4601 2620,4628 2576,4654 2502,4696 2430,4716 2346,4716 2261,4716 2189,4696 2115,4654 2062,4623 2022,4588 1983,4540 L 852,3098 Z"/>
        <path fill="rgb(0,171,254)" stroke="none" d="M 11151,3856 L 10639,2599 5723,9981 3740,10280 3265,11674 3697,12731 C 3697,12731 7590,13348 9881,12963 9881,12963 10730,10836 11151,3856 L 11151,3856 Z"/>
        <path fill="rgb(163,105,247)" stroke="none" d="M 10639,2599 C 10639,2599 10088,9820 9210,12207 L 3367,11924 3265,11673 10639,2599 Z"/>
        <path fill="rgb(234,229,219)" stroke="none" d="M 4043,2091 L 10639,2599 8859,11986 2867,11741 4043,2091 Z"/>
        <path fill="rgb(255,176,32)" stroke="none" d="M 5059,2734 C 5062,2737 5066,2739 5070,2741 5088,2752 5107,2757 5128,2757 5150,2757 5168,2752 5187,2741 5206,2731 5219,2717 5230,2698 5230,2698 5231,2697 5231,2696 5243,2674 5248,2653 5248,2628 5248,2601 5242,2578 5228,2554 5217,2535 5204,2520 5185,2507 4825,2255 4857,1665 5262,1525 5653,1390 6046,1812 5929,2236 L 6187,2256 C 6300,1647 5737,1071 5172,1265 4578,1470 4509,2350 5059,2734 Z"/>
        <path fill="rgb(255,176,32)" stroke="none" d="M 6850,2899 C 6854,2902 6857,2904 6861,2906 6880,2917 6898,2922 6919,2922 6941,2922 6959,2917 6978,2906 6997,2895 7010,2882 7021,2863 7021,2862 7022,2862 7022,2861 7034,2839 7039,2818 7039,2793 7039,2766 7033,2742 7019,2719 7008,2699 6995,2685 6977,2672 6614,2418 6649,1829 7052,1690 7314,1600 7608,1763 7708,2052 7730,2118 7740,2177 7740,2247 7740,2292 7736,2331 7726,2375 L 7982,2394 C 7989,2348 7992,2309 7992,2262 7992,2158 7977,2070 7943,1972 7794,1538 7354,1296 6963,1430 6369,1635 6299,2514 6850,2899 Z"/>
        <path fill="rgb(255,176,32)" stroke="none" d="M 9734,2136 C 9517,1507 8750,1354 8402,1868 8143,2251 8266,2802 8640,3064 8644,3066 8647,3069 8651,3071 8670,3082 8688,3087 8710,3087 8732,3087 8750,3082 8769,3071 8787,3060 8801,3047 8812,3028 8812,3027 8812,3026 8813,3026 8824,3004 8830,2982 8830,2958 8830,2930 8823,2907 8810,2884 8799,2864 8785,2850 8767,2837 8515,2661 8440,2301 8601,2049 8825,1696 9350,1786 9498,2217 9521,2283 9531,2343 9531,2413 9531,2448 9529,2478 9523,2513 L 9777,2533 C 9781,2497 9783,2466 9783,2429 9783,2325 9768,2236 9734,2136 Z"/>
        <path fill="rgb(178,172,163)" stroke="none" d="M 5707,5364 L 4389,5301 C 4378,5300 4369,5297 4359,5292 4349,5286 4341,5278 4335,5268 4329,5257 4326,5247 4326,5235 4326,5232 4326,5231 4327,5228 L 4445,3988 C 4446,3978 4448,3970 4453,3961 4459,3950 4467,3943 4477,3937 4488,3931 4498,3928 4510,3928 L 5863,3922 5863,3922 C 5863,3922 5863,3922 5863,3922 5875,3922 5885,3925 5896,3931 5906,3937 5914,3944 5920,3955 5926,3965 5929,3976 5929,3988 5929,3991 5929,3993 5929,3996 L 5776,5306 C 5775,5315 5773,5323 5768,5331 5762,5342 5754,5349 5744,5355 5733,5362 5723,5364 5711,5364 L 5707,5364 Z M 4465,5172 L 5652,5229 5789,4054 4571,4060 4465,5172 Z"/>
        <path fill="rgb(178,172,163)" stroke="none" d="M 4225,7501 C 4214,7501 4204,7498 4195,7493 4184,7487 4177,7479 4171,7468 4165,7458 4162,7447 4162,7435 4162,7433 4162,7431 4162,7429 L 4280,6189 C 4281,6179 4284,6170 4289,6162 4295,6151 4302,6144 4313,6137 4323,6131 4333,6129 4346,6129 L 5698,6123 5698,6123 C 5710,6123 5721,6125 5731,6131 5742,6137 5749,6145 5756,6156 5762,6166 5764,6176 5764,6189 5764,6191 5764,6194 5764,6196 L 5612,7507 C 5611,7516 5608,7524 5603,7532 5597,7542 5590,7550 5579,7556 5569,7562 5558,7565 5546,7565 5545,7565 5544,7565 5543,7565 L 4225,7501 Z M 4300,7372 L 5488,7430 5624,6255 4406,6261 4300,7372 Z"/>
        <path fill="rgb(178,172,163)" stroke="none" d="M 5372,9748 L 4054,9684 C 4043,9684 4034,9681 4024,9675 4014,9669 4006,9662 4000,9651 3994,9641 3991,9630 3991,9618 3991,9616 3991,9614 3992,9612 L 4110,8371 C 4111,8361 4113,8353 4118,8344 4124,8334 4132,8326 4142,8320 4153,8314 4163,8311 4175,8311 L 5528,8305 5528,8305 C 5528,8305 5528,8305 5528,8305 5540,8305 5550,8308 5561,8314 5571,8320 5579,8328 5585,8338 5591,8349 5594,8359 5594,8371 5594,8374 5594,8376 5594,8379 L 5441,9689 C 5440,9699 5438,9706 5433,9715 5427,9725 5419,9733 5409,9739 5398,9745 5388,9748 5376,9748 L 5372,9748 Z M 4130,9555 L 5317,9613 5453,8438 4235,8443 4130,9555 Z"/>
        <path fill="rgb(255,96,91)" stroke="none" d="M 4430,4337 C 4428,4334 4426,4332 4424,4329 4418,4319 4416,4308 4416,4296 4416,4284 4418,4274 4424,4263 4431,4253 4438,4245 4449,4239 4459,4233 4470,4230 4482,4230 4494,4230 4504,4233 4515,4239 4522,4243 4528,4248 4534,4255 L 5007,4859 6113,3625 C 6118,3620 6123,3616 6130,3612 6140,3606 6150,3603 6163,3603 6175,3603 6185,3606 6196,3612 6206,3618 6214,3626 6220,3636 6226,3647 6229,3657 6229,3670 6229,3682 6226,3692 6220,3703 6217,3707 6215,3710 6212,3714 L 5053,5006 C 5048,5011 5044,5015 5037,5019 5027,5025 5016,5028 5004,5028 4992,5028 4982,5025 4971,5019 4963,5015 4958,5010 4952,5003 L 4430,4337 Z"/>
        <path fill="rgb(255,96,91)" stroke="none" d="M 4275,6614 C 4273,6612 4271,6609 4270,6607 4263,6596 4261,6586 4261,6574 4261,6561 4263,6551 4270,6540 4276,6530 4283,6522 4294,6516 4304,6510 4315,6507 4327,6507 4339,6507 4349,6510 4360,6516 4368,6521 4373,6526 4379,6533 L 4853,7136 5958,5903 C 5963,5898 5968,5894 5974,5890 5985,5884 5995,5881 6007,5881 6019,5881 6030,5884 6040,5890 6051,5896 6058,5904 6064,5914 6070,5925 6073,5935 6073,5947 6073,5960 6070,5970 6064,5981 6062,5984 6060,5988 6057,5991 L 4898,7283 C 4894,7289 4889,7293 4882,7296 4872,7302 4861,7305 4849,7305 4837,7305 4827,7302 4816,7296 4808,7292 4803,7287 4797,7280 L 4275,6614 Z"/>
        <path fill="rgb(255,96,91)" stroke="none" d="M 4115,8840 C 4113,8837 4111,8835 4110,8832 4103,8821 4101,8811 4101,8799 4101,8786 4103,8776 4110,8766 4116,8755 4123,8747 4134,8741 4144,8735 4155,8733 4167,8733 4179,8733 4189,8735 4200,8741 4208,8746 4213,8751 4219,8758 L 4693,9361 5798,8128 C 5803,8122 5808,8118 5815,8115 5825,8109 5836,8106 5848,8106 5860,8106 5870,8109 5881,8115 5891,8121 5899,8128 5905,8139 5911,8149 5914,8160 5914,8172 5914,8184 5911,8195 5905,8205 5903,8209 5900,8213 5897,8216 L 4738,9508 C 4734,9514 4729,9518 4722,9521 4712,9528 4701,9530 4689,9530 4677,9530 4667,9528 4656,9521 4648,9517 4643,9512 4637,9505 L 4115,8840 Z"/>
        <path fill="rgb(29,29,61)" stroke="none" d="M 6315,4373 C 6304,4367 6297,4359 6291,4349 6285,4338 6282,4328 6282,4316 6282,4303 6285,4293 6291,4283 6297,4272 6304,4264 6315,4258 6325,4252 6336,4250 6348,4250 6350,4250 6352,4250 6354,4250 6376,4252 8533,4477 9458,4379 9461,4378 9463,4378 9465,4378 9478,4378 9488,4381 9498,4387 9509,4393 9517,4401 9523,4411 9529,4422 9532,4432 9532,4444 9532,4457 9529,4467 9523,4478 9517,4488 9509,4496 9498,4502 9490,4507 9482,4509 9472,4510 8705,4592 7094,4461 6340,4381 6331,4380 6323,4378 6315,4373 Z"/>
        <path fill="rgb(29,29,61)" stroke="none" d="M 6169,6727 C 6159,6721 6151,6714 6145,6703 6139,6693 6136,6682 6136,6670 6136,6658 6139,6648 6145,6637 6151,6626 6159,6619 6169,6613 6180,6607 6190,6604 6203,6604 6204,6604 6205,6604 6207,6604 6225,6606 8032,6753 9193,6604 9196,6604 9198,6604 9200,6604 9212,6604 9223,6607 9233,6613 9244,6619 9251,6627 9257,6637 9264,6648 9266,6658 9266,6670 9266,6682 9264,6693 9257,6703 9251,6714 9244,6721 9233,6727 9226,6732 9218,6734 9210,6736 8368,6843 7029,6805 6196,6736 6186,6735 6178,6732 6169,6727 Z"/>
        <path fill="rgb(29,29,61)" stroke="none" d="M 5975,8965 C 5964,8959 5956,8952 5950,8941 5944,8930 5941,8920 5941,8908 5941,8896 5944,8885 5950,8875 5956,8864 5964,8857 5975,8851 5985,8845 5995,8842 6008,8842 6009,8842 6009,8842 6010,8842 6029,8843 7902,8916 8768,8842 8770,8842 8772,8842 8774,8842 8786,8842 8796,8845 8807,8851 8818,8857 8825,8864 8831,8875 8837,8885 8840,8896 8840,8908 8840,8920 8837,8930 8831,8941 8825,8952 8818,8959 8807,8965 8798,8970 8790,8973 8780,8974 8087,9033 6696,9001 6005,8974 5994,8974 5984,8971 5975,8965 Z"/>
        <path fill="rgb(122,208,1)" stroke="none" d="M 7895,10987 C 7880,10968 7869,10951 7857,10931 7815,10857 7795,10785 7795,10700 7795,10616 7815,10544 7857,10470 7899,10397 7952,10344 8025,10302 8099,10259 8171,10240 8256,10240 8340,10240 8412,10259 8486,10302 8540,10333 8581,10369 8619,10418 L 9412,11429 12016,8524 C 12050,8486 12084,8459 12128,8433 12202,8391 12274,8371 12359,8371 12443,8371 12515,8391 12589,8433 12662,8475 12715,8528 12757,8602 12800,8675 12819,8747 12819,8832 12819,8917 12800,8989 12757,9062 12741,9091 12724,9114 12701,9139 L 9732,12451 C 9698,12490 9663,12517 9619,12543 9546,12585 9474,12605 9389,12605 9304,12605 9232,12585 9159,12543 9105,12512 9065,12477 9027,12428 L 7895,10987 Z"/>
       </g>
      </g>
     </g>
    </g>
   </g>
  </g>
 </g>
</svg>