<svg width="24" height="24" viewBox="0 0 24 24" fill="none" xmlns="http://www.w3.org/2000/svg">
<rect width="24" height="24" rx="12" fill="#86AE2F"/>
<path fill-rule="evenodd" clip-rule="evenodd" d="M15.1578 3.01709C15.1731 2.99951 15.2006 2.99365 15.219 3.0083L16.5518 3.90188C16.5732 3.9136 16.5762 3.93997 16.564 3.96048L14.7084 6.50058C15.6102 6.77598 16.2247 7.07482 16.2247 7.07482C16.2247 7.07482 14.7207 9.55047 12.1742 9.55047C9.62476 9.55047 7.812 7.24182 7.812 7.24182C7.812 7.24182 8.45396 6.84923 9.40772 6.5123L7.3718 4.189C7.35651 4.17142 7.35957 4.14505 7.37791 4.1304L8.62514 3.12549C8.64043 3.11084 8.66794 3.11377 8.68323 3.13135L11.2633 6.07577C11.4834 6.05233 11.7065 6.03768 11.9358 6.03768C12.2598 6.03768 12.5869 6.06112 12.9049 6.10214L15.1578 3.01709ZM15.6622 9.66766C16.3439 9.20476 17.371 7.98891 17.371 7.98891C17.371 7.98891 20 9.98408 20 14.2176C20 18.4511 15.4574 21 15.4574 21C15.4574 21 13.2839 18.8994 12.752 16.2333C12.2201 13.5701 13.5407 10.611 13.5407 10.611C13.5407 10.611 14.9836 10.1335 15.6622 9.66766ZM8.33779 9.66766C7.65915 9.20476 6.62896 7.98891 6.62896 7.98891C6.62896 7.98891 4 9.98408 4 14.2176C4 18.4511 8.54566 21 8.54566 21C8.54566 21 10.7161 18.8994 11.248 16.2333C11.783 13.5701 10.4624 10.611 10.4624 10.611C10.4624 10.611 9.01949 10.1335 8.33779 9.66766Z" fill="white"/>
</svg>
