<svg width="24" height="24" viewBox="0 0 24 24" fill="none" xmlns="http://www.w3.org/2000/svg">
<rect width="24" height="24" rx="12" fill="#3E2B2B"/>
<path fill-rule="evenodd" clip-rule="evenodd" d="M11.0771 18.9199C11.417 18.9727 11.7686 18.999 12.126 18.999C15.9229 18.999 18.999 15.9229 18.999 12.126C18.999 8.3291 15.9229 5.25 12.126 5.25C11.8711 5.25 11.6191 5.26465 11.3701 5.29102C13.2539 6.71777 14.499 9.19043 14.499 12C14.499 14.9531 13.1221 17.5342 11.0771 18.9199ZM12 21C16.9688 21 21 16.9717 21 12C21 7.02832 16.9688 3 12 3C7.02832 3 3 7.02832 3 12C3 16.9717 7.02832 21 12 21Z" fill="white"/>
</svg>
