<svg width="24" height="24" viewBox="0 0 24 24" fill="none" xmlns="http://www.w3.org/2000/svg">
<rect width="24" height="24" rx="12" fill="#1B1260"/>
<path fill-rule="evenodd" clip-rule="evenodd" d="M13.1631 10.3939C13.2921 10.3141 13.3996 10.1513 13.4886 9.97013C14.6402 10.44 15.4479 11.5516 15.4479 12.8476C15.4479 14.5704 14.0199 15.9676 12.2603 15.9676C11.5355 15.9676 10.8691 15.7342 10.3348 15.335C10.1598 15.2521 10.0154 15.1723 9.89566 15.1078C9.71447 15.0064 9.59164 14.9419 9.51794 14.9511C9.29683 14.9819 9.36132 15.1845 9.41967 15.3688C9.45959 15.4916 9.49644 15.6083 9.43809 15.6575C9.37974 15.7066 9.18628 15.5223 8.9621 15.3074C8.65501 15.0156 8.28957 14.6656 8.11453 14.773C7.97941 14.8559 8.11146 15.0801 8.27422 15.3565L8.2865 15.3749C8.35406 15.4916 8.4339 15.6114 8.50761 15.7189C8.65501 15.94 8.77478 16.1181 8.71336 16.1457C8.64273 16.1826 8.14217 15.8448 7.71838 15.3749C7.55562 15.1937 7.39901 15.0003 7.2516 14.816C6.93223 14.4168 6.66506 14.0851 6.51459 14.1251C6.3334 14.1711 6.47159 14.5427 6.6712 14.902C6.76333 15.0709 6.87388 15.2398 6.96908 15.3872C7.11956 15.6175 7.23318 15.7926 7.19019 15.8141C7.13491 15.8417 6.64971 15.3688 6.32112 14.773C6.12458 14.4168 5.95875 14.0268 5.8267 13.7074C5.68237 13.3635 5.57489 13.1086 5.50426 13.081C5.25858 12.9919 5.25858 13.4955 5.35685 14.2203C5.36914 14.3124 5.38756 14.4137 5.41213 14.5151C6.37025 17.6106 9.31218 19.8677 12.7915 19.8677C17.0478 19.8677 20.4995 16.4927 20.4995 12.3286C20.4995 8.36711 17.3733 5.11809 13.3996 4.81407C13.4057 4.62675 13.504 4.25824 13.504 4.25824C13.504 4.25824 14.2041 2.56002 14.241 2.19766C14.2441 2.17309 14.2471 2.14852 14.2502 2.12088C14.2932 1.72781 14.3761 1 13.7497 1C13.4149 1 13.2583 1.24874 13.0802 1.53434C13.0126 1.64182 12.9389 1.75852 12.8529 1.866C12.2326 2.64294 11.1885 3.61027 10.5958 4.12619C9.34289 5.21943 8.11146 6.11614 7.39594 6.63819C7.07042 6.87772 6.84931 7.03741 6.78175 7.10497C6.26891 7.60553 4.42944 10.9221 4.42944 10.9221C4.42944 10.9221 3.83368 11.9877 4.04557 12.2058C4.25747 12.4207 4.76724 12.3716 4.76724 12.3716C4.76724 12.3716 11.6184 10.7993 12.2326 10.6734C12.3985 10.6427 12.5151 10.6212 12.6042 10.6089C12.8468 10.5659 12.8898 10.5597 13.1631 10.3939ZM8.32028 8.37326C7.95177 8.72334 7.34066 9.55556 7.34066 9.55556C7.34066 9.55556 8.4769 9.62619 9.10029 9.0335C9.72369 8.44082 9.58242 7.42742 9.58242 7.42742C9.58242 7.42742 8.68879 8.02317 8.32028 8.37326Z" fill="white"/>
</svg>
