<svg width="24" height="24" viewBox="0 0 24 24" fill="none" xmlns="http://www.w3.org/2000/svg">
<rect width="24" height="24" rx="12" fill="#FFEF64"/>
<path fill-rule="evenodd" clip-rule="evenodd" d="M8.75782 4.02058C8.75521 4.01176 8.76043 4 8.77087 4H14.401C14.4062 4 14.4114 4.00588 14.414 4.01176L16.9995 13.4243C17.0021 13.4332 16.9943 13.4449 16.9864 13.4449H13.2374C13.2322 13.4449 13.2296 13.4508 13.2322 13.4537L15.3819 21.9815C15.3846 21.9962 15.3663 22.0079 15.3559 21.9932L7.002 9.47646C6.99678 9.46764 7.002 9.45294 7.01504 9.45294H10.4145C10.4197 9.45294 10.4249 9.44706 10.4223 9.44119L8.75782 4.02058Z" fill="white"/>
</svg>
