<svg width="24" height="24" viewBox="0 0 24 24" fill="none" xmlns="http://www.w3.org/2000/svg">
<rect width="24" height="24" rx="12" fill="#E1A1DB"/>
<path fill-rule="evenodd" clip-rule="evenodd" d="M7.41245 16.4817L10.138 15.6903L12.4927 19.9958C12.4955 20.0014 12.5038 20.0014 12.5066 19.9958L14.8641 15.6903L17.5896 16.4817C17.5952 16.4817 17.6007 16.4762 17.6007 16.4706L16.8093 13.7977L20.9958 11.5066C21.0014 11.5038 21.0014 11.4955 20.9958 11.4927L16.7733 9.18503L17.6007 6.39585C17.6007 6.38755 17.5952 6.38201 17.5896 6.38478L14.7977 7.19552L12.5066 3.00623C12.5038 2.99792 12.4955 2.99792 12.4927 3.00623L10.2016 7.19552L7.41245 6.38478C7.40692 6.38201 7.39862 6.38755 7.40138 6.39585L8.22596 9.18503L4.00623 11.4927C3.99792 11.4955 3.99792 11.5038 4.00623 11.5066L8.19276 13.7977L7.40138 16.4706C7.39862 16.4762 7.40692 16.4817 7.41245 16.4817ZM9.52647 11.5315L11.4606 12.5857L12.5149 14.5171C12.5204 14.5254 12.5259 14.5254 12.5315 14.5171L13.5857 12.5857L15.5171 11.5315C15.5226 11.5259 15.5226 11.5204 15.5171 11.5149L13.5857 10.4606L12.5315 8.52647C12.5259 8.52094 12.5204 8.52094 12.5149 8.52647L11.4606 10.4606L9.52647 11.5149C9.52094 11.5204 9.52094 11.5259 9.52647 11.5315Z" fill="white"/>
</svg>
