<svg width="24" height="24" viewBox="0 0 24 24" fill="none" xmlns="http://www.w3.org/2000/svg">
<rect width="24" height="24" rx="12" fill="#983631"/>
<path fill-rule="evenodd" clip-rule="evenodd" d="M6.38577 4.4139C6.59226 3.60042 7.3345 3 8.21904 3C8.88036 3 9.46355 3.33756 9.80119 3.84945H10.3565C10.6997 3.50081 11.1796 3.28223 11.7098 3.28223C12.4883 3.28223 13.158 3.74984 13.4482 4.41667H13.9086C14.1988 4.23682 14.542 4.13444 14.9104 4.13444C15.6889 4.13444 16.3586 4.59928 16.646 5.26611H17.9072C17.9156 5.26611 17.9268 5.26888 17.9351 5.27441C17.9937 5.26888 18.0523 5.26611 18.1109 5.26611C19.1545 5.26611 20 6.10726 20 7.14209V12.8669C20 12.9001 20 12.936 19.9972 12.9692C19.8856 16.8706 16.3474 20 12 20C7.58284 20 4 16.7655 4 12.7756C4 10.8498 4.83432 9.09831 6.19602 7.80339C6.19044 9.68213 6.22393 11.6217 6.37182 11.5885C6.76526 11.5 6.45832 5.68392 6.38577 4.4139Z" fill="white"/>
</svg>
