<svg width="24" height="24" viewBox="0 0 24 24" fill="none" xmlns="http://www.w3.org/2000/svg">
<rect width="24" height="24" rx="12" fill="#DF6145"/>
<path fill-rule="evenodd" clip-rule="evenodd" d="M15.5185 16.4292C15.7496 15.5838 15.3026 13.8505 15.3026 13.8505C15.3026 13.8505 14.9772 15.2615 14.4694 15.7845C14.0345 16.2315 13.5054 16.5386 12.7422 16.6207C13.3655 16.3197 13.7943 15.6872 13.7943 14.9604C13.7943 13.9387 12.952 13.1085 11.9089 13.1085C10.8689 13.1085 10.0266 13.9387 10.0266 14.9604C10.0266 15.2402 10.0905 15.5047 10.203 15.7419C9.55223 15.2219 9.44884 14.3917 9.44884 14.3917C9.44884 14.3917 8.72206 17.4083 10.723 18.8284C12.7269 20.2455 16.6497 19.0261 16.6497 19.0261C16.6497 19.0261 11.0362 22.9763 6.87622 18.6794C3.29402 14.9756 5.94266 10.101 5.94266 10.101C5.94266 10.101 5.8271 10.5541 5.8271 11.0771C5.8271 11.6032 6.11295 12.0016 6.11295 12.0016C6.11295 12.0016 6.96136 10.2135 7.62125 9.48674C8.24767 8.79646 9.03223 8.23693 9.70732 7.75646C10.2304 7.38547 10.6865 7.05705 10.9602 6.75296C12.4654 5.06829 11.544 2 11.544 2C11.544 2 13.2409 3.49613 13.7152 5.43016C13.8947 6.16606 13.7791 7.00535 13.6757 7.75646C13.5085 8.97283 13.3716 9.95505 14.591 9.89119C16.5585 9.78779 14.8465 6.75296 14.8465 6.75296C14.8465 6.75296 19.3166 9.10055 18.9821 13.2088C18.6476 17.3141 14.0984 18.2507 14.0984 18.2507C14.0984 18.2507 15.2874 17.2715 15.5185 16.4292Z" fill="white"/>
</svg>
