<svg width="24" height="24" viewBox="0 0 24 24" fill="none" xmlns="http://www.w3.org/2000/svg">
<rect width="24" height="24" rx="12" fill="#98C8EB"/>
<path fill-rule="evenodd" clip-rule="evenodd" d="M10.3955 18.3945C12.6594 18.3945 14.5963 17.1368 15.3962 15.3509C15.4062 15.3308 12.184 16.1885 12.2871 15.8867C12.3324 15.7508 14.307 15.0289 15.7483 14.1863C16.5734 13.7033 16.9557 12.6795 16.9557 12.6795C16.9557 12.6795 15.5622 13.3562 14.8579 13.5272C13.4367 13.8743 12.189 13.8366 12.189 13.7989C12.189 13.7209 14.2642 13.3285 17.1469 11.5702C18.5027 10.7427 18.8725 9.31895 18.8725 9.31895C18.8725 9.31895 17.3808 10.2069 16.4803 10.5012C14.3397 11.198 12.3903 11.4067 12.3903 11.3112C12.3903 11.1099 14.1058 10.6395 15.9269 9.75663C16.8752 9.29883 17.6927 8.69765 18.6436 8.03106C20.1981 6.94189 20.4546 5 20.4546 5C20.4546 5 18.9203 5.98855 18.1732 6.31807C15.0868 7.67136 12.3601 8.38322 10.3955 8.53666C7.42737 8.76808 5 10.8383 5 13.5272C5 16.2162 7.41479 18.3945 10.3955 18.3945Z" fill="white"/>
</svg>
