<svg width="24" height="24" viewBox="0 0 24 24" fill="none" xmlns="http://www.w3.org/2000/svg">
<rect width="24" height="24" rx="12" fill="url(#paint0_linear_2103_659)"/>
<path fill-rule="evenodd" clip-rule="evenodd" d="M15.5286 19.9453C14.0859 20.0182 12.4349 20.0182 11.8724 19.9453C7.49219 19.3672 4 16.1667 4 11.8385C4 7.50781 7.58073 4 12 4C16.4193 4 20 7.50781 20 11.8385C20 13.8516 19.224 15.6875 17.9531 17.0755C17.6068 17.4505 18.0807 17.7161 18.5625 17.9844C19.0365 18.2474 19.5156 18.5156 19.237 18.8984C18.9297 19.3177 17.263 19.8568 15.5286 19.9453ZM10.875 10.8568C10.875 11.5339 10.3151 12.0833 9.625 12.0833C8.9349 12.0833 8.375 11.5339 8.375 10.8568C8.375 10.4036 8.6276 10.0078 9 9.79687C9.02344 10.3854 9.50781 10.8568 10.1016 10.8568H10.875ZM14.75 9.79687C14.7266 10.3854 14.2422 10.8568 13.6484 10.8568H12.875C12.875 11.5339 13.4349 12.0833 14.125 12.0833C14.8151 12.0833 15.375 11.5339 15.375 10.8568C15.375 10.4036 15.1224 10.0078 14.75 9.79687Z" fill="white"/>
<defs>
<linearGradient id="paint0_linear_2103_659" x1="12" y1="0" x2="12" y2="24" gradientUnits="userSpaceOnUse">
<stop/>
<stop offset="1" stop-color="#3705D7"/>
</linearGradient>
</defs>
</svg>
