<svg width="24" height="24" viewBox="0 0 24 24" fill="none" xmlns="http://www.w3.org/2000/svg">
<rect width="24" height="24" rx="12" fill="#27A927"/>
<path fill-rule="evenodd" clip-rule="evenodd" d="M7.24795 17.9577C7.19425 17.9037 7.14054 17.8496 7.08684 17.7928C4.30439 14.8515 4.30439 10.0827 7.08684 7.13867C9.87184 4.19735 18.7383 4 18.7383 4C18.7383 4 19.948 14.8515 17.1655 17.7928C14.6951 20.407 10.859 20.699 8.08166 18.6687L10.3194 15.768L13.8972 14.9515L10.9766 14.6434L12.8308 12.6455L14.9432 12.1562L13.2732 11.6345L14.9432 8.44983L12.5673 11.2668L11.6518 9.89615L11.974 12.1562L10.3194 14.127L9.55217 11.6345V14.9515L7.24795 17.9577Z" fill="white"/>
</svg>
