<svg width="24" height="24" viewBox="0 0 24 24" fill="none" xmlns="http://www.w3.org/2000/svg">
<rect width="24" height="24" rx="12" fill="#643A3A"/>
<path fill-rule="evenodd" clip-rule="evenodd" d="M6.96387 17.9504C6.95801 17.9504 6.95508 17.9445 6.95801 17.9416L11.5518 5.00584C11.5547 5.00292 11.5576 5 11.5605 5H16.4648C16.4678 5 16.4707 5.00292 16.4736 5.00584L21 17.9416C21 17.9445 20.9971 17.9504 20.9941 17.9504H6.96387ZM3.00586 18C3.00293 18 3 17.9971 3 17.9912L6.42188 8.89066C6.4248 8.88774 6.4248 8.88482 6.42773 8.88482H9.40137C9.40723 8.88482 9.41016 8.89066 9.41016 8.89358L6.09961 17.9971C6.09961 18 6.09668 18 6.09375 18H3.00586Z" fill="white"/>
</svg>
