<svg width="24" height="24" viewBox="0 0 24 24" fill="none" xmlns="http://www.w3.org/2000/svg">
<path d="M9 20.1367C8.65625 20.1367 8.34375 20.0391 8.07031 19.8398C7.79297 19.6406 7.59375 19.3828 7.46875 19.0742L5.21094 13.1367H0.863281V10.8633H6.78906L9 16.7109L13.4688 4.92578C13.5938 4.61719 13.793 4.35938 14.0703 4.16016C14.3437 3.96094 14.6562 3.86328 15 3.86328C15.3438 3.86328 15.6563 3.96094 15.9297 4.16016C16.207 4.35938 16.4062 4.61719 16.5312 4.92578L18.7891 10.8633H23.1367V13.1367H17.2109L15 7.28906L10.5312 19.0742C10.4062 19.3828 10.207 19.6406 9.92969 19.8398C9.65625 20.0391 9.34375 20.1367 9 20.1367Z" fill="#60D238"/>
</svg>
