<svg width="24" height="24" viewBox="0 0 24 24" fill="none" xmlns="http://www.w3.org/2000/svg">
<rect width="24" height="24" rx="12" fill="#96E6FF"/>
<path fill-rule="evenodd" clip-rule="evenodd" d="M16.6657 5.01953L16.7187 9.65169L12.6782 11.5911L12.6279 7.21562L16.6657 5.01953Z" fill="white"/>
<path fill-rule="evenodd" clip-rule="evenodd" d="M20.7149 12.3197L16.7162 14.6051L12.7119 12.3141L16.7134 10.2129L20.7149 12.3197Z" fill="white"/>
<path fill-rule="evenodd" clip-rule="evenodd" d="M12.0002 12.3197L8.00152 14.6051L4 12.3141L7.99873 10.2129L12.0002 12.3197Z" fill="white"/>
<path fill-rule="evenodd" clip-rule="evenodd" d="M7.95703 5L12.1092 7.05657L12.0032 11.5353L8.0826 9.59588L7.95703 5Z" fill="white"/>
<path fill-rule="evenodd" clip-rule="evenodd" d="M16.7777 19.5665L12.6255 17.5099L12.7315 13.0312L16.6521 14.9706L16.7777 19.5665Z" fill="white"/>
<path fill-rule="evenodd" clip-rule="evenodd" d="M8.09941 19.6086L8.04639 14.9765L12.087 13.0371L12.1372 17.4098L8.09941 19.6086Z" fill="white"/>
</svg>
