<svg width="24" height="24" viewBox="0 0 24 24" fill="none" xmlns="http://www.w3.org/2000/svg">
<rect width="24" height="24" rx="12" fill="#932393"/>
<path fill-rule="evenodd" clip-rule="evenodd" d="M18.041 16.8311C19.8574 15.3779 21 13.2803 21 10.9424C21 6.55664 16.9717 3 12 3C7.02832 3 3 6.55664 3 10.9424C3 13.1953 4.06055 15.2256 5.76562 16.6729C5.66309 17.0303 5.60449 17.417 5.60449 17.8213C5.60449 19.5762 6.66504 21 7.97461 21C8.82422 21 9.56836 20.3994 9.9873 19.4971C10.4033 20.3994 11.1504 21 12 21C12.7734 21 13.4619 20.502 13.8955 19.7285C14.3262 20.502 15.0146 21 15.7881 21C17.0977 21 18.1582 19.5762 18.1582 17.8213C18.1582 17.4756 18.1172 17.1445 18.041 16.8311ZM17.2119 11.1006C17.2119 13.3271 14.8242 15.1348 11.8828 15.1348C8.93848 15.1348 6.55371 13.3271 6.55371 11.1006C6.55371 8.87402 8.93848 7.06934 11.8828 7.06934C14.8242 7.06934 17.2119 8.87402 17.2119 11.1006Z" fill="white"/>
</svg>
