<svg width="24" height="24" viewBox="0 0 24 24" fill="none" xmlns="http://www.w3.org/2000/svg">
<rect width="24" height="24" rx="12" fill="url(#paint0_linear_2103_685)"/>
<path fill-rule="evenodd" clip-rule="evenodd" d="M18.7379 18.1189C18.7379 18.1189 16.5644 19.8402 12.2426 19.1262C8.96122 18.5866 7.21117 15.0196 7.21117 13.1019C7.21117 8.55532 10.6215 7.52037 12.9297 7.52037C15.235 7.52037 16.7383 9.73693 16.7383 11.4554C16.7383 13.1739 15.5071 14.6765 13.5916 14.6765C11.676 14.6765 11.1095 13.3482 11.1095 12.1278C11.1095 10.9075 12.1079 10.4786 13.0222 10.4786C13.9337 10.4786 14.245 11.2479 14.245 11.9065C14.245 12.5678 13.7262 12.8058 13.2943 12.8058C12.8596 12.8058 12.8175 12.59 12.652 12.3631C12.4866 12.1361 12.8624 11.2783 12.2426 11.2783C11.62 11.2783 11.505 12.2634 11.505 12.2634C11.505 12.2634 11.7321 14.1673 13.5916 14.1341C15.451 14.1009 16.3344 12.6841 16.0792 11.2783C15.8212 9.87253 14.4385 8.37821 12.0154 8.67984C9.58945 8.98147 8.59943 11.4001 9.03414 13.9847C9.47166 16.5693 12.61 18.0664 15.0752 17.5295C17.5432 16.9899 20 15.2272 20 10.758C20 6.29171 16.0792 3.60471 11.4012 4.04747C6.72598 4.49023 3.82326 8.52488 4.00836 13.3703C4.19346 18.2186 8.85465 20.8585 12.7979 20.9941C16.7383 21.1297 19.1558 18.8799 19.1558 18.8799C19.1558 18.8799 19.6999 18.4012 19.4868 18.0276C19.2736 17.654 18.7379 18.1189 18.7379 18.1189Z" fill="white"/>
<defs>
<linearGradient id="paint0_linear_2103_685" x1="12" y1="0" x2="12" y2="24" gradientUnits="userSpaceOnUse">
<stop stop-color="#A293F1"/>
<stop offset="1" stop-color="#D705A2"/>
</linearGradient>
</defs>
</svg>
