<svg width="24" height="24" viewBox="0 0 24 24" fill="none" xmlns="http://www.w3.org/2000/svg">
<rect width="24" height="24" rx="12" fill="#B6917C"/>
<path fill-rule="evenodd" clip-rule="evenodd" d="M16.8983 11.6246C16.8954 11.6246 16.8954 11.6217 16.8954 11.6188L18.0414 5.00579C18.0414 5.00289 18.0443 5 18.0473 5H18.4098C18.4127 5 18.4156 5.00289 18.4185 5.00579L21 13.0977C21 13.0977 21 13.1006 20.9971 13.1035L19.0939 14.5737C19.091 14.5765 19.0851 14.5765 19.0851 14.5737L16.8983 11.6246ZM3 16.0091C3 16.012 3.00292 16.0149 3.00585 16.0149L6.92919 17.2854C6.92919 17.2854 6.93211 17.2854 6.93503 17.2854L15.7055 11.2918C15.7055 11.2889 15.7085 11.2889 15.7085 11.286L16.6469 5.04052C16.6498 5.03473 16.6469 5.03184 16.6411 5.03184H8.87331C8.87039 5.03184 8.87039 5.03184 8.86747 5.03473L3.00292 12.0413C3 12.0413 3 12.0413 3 12.0442V16.0091ZM8.56342 17.6096L12.8493 18.9987C12.8522 19.0016 12.8551 18.9987 12.8551 18.9987L17.9596 15.3753C17.9625 15.3724 17.9625 15.3695 17.9625 15.3666L16.0476 12.5478C16.0447 12.5449 16.0417 12.5449 16.0388 12.5449L8.56342 17.6096Z" fill="white"/>
</svg>
