<svg width="24" height="24" viewBox="0 0 24 24" fill="none" xmlns="http://www.w3.org/2000/svg">
<path d="M12 22C9.68359 21.418 7.76953 20.0859 6.26172 18.0117C4.75391 15.9375 4 13.6328 4 11.1016V5L12 2L20 5V11.1016C20 13.6328 19.2461 15.9375 17.7383 18.0117C16.2305 20.0859 14.3164 21.418 12 22ZM12 19.8984C13.7344 19.3516 15.168 18.25 16.3008 16.6016C17.4336 14.9492 18 13.1172 18 11.1016V6.375L12 4.125L6 6.375V11.1016C6 13.1172 6.56641 14.9492 7.69922 16.6016C8.83203 18.25 10.2656 19.3516 12 19.8984Z" fill="#6FA9B1"/>
</svg>
