<svg width="24" height="24" viewBox="0 0 24 24" fill="none" xmlns="http://www.w3.org/2000/svg">
<rect width="24" height="24" rx="12" fill="#346377"/>
<path fill-rule="evenodd" clip-rule="evenodd" d="M3.0022 11.5099C2.99927 11.5071 2.99927 11.5014 3.0022 11.4986L7.52893 4.00568C7.52893 4.00284 7.53479 4 7.53772 4H16.5121C16.515 4 16.5209 4.00284 16.5209 4.00568L20.9978 11.4986C21.0007 11.5014 21.0007 11.5071 20.9978 11.5099L16.5209 18.9943C16.5209 18.9972 16.515 19 16.5121 19H7.53772C7.53479 19 7.52893 18.9972 7.52893 18.9943L3.0022 11.5099ZM16.1693 11.5014C16.1693 13.7294 14.3029 15.5402 12 15.5402C9.70001 15.5402 7.83364 13.7294 7.83364 11.5014C7.83364 9.27058 9.70001 7.46263 12 7.46263C14.3029 7.46263 16.1693 9.27058 16.1693 11.5014Z" fill="white"/>
</svg>
