<svg width="24" height="24" viewBox="0 0 24 24" fill="none" xmlns="http://www.w3.org/2000/svg">
<rect width="24" height="24" rx="12" fill="#3D6EC0"/>
<path fill-rule="evenodd" clip-rule="evenodd" d="M17.7812 15.2896C17.7812 18.532 15.1448 21.1596 11.8906 21.1596C8.63645 21.1596 6 18.532 6 15.2896C6 12.1389 11.5714 3.48177 11.8788 3.00887C11.8847 2.99704 11.8965 2.99704 11.9024 3.00887C12.2098 3.48177 17.7812 12.1389 17.7812 15.2896ZM10.9093 19.2768C7.91822 18.6236 8.43251 15.3133 8.43251 15.3133C8.43251 15.3133 9.24827 17.3113 11.2286 17.9586C13.2088 18.6059 15.6029 17.6571 15.6029 17.6571C15.6029 17.6571 13.8975 19.93 10.9093 19.2768Z" fill="white"/>
</svg>
