<svg width="428" height="926" viewBox="0 0 428 926" fill="none" xmlns="http://www.w3.org/2000/svg">
<g clip-path="url(#clip0_2096_65)">
<rect width="428" height="926" fill="#9E24FF"/>
<rect width="428" height="926" fill="black" fill-opacity="0.4"/>
<rect width="428" height="926" fill="url(#paint0_linear_2096_65)" fill-opacity="0.2"/>
<g clip-path="url(#clip1_2096_65)">
<rect x="204" y="545" width="2" height="2" fill="white" fill-opacity="0.4"/>
<rect x="96" y="851" width="2" height="2" fill="white" fill-opacity="0.5"/>
<rect x="224" y="749" width="1" height="1" fill="white" fill-opacity="0.5"/>
<rect x="288" y="432" width="2" height="2" fill="white" fill-opacity="0.3"/>
<rect x="409" y="379" width="2" height="2" fill="white" fill-opacity="0.3"/>
<rect x="415" y="741" width="1" height="1" fill="white" fill-opacity="0.5"/>
<rect x="300" y="914" width="2" height="2" fill="white" fill-opacity="0.6"/>
<rect x="125" y="633" width="2" height="2" fill="white" fill-opacity="0.5"/>
<rect x="80" y="576" width="1" height="1" fill="white" fill-opacity="0.4"/>
<rect x="260" y="220" width="2" height="2" fill="white" fill-opacity="0.4"/>
<rect x="238" y="608" width="2" height="2" fill="white" fill-opacity="0.4"/>
<rect x="90" y="627" width="1" height="1" fill="white" fill-opacity="0.5"/>
<rect x="112" y="135" width="2" height="2" fill="white" fill-opacity="0.4"/>
<rect x="351" y="459" width="1" height="1" fill="white" fill-opacity="0.4"/>
<rect x="205" y="484" width="1" height="1" fill="white" fill-opacity="0.6"/>
<rect x="387" y="543" width="1" height="1" fill="white" fill-opacity="0.4"/>
<rect x="28" y="733" width="2" height="2" fill="white" fill-opacity="0.5"/>
<rect x="87" y="137" width="2" height="2" fill="white" fill-opacity="0.3"/>
<rect x="85" y="660" width="2" height="2" fill="white" fill-opacity="0.4"/>
<rect x="186" y="282" width="1" height="1" fill="white" fill-opacity="0.5"/>
<rect x="44" y="593" width="1" height="1" fill="white" fill-opacity="0.5"/>
<rect x="96" y="206" width="2" height="2" fill="white" fill-opacity="0.3"/>
<rect x="182" y="126" width="1" height="1" fill="white" fill-opacity="0.6"/>
<rect x="117" y="409" width="1" height="1" fill="white" fill-opacity="0.4"/>
<rect x="118" y="831" width="2" height="2" fill="white" fill-opacity="0.5"/>
<rect x="214" y="171" width="1" height="1" fill="white" fill-opacity="0.3"/>
<rect x="174" y="678" width="1" height="1" fill="white" fill-opacity="0.3"/>
<rect x="175" y="840" width="2" height="2" fill="white" fill-opacity="0.6"/>
<rect x="184" y="23" width="1" height="1" fill="white" fill-opacity="0.5"/>
<rect x="174" y="639" width="2" height="2" fill="white" fill-opacity="0.5"/>
<rect x="101" y="742" width="1" height="1" fill="white" fill-opacity="0.3"/>
<rect x="33" y="515" width="2" height="2" fill="white" fill-opacity="0.5"/>
<rect x="418" y="902" width="1" height="1" fill="white" fill-opacity="0.3"/>
<rect x="134" y="39" width="2" height="2" fill="white" fill-opacity="0.3"/>
<rect x="39" y="34" width="1" height="1" fill="white" fill-opacity="0.5"/>
<rect x="129" y="445" width="2" height="2" fill="white" fill-opacity="0.3"/>
<rect x="128" y="679" width="2" height="2" fill="white" fill-opacity="0.5"/>
<rect x="172" y="483" width="1" height="1" fill="white" fill-opacity="0.5"/>
<rect x="48" y="514" width="1" height="1" fill="white" fill-opacity="0.5"/>
<rect x="212" y="688" width="2" height="2" fill="white" fill-opacity="0.3"/>
<rect x="238" y="81" width="1" height="1" fill="white" fill-opacity="0.4"/>
<rect x="157" y="801" width="1" height="1" fill="white" fill-opacity="0.3"/>
<rect x="331" y="418" width="2" height="2" fill="white" fill-opacity="0.6"/>
<rect x="81" y="651" width="1" height="1" fill="white" fill-opacity="0.3"/>
<rect x="28" y="2" width="2" height="2" fill="white" fill-opacity="0.4"/>
<rect x="74" y="2" width="2" height="2" fill="white" fill-opacity="0.4"/>
<rect x="359" y="862" width="1" height="1" fill="white" fill-opacity="0.6"/>
<rect x="58" y="359" width="1" height="1" fill="white" fill-opacity="0.6"/>
<rect x="297" y="590" width="1" height="1" fill="white" fill-opacity="0.5"/>
<rect x="425" y="470" width="1" height="1" fill="white" fill-opacity="0.5"/>
<rect x="293" y="345" width="2" height="2" fill="white" fill-opacity="0.6"/>
<rect x="161" y="242" width="2" height="2" fill="white" fill-opacity="0.5"/>
<rect x="416" y="6" width="2" height="2" fill="white" fill-opacity="0.5"/>
<rect x="273" y="305" width="1" height="1" fill="white" fill-opacity="0.5"/>
<rect x="262" y="523" width="1" height="1" fill="white" fill-opacity="0.4"/>
<rect x="210" y="89" width="2" height="2" fill="white" fill-opacity="0.3"/>
<rect x="141" y="59" width="2" height="2" fill="white" fill-opacity="0.5"/>
<rect x="384" y="482" width="2" height="2" fill="white" fill-opacity="0.6"/>
<rect x="309" y="546" width="2" height="2" fill="white" fill-opacity="0.5"/>
<rect x="348" y="258" width="1" height="1" fill="white" fill-opacity="0.3"/>
<rect x="264" y="720" width="1" height="1" fill="white" fill-opacity="0.6"/>
<rect x="257" y="644" width="1" height="1" fill="white" fill-opacity="0.5"/>
<rect x="68" y="191" width="1" height="1" fill="white" fill-opacity="0.4"/>
<rect x="140" y="772" width="1" height="1" fill="white" fill-opacity="0.4"/>
<rect x="215" y="827" width="1" height="1" fill="white" fill-opacity="0.4"/>
<rect x="97" y="754" width="1" height="1" fill="white" fill-opacity="0.3"/>
<rect x="292" y="554" width="1" height="1" fill="white" fill-opacity="0.6"/>
<rect x="349" y="39" width="1" height="1" fill="white" fill-opacity="0.4"/>
<rect x="370" y="199" width="2" height="2" fill="white" fill-opacity="0.6"/>
<rect x="46" y="226" width="1" height="1" fill="white" fill-opacity="0.3"/>
<rect x="263" y="225" width="2" height="2" fill="white" fill-opacity="0.5"/>
<rect x="259" y="415" width="2" height="2" fill="white" fill-opacity="0.6"/>
<rect x="270" y="521" width="2" height="2" fill="white" fill-opacity="0.5"/>
<rect x="344" y="342" width="2" height="2" fill="white" fill-opacity="0.4"/>
<rect x="174" y="436" width="1" height="1" fill="white" fill-opacity="0.6"/>
<rect x="331" y="739" width="2" height="2" fill="white" fill-opacity="0.4"/>
<rect x="361" y="317" width="2" height="2" fill="white" fill-opacity="0.5"/>
<rect x="386" y="444" width="1" height="1" fill="white" fill-opacity="0.3"/>
<rect x="284" y="382" width="1" height="1" fill="white" fill-opacity="0.4"/>
<rect x="94" y="552" width="1" height="1" fill="white" fill-opacity="0.5"/>
<rect x="3" y="5" width="2" height="2" fill="white" fill-opacity="0.6"/>
<rect x="351" y="894" width="1" height="1" fill="white" fill-opacity="0.5"/>
<rect x="227" y="24" width="1" height="1" fill="white" fill-opacity="0.4"/>
<rect x="145" y="537" width="2" height="2" fill="white" fill-opacity="0.6"/>
<rect x="287" y="234" width="2" height="2" fill="white" fill-opacity="0.4"/>
<rect x="34" y="285" width="2" height="2" fill="white" fill-opacity="0.4"/>
<rect x="16" y="99" width="1" height="1" fill="white" fill-opacity="0.5"/>
<rect x="106" y="794" width="2" height="2" fill="white" fill-opacity="0.5"/>
<rect x="295" y="888" width="2" height="2" fill="white" fill-opacity="0.5"/>
<rect x="86" y="718" width="1" height="1" fill="white" fill-opacity="0.5"/>
<rect x="198" y="577" width="2" height="2" fill="white" fill-opacity="0.5"/>
<rect x="385" y="765" width="1" height="1" fill="white" fill-opacity="0.5"/>
<rect x="151" y="157" width="2" height="2" fill="white" fill-opacity="0.6"/>
<rect x="350" y="565" width="2" height="2" fill="white" fill-opacity="0.4"/>
<rect x="96" y="385" width="2" height="2" fill="white" fill-opacity="0.5"/>
<rect x="243" y="152" width="2" height="2" fill="white" fill-opacity="0.5"/>
<rect x="192" y="470" width="2" height="2" fill="white" fill-opacity="0.5"/>
<rect x="174" y="668" width="2" height="2" fill="white" fill-opacity="0.6"/>
<rect x="33" y="605" width="1" height="1" fill="white" fill-opacity="0.3"/>
<rect x="198" y="877" width="1" height="1" fill="white" fill-opacity="0.3"/>
<rect x="63" y="2" width="1" height="1" fill="white" fill-opacity="0.4"/>
<rect x="161" y="7" width="1" height="1" fill="white" fill-opacity="0.6"/>
<rect x="149" y="522" width="1" height="1" fill="white" fill-opacity="0.4"/>
<rect x="75" y="920" width="2" height="2" fill="white" fill-opacity="0.4"/>
<rect x="206" y="772" width="2" height="2" fill="white" fill-opacity="0.3"/>
<rect x="113" y="370" width="1" height="1" fill="white" fill-opacity="0.6"/>
<rect x="165" y="39" width="2" height="2" fill="white" fill-opacity="0.4"/>
<rect x="168" y="151" width="2" height="2" fill="white" fill-opacity="0.6"/>
<rect x="266" y="268" width="2" height="2" fill="white" fill-opacity="0.5"/>
<rect x="155" y="682" width="2" height="2" fill="white" fill-opacity="0.4"/>
<rect x="347" y="90" width="1" height="1" fill="white" fill-opacity="0.3"/>
<rect x="393" y="623" width="1" height="1" fill="white" fill-opacity="0.4"/>
<rect x="239" y="707" width="2" height="2" fill="white" fill-opacity="0.5"/>
<rect x="341" y="814" width="1" height="1" fill="white" fill-opacity="0.5"/>
<rect x="141" y="195" width="1" height="1" fill="white" fill-opacity="0.4"/>
<rect x="208" y="918" width="1" height="1" fill="white" fill-opacity="0.6"/>
<rect x="346" y="883" width="2" height="2" fill="white" fill-opacity="0.5"/>
<rect x="200" y="385" width="1" height="1" fill="white" fill-opacity="0.5"/>
<rect x="343" y="789" width="2" height="2" fill="white" fill-opacity="0.5"/>
<rect x="173" y="859" width="1" height="1" fill="white" fill-opacity="0.6"/>
<rect x="89" y="417" width="2" height="2" fill="white" fill-opacity="0.3"/>
<rect x="223" y="480" width="1" height="1" fill="white" fill-opacity="0.3"/>
<rect x="11" y="748" width="1" height="1" fill="white" fill-opacity="0.6"/>
<rect x="127" y="529" width="1" height="1" fill="white" fill-opacity="0.5"/>
<rect x="222" y="317" width="2" height="2" fill="white" fill-opacity="0.5"/>
<rect x="287" y="33" width="2" height="2" fill="white" fill-opacity="0.6"/>
<rect x="240" y="124" width="1" height="1" fill="white" fill-opacity="0.4"/>
<rect x="57" y="728" width="1" height="1" fill="white" fill-opacity="0.5"/>
<rect x="113" y="191" width="2" height="2" fill="white" fill-opacity="0.3"/>
<rect x="29" y="302" width="2" height="2" fill="white" fill-opacity="0.4"/>
<rect x="344" y="430" width="2" height="2" fill="white" fill-opacity="0.3"/>
<rect x="218" y="622" width="2" height="2" fill="white" fill-opacity="0.4"/>
<rect x="110" y="375" width="2" height="2" fill="white" fill-opacity="0.5"/>
<rect x="237" y="639" width="2" height="2" fill="white" fill-opacity="0.6"/>
<rect x="337" y="332" width="1" height="1" fill="white" fill-opacity="0.5"/>
<rect x="152" y="435" width="1" height="1" fill="white" fill-opacity="0.6"/>
<rect x="378" y="537" width="1" height="1" fill="white" fill-opacity="0.5"/>
<rect x="419" y="811" width="2" height="2" fill="white" fill-opacity="0.4"/>
<rect x="180" y="775" width="2" height="2" fill="white" fill-opacity="0.3"/>
<rect x="16" y="848" width="2" height="2" fill="white" fill-opacity="0.6"/>
<rect x="269" y="689" width="2" height="2" fill="white" fill-opacity="0.6"/>
<rect x="414" y="375" width="1" height="1" fill="white" fill-opacity="0.5"/>
<rect x="240" y="721" width="2" height="2" fill="white" fill-opacity="0.4"/>
<rect x="58" y="56" width="1" height="1" fill="white" fill-opacity="0.4"/>
<rect x="130" y="852" width="1" height="1" fill="white" fill-opacity="0.5"/>
<rect x="224" y="801" width="2" height="2" fill="white" fill-opacity="0.6"/>
<rect x="32" y="478" width="2" height="2" fill="white" fill-opacity="0.5"/>
<rect x="162" y="871" width="2" height="2" fill="white" fill-opacity="0.5"/>
<rect x="51" y="649" width="2" height="2" fill="white" fill-opacity="0.6"/>
<rect x="244" y="234" width="1" height="1" fill="white" fill-opacity="0.5"/>
<rect x="79" y="424" width="1" height="1" fill="white" fill-opacity="0.5"/>
<rect x="252" y="50" width="1" height="1" fill="white" fill-opacity="0.6"/>
<rect x="126" y="793" width="1" height="1" fill="white" fill-opacity="0.3"/>
<rect x="418" y="393" width="2" height="2" fill="white" fill-opacity="0.6"/>
<rect x="190" y="767" width="1" height="1" fill="white" fill-opacity="0.5"/>
<rect x="183" y="202" width="1" height="1" fill="white" fill-opacity="0.5"/>
<rect x="143" y="555" width="1" height="1" fill="white" fill-opacity="0.3"/>
<rect x="391" y="857" width="2" height="2" fill="white" fill-opacity="0.6"/>
<rect x="122" y="29" width="1" height="1" fill="white" fill-opacity="0.5"/>
<rect x="37" y="640" width="1" height="1" fill="white" fill-opacity="0.3"/>
<rect x="316" y="347" width="1" height="1" fill="white" fill-opacity="0.5"/>
<rect x="50" y="675" width="2" height="2" fill="white" fill-opacity="0.5"/>
<rect x="167" y="344" width="1" height="1" fill="white" fill-opacity="0.4"/>
<rect x="31" y="470" width="2" height="2" fill="white" fill-opacity="0.3"/>
<rect x="72" y="305" width="2" height="2" fill="white" fill-opacity="0.5"/>
<rect x="245" y="86" width="2" height="2" fill="white" fill-opacity="0.5"/>
<rect x="415" y="420" width="2" height="2" fill="white" fill-opacity="0.3"/>
<rect x="332" y="147" width="2" height="2" fill="white" fill-opacity="0.3"/>
<rect x="224" y="228" width="2" height="2" fill="white" fill-opacity="0.6"/>
<rect x="221" y="586" width="1" height="1" fill="white" fill-opacity="0.4"/>
<rect x="399" y="836" width="2" height="2" fill="white" fill-opacity="0.6"/>
<rect x="68" y="525" width="2" height="2" fill="white" fill-opacity="0.4"/>
<rect x="301" y="619" width="1" height="1" fill="white" fill-opacity="0.3"/>
<rect x="308" y="86" width="2" height="2" fill="white" fill-opacity="0.5"/>
<rect x="239" y="847" width="2" height="2" fill="white" fill-opacity="0.5"/>
<rect x="365" y="596" width="2" height="2" fill="white" fill-opacity="0.5"/>
<rect x="276" y="596" width="1" height="1" fill="white" fill-opacity="0.5"/>
<rect x="391" y="102" width="1" height="1" fill="white" fill-opacity="0.5"/>
<rect x="270" y="549" width="1" height="1" fill="white" fill-opacity="0.5"/>
<rect x="157" y="189" width="1" height="1" fill="white" fill-opacity="0.3"/>
<rect x="251" y="539" width="2" height="2" fill="white" fill-opacity="0.6"/>
<rect x="186" y="405" width="1" height="1" fill="white" fill-opacity="0.5"/>
<rect x="419" y="816" width="1" height="1" fill="white" fill-opacity="0.5"/>
<rect x="264" y="274" width="1" height="1" fill="white" fill-opacity="0.5"/>
<rect x="192" y="503" width="1" height="1" fill="white" fill-opacity="0.3"/>
<rect x="236" y="87" width="1" height="1" fill="white" fill-opacity="0.6"/>
<rect x="67" y="600" width="2" height="2" fill="white" fill-opacity="0.5"/>
<rect x="383" y="446" width="1" height="1" fill="white" fill-opacity="0.4"/>
<rect x="393" y="517" width="2" height="2" fill="white" fill-opacity="0.4"/>
<rect x="102" y="273" width="1" height="1" fill="white" fill-opacity="0.4"/>
<rect x="182" y="766" width="2" height="2" fill="white" fill-opacity="0.5"/>
<rect x="115" y="496" width="1" height="1" fill="white" fill-opacity="0.6"/>
<rect x="136" y="806" width="2" height="2" fill="white" fill-opacity="0.6"/>
<rect x="293" y="315" width="1" height="1" fill="white" fill-opacity="0.4"/>
<rect x="45" y="118" width="1" height="1" fill="white" fill-opacity="0.3"/>
<rect x="297" y="773" width="2" height="2" fill="white" fill-opacity="0.3"/>
<rect x="70" y="339" width="2" height="2" fill="white" fill-opacity="0.4"/>
<rect x="88" y="860" width="1" height="1" fill="white" fill-opacity="0.5"/>
<rect x="427" y="790" width="2" height="2" fill="white" fill-opacity="0.4"/>
<rect x="79" y="798" width="1" height="1" fill="white" fill-opacity="0.6"/>
<rect x="369" y="492" width="2" height="2" fill="white" fill-opacity="0.5"/>
<rect x="311" y="913" width="2" height="2" fill="white" fill-opacity="0.3"/>
<rect x="200" y="392" width="2" height="2" fill="white" fill-opacity="0.4"/>
<rect x="341" y="393" width="2" height="2" fill="white" fill-opacity="0.6"/>
<rect x="411" y="757" width="1" height="1" fill="white" fill-opacity="0.6"/>
<rect x="272" y="491" width="1" height="1" fill="white" fill-opacity="0.3"/>
<rect x="153" y="599" width="1" height="1" fill="white" fill-opacity="0.3"/>
<rect x="129" y="419" width="1" height="1" fill="white" fill-opacity="0.3"/>
<rect x="6" y="34" width="1" height="1" fill="white" fill-opacity="0.4"/>
<rect x="249" y="563" width="2" height="2" fill="white" fill-opacity="0.5"/>
<rect x="99" y="573" width="1" height="1" fill="white" fill-opacity="0.4"/>
<rect x="300" y="642" width="2" height="2" fill="white" fill-opacity="0.4"/>
<rect x="107" y="108" width="1" height="1" fill="white" fill-opacity="0.3"/>
<rect x="35" y="799" width="2" height="2" fill="white" fill-opacity="0.5"/>
<rect x="200" y="346" width="2" height="2" fill="white" fill-opacity="0.4"/>
<rect x="192" y="326" width="1" height="1" fill="white" fill-opacity="0.5"/>
<rect x="31" y="748" width="1" height="1" fill="white" fill-opacity="0.3"/>
<rect x="86" y="742" width="2" height="2" fill="white" fill-opacity="0.5"/>
<rect x="328" y="131" width="1" height="1" fill="white" fill-opacity="0.6"/>
<rect x="309" y="429" width="2" height="2" fill="white" fill-opacity="0.5"/>
<rect x="332" y="836" width="2" height="2" fill="white" fill-opacity="0.4"/>
<rect x="220" y="676" width="2" height="2" fill="white" fill-opacity="0.5"/>
<rect x="25" y="512" width="2" height="2" fill="white" fill-opacity="0.6"/>
<rect x="237" y="266" width="2" height="2" fill="white" fill-opacity="0.4"/>
<rect x="187" y="161" width="2" height="2" fill="white" fill-opacity="0.5"/>
<rect x="119" y="685" width="1" height="1" fill="white" fill-opacity="0.4"/>
<rect x="228" y="516" width="2" height="2" fill="white" fill-opacity="0.5"/>
<rect x="202" y="723" width="1" height="1" fill="white" fill-opacity="0.4"/>
<rect x="362" y="196" width="2" height="2" fill="white" fill-opacity="0.5"/>
<rect x="164" y="183" width="2" height="2" fill="white" fill-opacity="0.6"/>
<rect x="396" y="577" width="2" height="2" fill="white" fill-opacity="0.4"/>
<rect x="79" y="609" width="2" height="2" fill="white" fill-opacity="0.5"/>
<rect x="280" y="672" width="2" height="2" fill="white" fill-opacity="0.5"/>
<rect x="65" y="34" width="1" height="1" fill="white" fill-opacity="0.3"/>
<rect x="354" y="505" width="1" height="1" fill="white" fill-opacity="0.6"/>
<rect x="319" y="804" width="2" height="2" fill="white" fill-opacity="0.4"/>
<rect x="378" y="685" width="2" height="2" fill="white" fill-opacity="0.4"/>
<rect x="181" y="309" width="2" height="2" fill="white" fill-opacity="0.5"/>
<rect x="158" y="541" width="1" height="1" fill="white" fill-opacity="0.5"/>
<rect x="158" y="519" width="2" height="2" fill="white" fill-opacity="0.4"/>
<rect x="242" y="216" width="1" height="1" fill="white" fill-opacity="0.3"/>
<rect x="425" y="340" width="2" height="2" fill="white" fill-opacity="0.5"/>
<rect x="72" y="765" width="2" height="2" fill="white" fill-opacity="0.3"/>
<rect x="183" y="572" width="1" height="1" fill="white" fill-opacity="0.4"/>
<rect x="384" y="913" width="2" height="2" fill="white" fill-opacity="0.6"/>
<rect x="250" y="252" width="2" height="2" fill="white" fill-opacity="0.5"/>
<rect x="47" y="81" width="1" height="1" fill="white" fill-opacity="0.6"/>
<rect x="156" y="807" width="2" height="2" fill="white" fill-opacity="0.4"/>
<rect x="214" y="261" width="1" height="1" fill="white" fill-opacity="0.6"/>
<rect x="103" y="482" width="2" height="2" fill="white" fill-opacity="0.4"/>
<rect x="275" y="454" width="2" height="2" fill="white" fill-opacity="0.4"/>
<rect x="153" y="374" width="1" height="1" fill="white" fill-opacity="0.4"/>
<rect x="323" y="415" width="2" height="2" fill="white" fill-opacity="0.4"/>
<rect x="2" y="652" width="2" height="2" fill="white" fill-opacity="0.5"/>
<rect x="347" y="402" width="1" height="1" fill="white" fill-opacity="0.4"/>
<rect x="44" y="875" width="1" height="1" fill="white" fill-opacity="0.5"/>
<rect x="62" y="77" width="2" height="2" fill="white" fill-opacity="0.6"/>
<rect x="2" y="445" width="1" height="1" fill="white" fill-opacity="0.4"/>
<rect x="245" y="287" width="2" height="2" fill="white" fill-opacity="0.5"/>
<rect x="293" y="698" width="1" height="1" fill="white" fill-opacity="0.3"/>
<rect x="130" y="740" width="1" height="1" fill="white" fill-opacity="0.5"/>
<rect x="157" y="611" width="1" height="1" fill="white" fill-opacity="0.5"/>
<rect x="36" y="458" width="1" height="1" fill="white" fill-opacity="0.4"/>
<rect x="271" y="588" width="2" height="2" fill="white" fill-opacity="0.4"/>
<rect x="116" y="157" width="2" height="2" fill="white" fill-opacity="0.4"/>
<rect x="212" y="344" width="2" height="2" fill="white" fill-opacity="0.6"/>
<rect x="59" y="417" width="1" height="1" fill="white" fill-opacity="0.5"/>
<rect x="199" y="727" width="2" height="2" fill="white" fill-opacity="0.4"/>
<rect x="118" y="550" width="1" height="1" fill="white" fill-opacity="0.3"/>
<rect x="245" y="918" width="1" height="1" fill="white" fill-opacity="0.3"/>
<rect x="94" y="230" width="1" height="1" fill="white" fill-opacity="0.5"/>
<rect x="286" y="680" width="2" height="2" fill="white" fill-opacity="0.5"/>
<rect x="11" y="471" width="1" height="1" fill="white" fill-opacity="0.4"/>
<rect x="350" y="318" width="1" height="1" fill="white" fill-opacity="0.3"/>
<rect x="199" y="881" width="2" height="2" fill="white" fill-opacity="0.4"/>
<rect x="274" y="155" width="1" height="1" fill="white" fill-opacity="0.4"/>
<rect x="426" y="426" width="2" height="2" fill="white" fill-opacity="0.6"/>
<rect x="393" y="716" width="1" height="1" fill="white" fill-opacity="0.5"/>
<rect x="377" y="916" width="1" height="1" fill="white" fill-opacity="0.5"/>
<rect x="379" y="598" width="2" height="2" fill="white" fill-opacity="0.6"/>
<rect x="110" y="189" width="2" height="2" fill="white" fill-opacity="0.5"/>
<rect x="294" y="18" width="1" height="1" fill="white" fill-opacity="0.5"/>
<rect x="162" y="128" width="2" height="2" fill="white" fill-opacity="0.5"/>
<rect x="115" y="416" width="1" height="1" fill="white" fill-opacity="0.6"/>
<rect x="122" y="250" width="2" height="2" fill="white" fill-opacity="0.3"/>
<rect x="306" y="214" width="1" height="1" fill="white" fill-opacity="0.5"/>
<rect x="289" y="144" width="1" height="1" fill="white" fill-opacity="0.6"/>
<rect x="390" y="111" width="2" height="2" fill="white" fill-opacity="0.5"/>
<rect x="154" y="230" width="1" height="1" fill="white" fill-opacity="0.5"/>
<rect x="376" y="351" width="1" height="1" fill="white" fill-opacity="0.3"/>
<rect x="382" y="419" width="1" height="1" fill="white" fill-opacity="0.3"/>
<rect x="13" y="103" width="2" height="2" fill="white" fill-opacity="0.3"/>
<rect x="231" y="570" width="1" height="1" fill="white" fill-opacity="0.3"/>
<rect x="134" y="874" width="2" height="2" fill="white" fill-opacity="0.3"/>
<rect x="359" y="834" width="1" height="1" fill="white" fill-opacity="0.4"/>
<rect x="362" y="475" width="2" height="2" fill="white" fill-opacity="0.5"/>
<rect x="424" y="800" width="1" height="1" fill="white" fill-opacity="0.5"/>
<rect x="145" y="678" width="1" height="1" fill="white" fill-opacity="0.5"/>
<rect x="53" y="478" width="1" height="1" fill="white" fill-opacity="0.5"/>
<rect x="127" y="352" width="2" height="2" fill="white" fill-opacity="0.4"/>
<rect x="48" y="376" width="1" height="1" fill="white" fill-opacity="0.5"/>
<rect x="10" y="240" width="2" height="2" fill="white" fill-opacity="0.5"/>
<rect x="116" y="405" width="2" height="2" fill="white" fill-opacity="0.5"/>
<rect x="111" y="465" width="2" height="2" fill="white" fill-opacity="0.3"/>
<rect x="418" y="476" width="1" height="1" fill="white" fill-opacity="0.6"/>
<rect x="120" y="400" width="1" height="1" fill="white" fill-opacity="0.4"/>
<rect x="79" y="104" width="2" height="2" fill="white" fill-opacity="0.6"/>
<rect x="286" y="469" width="1" height="1" fill="white" fill-opacity="0.6"/>
<rect x="321" y="471" width="1" height="1" fill="white" fill-opacity="0.5"/>
<rect x="355" y="148" width="2" height="2" fill="white" fill-opacity="0.5"/>
<rect x="393" y="681" width="1" height="1" fill="white" fill-opacity="0.5"/>
<rect x="42" y="687" width="1" height="1" fill="white" fill-opacity="0.5"/>
<rect x="84" y="99" width="2" height="2" fill="white" fill-opacity="0.4"/>
<rect x="104" y="533" width="2" height="2" fill="white" fill-opacity="0.4"/>
<rect x="265" y="518" width="2" height="2" fill="white" fill-opacity="0.5"/>
<rect x="118" y="28" width="1" height="1" fill="white" fill-opacity="0.4"/>
<rect x="421" y="24" width="2" height="2" fill="white" fill-opacity="0.4"/>
<rect x="260" y="696" width="2" height="2" fill="white" fill-opacity="0.4"/>
<rect x="96" y="721" width="1" height="1" fill="white" fill-opacity="0.4"/>
<rect x="152" y="548" width="1" height="1" fill="white" fill-opacity="0.4"/>
<rect x="393" y="796" width="1" height="1" fill="white" fill-opacity="0.4"/>
<rect x="325" y="847" width="2" height="2" fill="white" fill-opacity="0.6"/>
<rect x="396" y="660" width="1" height="1" fill="white" fill-opacity="0.5"/>
<rect x="75" y="147" width="1" height="1" fill="white" fill-opacity="0.4"/>
<rect x="172" y="618" width="2" height="2" fill="white" fill-opacity="0.3"/>
<rect y="924" width="1" height="1" fill="white" fill-opacity="0.3"/>
<rect x="290" y="809" width="2" height="2" fill="white" fill-opacity="0.3"/>
<rect x="208" y="492" width="2" height="2" fill="white" fill-opacity="0.6"/>
<rect x="137" y="701" width="1" height="1" fill="white" fill-opacity="0.6"/>
<rect x="426" y="624" width="1" height="1" fill="white" fill-opacity="0.3"/>
<rect x="427" y="490" width="1" height="1" fill="white" fill-opacity="0.6"/>
<rect x="123" y="453" width="2" height="2" fill="white" fill-opacity="0.4"/>
<rect x="47" y="709" width="2" height="2" fill="white" fill-opacity="0.4"/>
<rect x="396" y="662" width="1" height="1" fill="white" fill-opacity="0.6"/>
<rect x="209" y="877" width="1" height="1" fill="white" fill-opacity="0.6"/>
<rect x="261" y="613" width="2" height="2" fill="white" fill-opacity="0.5"/>
<rect x="110" y="903" width="2" height="2" fill="white" fill-opacity="0.4"/>
<rect x="55" y="512" width="2" height="2" fill="white" fill-opacity="0.6"/>
<rect x="176" y="840" width="1" height="1" fill="white" fill-opacity="0.5"/>
<rect x="351" y="143" width="2" height="2" fill="white" fill-opacity="0.5"/>
<rect x="105" y="193" width="1" height="1" fill="white" fill-opacity="0.3"/>
<rect x="221" y="578" width="1" height="1" fill="white" fill-opacity="0.6"/>
<rect x="285" y="81" width="1" height="1" fill="white" fill-opacity="0.6"/>
<rect x="313" y="435" width="2" height="2" fill="white" fill-opacity="0.4"/>
<rect x="419" y="18" width="1" height="1" fill="white" fill-opacity="0.6"/>
<rect x="83" y="843" width="2" height="2" fill="white" fill-opacity="0.4"/>
<rect x="28" y="761" width="2" height="2" fill="white" fill-opacity="0.4"/>
<rect x="51" y="333" width="2" height="2" fill="white" fill-opacity="0.5"/>
<rect x="145" y="174" width="2" height="2" fill="white" fill-opacity="0.4"/>
<rect x="168" y="298" width="1" height="1" fill="white" fill-opacity="0.5"/>
<rect x="279" y="408" width="2" height="2" fill="white" fill-opacity="0.6"/>
<rect x="311" y="543" width="1" height="1" fill="white" fill-opacity="0.4"/>
<rect x="58" y="395" width="1" height="1" fill="white" fill-opacity="0.5"/>
<rect x="416" y="834" width="2" height="2" fill="white" fill-opacity="0.3"/>
<rect x="394" y="386" width="2" height="2" fill="white" fill-opacity="0.4"/>
<rect x="289" y="703" width="2" height="2" fill="white" fill-opacity="0.5"/>
<rect x="272" y="846" width="2" height="2" fill="white" fill-opacity="0.3"/>
<rect x="46" y="223" width="1" height="1" fill="white" fill-opacity="0.5"/>
<rect x="416" y="247" width="1" height="1" fill="white" fill-opacity="0.5"/>
<rect x="101" y="777" width="2" height="2" fill="white" fill-opacity="0.5"/>
<rect x="282" y="810" width="2" height="2" fill="white" fill-opacity="0.5"/>
<rect x="143" y="759" width="2" height="2" fill="white" fill-opacity="0.3"/>
<rect x="321" y="84" width="1" height="1" fill="white" fill-opacity="0.6"/>
<rect x="343" y="495" width="1" height="1" fill="white" fill-opacity="0.5"/>
<rect x="115" y="200" width="2" height="2" fill="white" fill-opacity="0.5"/>
<rect x="285" y="233" width="1" height="1" fill="white" fill-opacity="0.4"/>
<rect x="67" y="764" width="2" height="2" fill="white" fill-opacity="0.6"/>
<rect x="38" y="416" width="1" height="1" fill="white" fill-opacity="0.6"/>
<rect x="395" y="747" width="2" height="2" fill="white" fill-opacity="0.4"/>
<rect x="427" y="667" width="1" height="1" fill="white" fill-opacity="0.5"/>
<rect x="291" y="20" width="1" height="1" fill="white" fill-opacity="0.5"/>
<rect x="269" y="295" width="1" height="1" fill="white" fill-opacity="0.5"/>
<rect x="21" y="222" width="2" height="2" fill="white" fill-opacity="0.5"/>
<rect x="49" y="791" width="1" height="1" fill="white" fill-opacity="0.4"/>
<rect x="221" y="221" width="2" height="2" fill="white" fill-opacity="0.4"/>
<rect x="197" y="497" width="1" height="1" fill="white" fill-opacity="0.6"/>
<rect x="272" y="605" width="1" height="1" fill="white" fill-opacity="0.6"/>
<rect x="248" y="128" width="1" height="1" fill="white" fill-opacity="0.5"/>
<rect x="99" y="28" width="2" height="2" fill="white" fill-opacity="0.3"/>
<rect x="199" y="886" width="1" height="1" fill="white" fill-opacity="0.6"/>
<rect x="199" y="114" width="1" height="1" fill="white" fill-opacity="0.5"/>
<rect x="2" y="470" width="1" height="1" fill="white" fill-opacity="0.5"/>
<rect x="191" y="478" width="1" height="1" fill="white" fill-opacity="0.5"/>
<rect x="187" y="549" width="1" height="1" fill="white" fill-opacity="0.6"/>
<rect x="371" y="313" width="1" height="1" fill="white" fill-opacity="0.4"/>
<rect x="81" y="333" width="2" height="2" fill="white" fill-opacity="0.3"/>
<rect x="19" y="612" width="1" height="1" fill="white" fill-opacity="0.5"/>
<rect x="209" y="657" width="1" height="1" fill="white" fill-opacity="0.6"/>
<rect x="42" y="800" width="1" height="1" fill="white" fill-opacity="0.5"/>
<rect x="411" y="10" width="2" height="2" fill="white" fill-opacity="0.5"/>
<rect x="321" y="153" width="2" height="2" fill="white" fill-opacity="0.3"/>
<rect x="354" y="75" width="2" height="2" fill="white" fill-opacity="0.5"/>
<rect x="269" y="360" width="2" height="2" fill="white" fill-opacity="0.5"/>
<rect x="225" y="408" width="1" height="1" fill="white" fill-opacity="0.4"/>
<rect x="399" y="464" width="1" height="1" fill="white" fill-opacity="0.4"/>
<rect x="360" y="432" width="1" height="1" fill="white"/>
</g>
</g>
<defs>
<linearGradient id="paint0_linear_2096_65" x1="159.5" y1="904" x2="180" y2="78.5" gradientUnits="userSpaceOnUse">
<stop stop-color="#FF6666"/>
<stop offset="1" stop-opacity="0"/>
</linearGradient>
<clipPath id="clip0_2096_65">
<rect width="428" height="926" fill="white"/>
</clipPath>
<clipPath id="clip1_2096_65">
<rect width="428" height="926" fill="white"/>
</clipPath>
</defs>
</svg>
